{"glyphs":{"0":{"ha":778,"x_min":111,"x_max":667,"o":"m 667 224 q 652 128 667 171 q 604 53 638 85 q 518 3 571 21 q 389 -14 465 -14 q 260 3 313 -14 q 174 53 207 21 q 126 128 140 85 q 111 224 111 171 l 111 674 q 126 769 111 725 q 174 844 140 813 q 260 894 207 876 q 389 911 313 911 q 518 894 465 911 q 604 844 571 876 q 652 769 638 813 q 667 674 667 725 l 667 224 m 192 229 q 201 154 192 186 q 234 101 211 122 q 294 69 257 79 q 389 58 332 58 q 483 69 446 58 q 544 101 521 79 q 576 154 567 122 q 586 229 586 186 l 586 668 q 576 743 586 711 q 544 797 567 775 q 483 828 521 818 q 389 839 446 839 q 294 828 332 839 q 234 797 257 818 q 201 743 211 775 q 192 668 192 711 l 192 229 z "},"1":{"ha":453,"x_min":14,"x_max":321,"o":"m 14 763 l 249 897 l 321 897 l 321 0 l 240 0 l 240 801 l 53 696 l 14 763 z "},"2":{"ha":672,"x_min":74,"x_max":568,"o":"m 74 72 q 149 166 118 128 q 208 238 181 204 q 263 306 235 271 q 328 390 290 340 q 397 482 368 443 q 445 553 426 521 q 472 613 464 585 q 481 669 481 640 l 481 692 q 475 759 481 731 q 449 805 469 788 q 392 831 429 822 q 293 839 356 839 q 189 828 244 839 q 97 807 133 818 l 82 876 q 125 888 100 882 q 179 900 150 894 q 240 908 208 906 q 301 911 271 911 q 433 897 382 911 q 512 854 483 882 q 551 786 540 826 q 561 694 561 746 l 561 674 q 553 605 561 636 q 526 538 546 574 q 474 456 507 501 q 392 344 442 411 q 334 269 358 300 q 287 208 310 238 q 238 148 264 179 q 176 72 211 117 l 568 72 l 568 0 l 74 0 l 74 72 z "},"3":{"ha":682,"x_min":76,"x_max":571,"o":"m 89 83 q 190 65 138 72 q 289 58 242 58 q 442 86 394 58 q 490 196 490 114 l 490 285 q 449 383 490 351 q 333 415 408 415 l 147 415 l 147 488 l 325 488 q 438 522 403 488 q 474 614 474 556 l 474 713 q 436 811 474 783 q 307 839 399 839 q 205 833 260 839 q 106 818 150 826 l 94 888 q 194 904 138 897 q 304 911 251 911 q 497 863 439 911 q 554 718 554 814 l 554 621 q 531 517 554 556 q 443 453 508 478 q 536 401 501 440 q 571 290 571 361 l 571 190 q 500 33 571 79 q 286 -14 429 -14 q 185 -8 242 -14 q 76 14 129 -1 l 89 83 z "},"4":{"ha":750,"x_min":42,"x_max":694,"o":"m 557 242 l 557 0 l 476 0 l 476 242 l 42 242 l 42 328 l 449 897 l 557 897 l 557 311 l 694 311 l 694 242 l 557 242 m 476 311 l 476 814 l 119 311 l 476 311 z "},"5":{"ha":688,"x_min":90,"x_max":590,"o":"m 125 897 l 583 897 l 583 825 l 206 825 l 206 501 q 245 501 228 501 q 280 500 263 500 q 317 499 297 500 q 365 499 338 499 q 471 482 428 497 q 540 438 514 467 q 578 372 567 410 q 590 286 590 333 l 590 210 q 577 114 590 156 q 532 44 564 72 q 447 1 500 15 q 317 -14 394 -14 q 202 -8 263 -14 q 90 17 142 -1 l 104 83 q 211 64 156 69 q 317 58 267 58 q 409 67 372 58 q 468 93 446 75 q 500 141 490 111 q 510 215 510 171 l 510 275 q 503 344 510 315 q 478 390 496 372 q 428 417 460 408 q 350 426 397 425 q 234 428 292 428 q 125 429 176 428 l 125 897 z "},"6":{"ha":719,"x_min":111,"x_max":629,"o":"m 192 464 q 233 477 208 471 q 284 489 257 483 q 339 497 311 494 q 390 500 367 500 q 506 485 460 500 q 579 444 551 471 q 618 376 607 417 q 629 283 629 335 l 629 207 q 616 113 629 154 q 573 44 603 72 q 494 1 543 17 q 374 -14 444 -14 q 171 44 231 -14 q 111 207 111 103 l 111 599 q 127 741 111 682 q 181 838 143 800 q 285 894 219 876 q 450 911 350 911 q 484 910 464 911 q 526 906 504 908 q 569 901 547 904 q 608 892 590 897 l 599 824 q 533 835 571 831 q 464 839 496 839 q 323 827 376 839 q 240 787 269 815 q 201 712 211 758 q 192 597 192 665 l 192 464 m 388 428 q 283 415 338 428 q 192 386 229 401 l 192 204 q 204 133 192 161 q 240 89 217 106 q 298 65 264 72 q 374 58 332 58 q 510 92 471 58 q 549 204 549 125 l 549 288 q 542 350 549 324 q 517 394 535 376 q 467 419 499 411 q 388 428 436 428 z "},"7":{"ha":593,"x_min":42,"x_max":561,"o":"m 42 897 l 561 897 l 561 829 l 172 0 l 90 0 l 479 825 l 42 825 l 42 897 z "},"8":{"ha":769,"x_min":104,"x_max":665,"o":"m 642 676 q 635 610 642 640 q 609 553 628 579 q 558 503 590 526 q 478 458 526 481 q 567 410 531 435 q 624 359 603 386 q 656 299 646 332 q 665 228 665 267 l 665 200 q 599 37 665 88 q 385 -14 533 -14 q 170 37 236 -14 q 104 200 104 88 l 104 228 q 113 299 104 267 q 144 359 122 332 q 201 410 167 386 q 289 458 236 435 q 160 558 193 503 q 128 676 128 613 l 128 694 q 140 780 128 740 q 183 849 153 819 q 262 894 213 878 q 385 911 311 911 q 508 894 458 911 q 587 849 557 878 q 629 780 617 819 q 642 694 642 740 l 642 676 m 585 232 q 575 292 585 267 q 542 337 565 317 q 481 376 519 357 q 385 419 443 396 q 288 377 326 396 q 227 338 250 358 q 194 292 204 317 q 185 232 185 267 l 185 204 q 195 135 185 163 q 229 90 206 107 q 291 66 253 74 q 385 58 329 58 q 540 90 494 58 q 585 204 585 122 l 585 232 m 208 671 q 217 616 208 639 q 246 573 225 593 q 301 535 267 553 q 385 494 335 517 q 469 535 435 517 q 524 572 503 553 q 553 615 544 592 q 561 671 561 639 l 561 706 q 524 803 561 768 q 385 839 486 839 q 246 804 283 839 q 208 706 208 769 l 208 671 z "},"9":{"ha":713,"x_min":83,"x_max":601,"o":"m 521 433 q 480 420 504 426 q 428 408 456 414 q 374 400 401 403 q 322 397 346 397 q 207 412 253 397 q 133 453 161 426 q 94 521 106 481 q 83 614 83 561 l 83 690 q 97 783 83 742 q 142 853 111 825 q 221 896 172 881 q 339 911 269 911 q 542 855 482 911 q 601 690 601 799 l 601 299 q 586 156 601 215 q 533 59 571 97 q 429 3 494 21 q 263 -14 364 -14 q 228 -12 249 -14 q 187 -8 208 -11 q 144 -2 165 -6 q 104 7 122 1 l 114 75 q 179 63 142 68 q 249 58 217 58 q 392 70 338 58 q 474 110 446 82 q 512 185 503 139 q 521 300 521 231 l 521 433 m 325 469 q 429 483 375 469 q 521 511 483 496 l 521 693 q 472 808 521 778 q 339 839 424 839 q 257 831 290 839 q 203 806 224 824 q 173 760 182 788 q 164 693 164 732 l 164 610 q 171 547 164 574 q 196 503 178 521 q 245 478 214 486 q 325 469 276 469 z "},"\u0000":{"ha":0,"x_min":0,"x_max":0,"o":""},"\r":{"ha":306,"x_min":0,"x_max":0,"o":""}," ":{"ha":306,"x_min":0,"x_max":0,"o":""},"#":{"ha":999,"x_min":83,"x_max":901,"o":"m 690 249 l 678 0 l 604 0 l 617 249 l 346 249 l 333 0 l 260 0 l 272 249 l 83 249 l 88 317 l 276 317 l 290 601 l 101 601 l 106 669 l 294 669 l 307 897 l 381 897 l 368 669 l 639 669 l 651 897 l 725 897 l 713 669 l 901 669 l 897 601 l 708 601 l 694 317 l 883 317 l 879 249 l 690 249 m 350 317 l 621 317 l 635 601 l 364 601 l 350 317 z "},"$":{"ha":710,"x_min":97,"x_max":613,"o":"m 310 -151 l 310 -12 q 203 -1 257 -10 q 97 28 149 8 l 111 93 q 235 66 174 74 q 347 58 296 58 q 448 67 411 58 q 503 94 485 75 q 527 143 522 113 q 532 218 532 174 q 528 292 532 264 q 507 342 525 321 q 449 379 489 363 q 338 419 410 396 q 203 469 251 447 q 133 519 156 492 q 106 583 110 546 q 101 681 101 621 q 111 781 101 739 q 147 851 121 824 q 219 893 174 879 q 338 910 265 907 l 338 1049 l 415 1049 l 415 910 q 514 902 465 907 q 603 886 563 897 l 593 818 q 481 834 535 829 q 374 839 428 839 q 275 835 313 839 q 217 814 238 831 q 189 765 196 797 q 182 678 182 733 q 185 603 182 631 q 201 560 188 576 q 242 531 214 543 q 321 501 271 518 q 483 440 425 465 q 571 388 542 415 q 606 321 600 360 q 613 219 613 282 q 602 115 613 158 q 567 44 592 72 q 498 3 542 17 q 388 -12 454 -10 l 388 -151 l 310 -151 z "},"%":{"ha":1171,"x_min":76,"x_max":1088,"o":"m 425 -14 l 364 10 l 743 939 l 804 914 l 425 -14 m 472 617 q 426 482 472 531 q 275 433 379 433 q 124 482 171 433 q 76 617 76 531 l 76 756 q 124 890 76 842 q 275 939 171 939 q 426 890 379 939 q 472 756 472 842 l 472 617 m 146 615 q 174 526 146 557 q 275 494 201 494 q 376 526 349 494 q 403 615 403 557 l 403 757 q 376 847 403 815 q 275 878 349 878 q 174 847 201 878 q 146 757 146 815 l 146 615 m 1088 169 q 1041 35 1088 83 q 890 -14 994 -14 q 739 35 786 -14 q 692 169 692 83 l 692 308 q 739 443 692 394 q 890 492 786 492 q 1041 443 994 492 q 1088 308 1088 394 l 1088 169 m 761 168 q 789 78 761 110 q 890 47 817 47 q 991 78 964 47 q 1018 168 1018 110 l 1018 310 q 991 399 1018 368 q 890 431 964 431 q 789 399 817 431 q 761 310 761 368 l 761 168 z "},"&":{"ha":857,"x_min":118,"x_max":801,"o":"m 665 429 l 665 24 q 538 -4 604 6 q 407 -14 472 -14 q 184 38 250 -14 q 118 204 118 89 l 118 293 q 151 406 118 356 q 246 468 185 456 q 163 531 185 490 q 140 628 140 572 l 140 740 q 400 939 140 939 q 458 936 426 939 q 524 929 490 933 q 589 919 557 925 q 647 907 621 914 l 638 839 q 517 858 581 850 q 397 867 453 867 q 263 838 304 867 q 221 740 221 808 l 221 621 q 256 534 221 567 q 364 501 290 501 l 801 501 l 801 429 l 665 429 m 404 57 q 588 78 500 57 l 588 429 l 379 429 q 249 397 299 429 q 199 285 199 364 l 199 208 q 208 138 199 167 q 242 91 218 108 q 305 65 265 74 q 404 57 344 57 z "},"'":{"ha":279,"x_min":104,"x_max":175,"o":"m 104 614 l 104 953 l 175 953 l 175 614 l 104 614 z "},"(":{"ha":418,"x_min":104,"x_max":376,"o":"m 318 -214 q 158 93 211 -61 q 104 422 104 247 q 158 751 104 597 q 318 1058 211 906 l 376 1018 q 283 853 319 929 q 224 706 246 776 q 194 566 203 635 q 185 422 185 497 q 194 278 185 347 q 224 139 203 210 q 283 -8 246 68 q 376 -174 319 -85 l 318 -214 z "},")":{"ha":418,"x_min":42,"x_max":314,"o":"m 42 -174 q 135 -8 97 -85 q 194 139 172 68 q 224 278 215 210 q 233 422 233 347 q 224 566 233 497 q 194 706 215 635 q 135 853 172 776 q 42 1018 97 929 l 100 1058 q 260 751 207 906 q 314 422 314 597 q 260 93 314 247 q 100 -214 207 -61 l 42 -174 z "},"*":{"ha":663,"x_min":76,"x_max":586,"o":"m 282 714 l 76 714 l 76 765 l 285 765 l 171 940 l 214 968 l 331 788 l 447 968 l 490 940 l 376 765 l 586 765 l 586 714 l 378 714 l 492 540 l 449 513 l 331 694 l 213 513 l 169 540 l 282 714 z "},"+":{"ha":744,"x_min":90,"x_max":654,"o":"m 90 374 l 333 374 l 333 621 l 411 621 l 411 374 l 654 374 l 654 301 l 411 301 l 411 54 l 333 54 l 333 301 l 90 301 l 90 374 z "},",":{"ha":335,"x_min":104,"x_max":210,"o":"m 124 119 l 210 119 l 210 0 l 143 -150 l 104 -133 l 154 0 l 124 0 l 124 119 z "},"-":{"ha":503,"x_min":90,"x_max":413,"o":"m 90 424 l 413 424 l 413 356 l 90 356 l 90 424 z "},".":{"ha":336,"x_min":125,"x_max":211,"o":"m 125 119 l 211 119 l 211 0 l 125 0 l 125 119 z "},"/":{"ha":611,"x_min":90,"x_max":514,"o":"m 171 -162 l 90 -162 l 432 939 l 514 939 l 171 -162 z "},":":{"ha":336,"x_min":125,"x_max":211,"o":"m 125 564 l 211 564 l 211 444 l 125 444 l 125 564 m 125 119 l 211 119 l 211 0 l 125 0 l 125 119 z "},";":{"ha":335,"x_min":104,"x_max":210,"o":"m 124 564 l 210 564 l 210 444 l 124 444 l 124 564 m 124 119 l 210 119 l 210 0 l 143 -150 l 104 -133 l 154 0 l 124 0 l 124 119 z "},"<":{"ha":764,"x_min":69,"x_max":660,"o":"m 69 368 l 622 690 l 657 632 l 150 339 l 660 44 l 625 -14 l 69 310 l 69 368 z "},"=":{"ha":707,"x_min":111,"x_max":596,"o":"m 111 494 l 596 494 l 596 429 l 111 429 l 111 494 m 111 256 l 596 256 l 596 190 l 111 190 l 111 256 z "},">":{"ha":764,"x_min":104,"x_max":694,"o":"m 694 310 l 139 -14 l 104 44 l 614 339 l 107 632 l 142 690 l 694 368 l 694 310 z "},"?":{"ha":636,"x_min":83,"x_max":539,"o":"m 214 382 q 282 435 249 408 q 365 503 315 461 q 417 550 399 531 q 445 591 436 569 q 456 642 454 613 q 458 719 458 671 q 453 805 458 771 q 431 859 449 839 q 378 887 413 879 q 283 894 343 894 q 195 890 244 894 q 97 874 146 885 l 83 943 q 185 960 132 954 q 286 967 238 967 q 417 953 367 967 q 494 909 467 939 q 530 833 521 879 q 539 722 539 786 q 535 623 539 661 q 518 555 532 585 q 478 499 504 525 q 406 436 451 472 q 329 375 361 401 q 261 321 297 349 l 214 382 m 214 133 l 300 133 l 300 0 l 214 0 l 214 133 z "},"@":{"ha":1043,"x_min":90,"x_max":953,"o":"m 632 608 q 533 624 575 624 q 475 609 493 624 q 450 558 457 594 q 436 478 443 518 q 422 399 429 439 q 427 356 417 367 q 472 346 438 346 q 534 358 499 346 q 593 388 569 371 l 632 608 m 385 558 q 430 653 396 624 q 542 683 464 683 q 579 681 558 683 q 623 674 600 678 q 667 663 646 669 q 706 649 689 657 l 654 354 q 679 345 665 349 q 710 342 693 342 q 790 358 757 342 q 844 404 824 375 q 874 472 865 433 q 883 554 883 510 q 791 792 883 708 q 535 875 699 875 q 389 846 457 875 q 270 763 321 817 q 190 632 219 708 q 161 463 161 556 q 187 295 161 371 q 265 165 213 219 q 396 81 317 111 q 583 51 475 51 q 720 67 654 51 q 853 111 786 82 l 874 56 q 735 3 808 19 q 583 -14 663 -14 q 376 20 468 -14 q 222 116 285 54 q 124 266 158 178 q 90 463 90 354 q 124 656 90 568 q 218 806 158 743 q 359 904 278 869 q 535 939 440 939 q 715 910 638 939 q 846 830 793 881 q 926 709 899 779 q 953 557 953 639 q 938 446 953 496 q 892 359 922 396 q 817 302 863 322 q 710 282 771 282 q 647 294 675 282 q 600 325 618 306 q 536 298 571 310 q 456 286 501 286 q 372 319 394 286 q 358 403 350 353 l 385 558 z "},"A":{"ha":863,"x_min":49,"x_max":814,"o":"m 646 243 l 215 243 l 129 0 l 49 0 l 371 925 l 492 925 l 814 0 l 733 0 l 646 243 m 240 314 l 621 314 l 431 878 l 240 314 z "},"B":{"ha":776,"x_min":125,"x_max":700,"o":"m 125 0 l 125 925 l 472 925 q 619 880 567 925 q 671 743 671 835 l 671 632 q 647 540 671 576 q 565 482 622 503 q 660 431 619 475 q 700 310 700 388 l 700 189 q 683 105 700 140 q 638 47 667 69 q 571 12 610 24 q 488 0 532 0 l 125 0 m 618 307 q 582 401 618 365 q 465 438 546 438 l 207 438 l 207 72 l 489 72 q 587 103 556 72 q 618 189 618 133 l 618 307 m 589 754 q 474 853 589 853 l 207 853 l 207 510 l 446 510 q 556 545 522 510 q 589 636 589 581 l 589 754 z "},"C":{"ha":710,"x_min":104,"x_max":633,"o":"m 186 256 q 199 164 186 201 q 239 103 211 126 q 311 70 267 81 q 418 60 356 60 q 519 65 463 60 q 624 78 576 69 l 633 7 q 521 -9 581 -4 q 411 -14 461 -14 q 269 3 328 -14 q 174 56 210 21 q 121 140 138 90 q 104 254 104 189 l 104 671 q 121 785 104 735 q 174 869 138 835 q 269 922 210 904 q 411 939 328 939 q 521 934 461 939 q 633 918 581 929 l 624 847 q 519 860 576 856 q 418 865 463 865 q 311 855 356 865 q 239 822 267 844 q 199 761 211 799 q 186 669 186 724 l 186 256 z "},"D":{"ha":819,"x_min":125,"x_max":719,"o":"m 431 925 q 571 904 515 925 q 660 847 626 883 q 706 760 693 811 q 719 651 719 710 l 719 274 q 706 165 719 215 q 660 78 693 114 q 571 21 626 42 q 431 0 515 0 l 125 0 l 125 925 l 431 925 m 207 74 l 432 74 q 593 122 549 74 q 638 269 638 171 l 638 656 q 593 803 638 754 q 432 851 549 851 l 207 851 l 207 74 z "},"E":{"ha":744,"x_min":125,"x_max":647,"o":"m 125 925 l 646 925 l 646 851 l 207 851 l 207 508 l 615 508 l 615 435 l 207 435 l 207 74 l 647 74 l 647 0 l 125 0 l 125 925 z "},"F":{"ha":710,"x_min":125,"x_max":651,"o":"m 125 0 l 125 925 l 651 925 l 651 851 l 207 851 l 207 494 l 621 494 l 621 421 l 207 421 l 207 0 l 125 0 z "},"G":{"ha":793,"x_min":104,"x_max":682,"o":"m 186 257 q 196 169 186 206 q 231 108 206 132 q 298 72 256 83 q 406 60 340 60 q 503 65 449 60 q 600 81 557 69 l 600 408 l 682 408 l 682 25 q 542 -4 617 6 q 400 -14 468 -14 q 258 4 315 -14 q 167 56 201 22 q 119 140 133 90 q 104 256 104 190 l 104 669 q 120 785 104 735 q 173 869 136 835 q 268 922 210 904 q 411 939 326 939 q 542 932 471 939 q 665 914 613 925 l 657 843 q 535 859 599 853 q 413 865 472 865 q 304 854 347 865 q 235 819 261 843 q 197 758 208 796 q 186 668 186 721 l 186 257 z "},"H":{"ha":861,"x_min":125,"x_max":736,"o":"m 654 0 l 654 439 l 207 439 l 207 0 l 125 0 l 125 925 l 207 925 l 207 513 l 654 513 l 654 925 l 736 925 l 736 0 l 654 0 z "},"I":{"ha":346,"x_min":132,"x_max":214,"o":"m 214 0 l 132 0 l 132 925 l 214 925 l 214 0 z "},"J":{"ha":325,"x_min":-14,"x_max":207,"o":"m 207 925 l 207 8 q 203 -62 207 -35 q 183 -115 200 -89 q 133 -176 167 -142 q 40 -268 100 -210 l -14 -210 q 65 -131 38 -160 q 106 -81 93 -101 q 122 -44 119 -61 q 125 0 125 -26 l 125 925 l 207 925 z "},"K":{"ha":790,"x_min":125,"x_max":735,"o":"m 207 0 l 125 0 l 125 925 l 207 925 l 207 0 m 338 471 l 735 0 l 632 0 l 239 471 l 607 925 l 708 925 l 338 471 z "},"L":{"ha":686,"x_min":125,"x_max":624,"o":"m 207 74 l 624 74 l 624 0 l 125 0 l 125 925 l 207 925 l 207 74 z "},"M":{"ha":1104,"x_min":118,"x_max":986,"o":"m 885 843 l 615 119 l 489 119 l 219 843 l 200 0 l 118 0 l 146 925 l 265 925 l 553 169 l 839 925 l 958 925 l 986 0 l 904 0 l 885 843 z "},"N":{"ha":886,"x_min":125,"x_max":761,"o":"m 203 844 l 203 0 l 125 0 l 125 925 l 244 925 l 683 79 l 683 925 l 761 925 l 761 0 l 642 0 l 203 844 z "},"O":{"ha":856,"x_min":104,"x_max":751,"o":"m 751 261 q 734 151 751 201 q 678 65 717 101 q 578 7 640 28 q 428 -14 517 -14 q 277 7 339 -14 q 177 65 215 28 q 122 151 139 101 q 104 261 104 201 l 104 664 q 122 774 104 724 q 177 860 139 824 q 277 918 215 897 q 428 939 339 939 q 578 918 517 939 q 678 860 640 897 q 734 774 717 824 q 751 664 751 724 l 751 261 m 428 60 q 615 113 561 60 q 669 264 669 165 l 669 661 q 615 813 669 760 q 428 865 561 865 q 240 813 294 865 q 186 661 186 760 l 186 264 q 240 113 186 165 q 428 60 294 60 z "},"P":{"ha":756,"x_min":125,"x_max":693,"o":"m 125 925 l 439 925 q 557 910 508 925 q 635 867 606 894 q 679 799 665 839 q 693 711 693 760 l 693 567 q 679 478 693 518 q 635 411 665 439 q 557 368 606 383 q 439 353 508 353 l 207 353 l 207 0 l 125 0 l 125 925 m 611 711 q 569 819 611 788 q 440 851 528 851 l 207 851 l 207 426 l 440 426 q 569 458 528 426 q 611 567 611 490 l 611 711 z "},"Q":{"ha":856,"x_min":104,"x_max":751,"o":"m 515 -225 l 424 -14 q 275 7 336 -14 q 176 65 214 28 q 121 151 138 101 q 104 261 104 201 l 104 664 q 122 774 104 724 q 177 860 139 824 q 277 918 215 897 q 428 939 339 939 q 578 918 517 939 q 678 860 640 897 q 734 774 717 824 q 751 664 751 724 l 751 261 q 738 164 751 208 q 696 84 725 119 q 621 25 667 49 q 510 -8 575 1 l 590 -193 l 515 -225 m 428 60 q 615 113 561 60 q 669 264 669 165 l 669 661 q 615 813 669 760 q 428 865 561 865 q 240 813 294 865 q 186 661 186 760 l 186 264 q 240 113 186 165 q 428 60 294 60 z "},"R":{"ha":860,"x_min":125,"x_max":804,"o":"m 471 356 l 453 356 l 207 356 l 207 0 l 125 0 l 125 925 l 453 925 q 571 910 522 925 q 649 867 619 894 q 693 799 679 839 q 707 711 707 760 l 707 569 q 673 440 707 493 q 557 367 639 386 l 804 0 l 711 0 l 471 356 m 625 711 q 583 819 625 788 q 454 851 542 851 l 207 851 l 207 429 l 454 429 q 583 461 542 429 q 625 569 625 493 l 625 711 z "},"S":{"ha":756,"x_min":104,"x_max":651,"o":"m 651 229 q 640 127 651 172 q 597 51 628 82 q 509 3 565 19 q 365 -14 453 -14 q 234 -3 304 -14 q 104 31 164 7 l 119 97 q 368 60 244 60 q 467 69 428 60 q 528 98 506 78 q 560 149 551 118 q 569 225 569 181 q 566 311 569 279 q 543 364 563 343 q 481 399 524 385 q 363 431 439 413 q 230 469 279 450 q 155 519 181 489 q 122 594 129 549 q 114 708 114 639 q 126 808 114 765 q 171 881 139 851 q 258 924 203 910 q 401 939 314 939 q 528 930 463 939 q 640 907 593 921 l 631 838 q 519 857 579 849 q 404 865 458 865 q 294 856 335 865 q 231 828 253 847 q 203 779 210 810 q 196 706 196 749 q 199 617 196 649 q 222 565 203 585 q 281 531 242 544 q 394 500 321 518 q 538 456 486 476 q 614 408 589 436 q 645 337 639 379 q 651 229 651 294 z "},"T":{"ha":721,"x_min":35,"x_max":686,"o":"m 319 851 l 35 851 l 35 925 l 686 925 l 686 851 l 401 851 l 401 0 l 319 0 l 319 851 z "},"U":{"ha":875,"x_min":118,"x_max":757,"o":"m 757 925 l 757 263 q 739 153 757 204 q 682 65 721 103 q 583 7 643 28 q 438 -14 522 -14 q 292 7 353 -14 q 193 65 232 28 q 136 153 154 103 q 118 263 118 204 l 118 925 l 200 925 l 200 263 q 260 113 200 165 q 438 60 319 60 q 615 113 556 60 q 675 263 675 165 l 675 925 l 757 925 z "},"V":{"ha":819,"x_min":28,"x_max":792,"o":"m 711 925 l 792 925 l 465 0 l 354 0 l 28 925 l 108 925 l 410 74 l 711 925 z "},"W":{"ha":1236,"x_min":35,"x_max":1201,"o":"m 618 867 l 413 0 l 285 0 l 35 925 l 114 925 l 346 63 l 553 925 l 683 925 l 890 63 l 1122 925 l 1201 925 l 951 0 l 824 0 l 618 867 z "},"X":{"ha":806,"x_min":49,"x_max":757,"o":"m 358 469 l 58 925 l 147 925 l 403 535 l 658 925 l 747 925 l 447 469 l 757 0 l 668 0 l 403 404 l 138 0 l 49 0 l 358 469 z "},"Y":{"ha":754,"x_min":21,"x_max":733,"o":"m 376 367 l 649 925 l 733 925 l 418 285 l 418 0 l 336 0 l 336 285 l 21 925 l 106 925 l 376 367 z "},"Z":{"ha":800,"x_min":97,"x_max":703,"o":"m 188 74 l 703 74 l 703 0 l 97 0 l 97 74 l 601 851 l 111 851 l 111 925 l 693 925 l 693 851 l 188 74 z "},"[":{"ha":432,"x_min":139,"x_max":390,"o":"m 139 -175 l 139 1097 l 390 1097 l 390 1022 l 219 1022 l 219 -100 l 390 -100 l 390 -175 l 139 -175 z "},"\\":{"ha":611,"x_min":97,"x_max":521,"o":"m 97 939 l 179 939 l 521 -162 l 440 -162 l 97 939 z "},"]":{"ha":432,"x_min":42,"x_max":293,"o":"m 42 -175 l 42 -100 l 213 -100 l 213 1022 l 42 1022 l 42 1097 l 293 1097 l 293 -175 l 42 -175 z "},"^":{"ha":631,"x_min":69,"x_max":561,"o":"m 69 565 l 271 953 l 360 953 l 561 565 l 496 529 l 315 878 l 135 529 l 69 565 z "},"_":{"ha":617,"x_min":-1,"x_max":618,"o":"m -1 -174 l -1 -104 l 618 -104 l 618 -174 l -1 -174 z "},"`":{"ha":431,"x_min":104,"x_max":326,"o":"m 289 758 q 197 812 246 782 q 104 874 149 842 l 144 935 q 238 872 190 903 q 326 815 285 842 l 289 758 z "},"a":{"ha":676,"x_min":90,"x_max":572,"o":"m 572 0 l 504 0 l 497 56 q 390 6 449 25 q 265 -14 332 -14 q 182 1 215 -14 q 128 42 149 15 q 99 106 108 69 q 90 189 90 143 q 140 338 90 296 q 289 381 189 381 l 492 381 l 492 478 q 485 547 492 519 q 460 590 478 574 q 413 612 442 606 q 338 618 383 618 q 242 609 289 618 q 154 583 194 600 l 139 653 q 236 681 182 672 q 343 690 290 690 q 519 641 465 690 q 572 481 572 592 l 572 0 m 492 313 l 292 313 q 194 283 219 313 q 168 188 168 254 q 172 134 168 158 q 188 92 176 110 q 222 65 200 75 q 282 56 244 56 q 390 76 332 56 q 492 124 447 96 l 492 313 z "},"b":{"ha":706,"x_min":118,"x_max":615,"o":"m 615 225 q 601 124 615 168 q 556 49 588 79 q 473 2 525 18 q 344 -14 421 -14 q 293 -12 322 -14 q 233 -7 264 -10 q 172 1 201 -4 q 118 11 142 6 l 118 953 l 199 964 l 199 639 q 296 676 240 661 q 421 690 351 690 q 569 637 524 690 q 615 493 615 583 l 615 225 m 199 74 q 278 63 239 67 q 354 60 318 60 q 444 71 408 60 q 499 103 479 82 q 527 154 519 124 q 535 222 535 185 l 535 494 q 506 584 535 556 q 410 613 476 613 q 297 597 347 613 q 199 554 247 582 l 199 74 z "},"c":{"ha":556,"x_min":76,"x_max":486,"o":"m 157 217 q 197 92 157 126 q 332 58 238 58 q 476 72 394 58 l 486 6 q 408 -9 450 -4 q 332 -14 367 -14 q 212 2 261 -14 q 133 48 163 18 q 90 122 103 78 q 76 219 76 165 l 76 457 q 90 555 76 511 q 133 628 103 599 q 212 674 163 658 q 332 690 261 690 q 408 685 367 690 q 486 671 450 681 l 476 604 q 332 618 394 618 q 197 584 238 618 q 157 460 157 550 l 157 217 z "},"d":{"ha":713,"x_min":97,"x_max":594,"o":"m 97 482 q 108 567 97 528 q 144 633 119 606 q 209 675 169 660 q 306 690 249 690 q 407 685 358 690 q 514 668 456 679 l 514 953 l 594 964 l 594 0 l 521 0 l 517 64 q 406 6 465 25 q 289 -14 346 -14 q 143 34 189 -14 q 97 174 97 82 l 97 482 m 514 594 q 303 618 400 618 q 207 585 236 618 q 178 482 178 551 l 178 174 q 201 87 178 115 q 294 58 225 58 q 411 82 357 58 q 514 144 465 106 l 514 594 z "},"e":{"ha":665,"x_min":83,"x_max":582,"o":"m 164 229 q 172 151 164 183 q 201 97 181 118 q 256 67 222 76 q 340 57 290 57 q 449 66 393 57 q 554 89 504 75 l 568 24 q 459 -3 521 7 q 335 -14 397 -14 q 215 3 264 -14 q 138 53 167 21 q 96 131 108 86 q 83 232 83 176 l 83 444 q 96 541 83 496 q 138 619 108 586 q 217 672 168 653 q 336 690 265 690 q 455 672 407 690 q 531 619 503 653 q 570 541 558 586 q 582 444 582 496 l 582 296 l 164 296 l 164 229 m 164 367 l 503 367 l 503 450 q 467 579 503 535 q 336 624 431 624 q 202 580 240 624 q 164 450 164 536 l 164 367 z "},"f":{"ha":496,"x_min":49,"x_max":489,"o":"m 478 899 q 356 911 411 911 q 276 888 297 911 q 256 808 256 864 l 256 676 l 464 676 l 456 607 l 256 607 l 256 0 l 175 0 l 175 607 l 49 607 l 49 676 l 175 676 l 175 818 q 222 941 175 901 q 350 981 269 981 q 419 976 379 981 q 489 961 458 971 l 478 899 z "},"g":{"ha":713,"x_min":90,"x_max":650,"o":"m 610 444 q 547 268 610 329 q 350 207 485 207 q 260 215 301 207 q 219 171 232 192 q 207 126 207 150 q 220 94 207 107 q 268 78 233 81 q 322 74 300 75 q 363 70 343 72 q 406 67 383 68 q 463 63 429 65 q 593 14 556 56 q 631 -99 631 -28 q 616 -187 631 -151 q 568 -246 601 -224 q 479 -278 535 -268 q 342 -287 424 -287 q 288 -285 318 -287 q 226 -279 258 -283 q 163 -269 194 -275 q 104 -254 131 -262 l 117 -190 q 228 -210 167 -201 q 344 -218 290 -218 q 453 -211 413 -218 q 517 -190 494 -204 q 545 -153 539 -175 q 551 -103 551 -132 q 528 -31 551 -53 q 443 -4 504 -8 q 391 -1 411 -3 q 353 1 371 0 q 314 4 335 3 q 260 8 293 6 q 156 49 185 15 q 126 128 126 83 q 140 185 126 156 q 190 242 154 214 q 90 444 90 299 l 90 453 q 104 554 90 510 q 149 628 118 599 q 228 674 179 658 q 350 690 278 690 q 464 676 418 690 l 650 676 l 650 618 l 565 611 q 610 453 610 554 l 610 444 m 532 456 q 492 584 532 547 q 350 621 451 621 q 208 585 249 621 q 168 456 168 549 l 168 442 q 213 311 168 346 q 350 276 257 276 q 488 313 443 276 q 532 442 532 350 l 532 456 z "},"h":{"ha":724,"x_min":118,"x_max":613,"o":"m 532 0 l 532 547 q 513 600 532 585 q 458 615 494 615 q 406 609 438 615 q 340 592 375 603 q 267 568 304 582 q 199 538 231 554 l 199 0 l 118 0 l 118 953 l 199 964 l 199 617 q 260 642 225 629 q 331 666 294 656 q 403 683 367 676 q 469 690 439 690 q 581 649 549 690 q 613 538 613 608 l 613 0 l 532 0 z "},"i":{"ha":317,"x_min":118,"x_max":199,"o":"m 118 0 l 118 676 l 199 676 l 199 0 l 118 0 m 118 804 l 118 953 l 199 953 l 199 804 l 118 804 z "},"j":{"ha":310,"x_min":-11,"x_max":199,"o":"m 199 676 l 199 -49 q 194 -111 199 -86 q 172 -160 189 -136 q 124 -212 156 -183 q 42 -287 93 -240 l -11 -229 q 58 -167 32 -190 q 97 -124 83 -143 q 114 -86 110 -106 q 118 -36 118 -67 l 118 676 l 199 676 m 118 804 l 118 953 l 199 953 l 199 804 l 118 804 z "},"k":{"ha":654,"x_min":118,"x_max":613,"o":"m 118 0 l 118 953 l 199 964 l 199 0 l 118 0 m 601 676 l 332 343 l 613 0 l 510 0 l 235 343 l 501 676 l 601 676 z "},"l":{"ha":317,"x_min":118,"x_max":199,"o":"m 118 0 l 118 953 l 199 964 l 199 0 l 118 0 z "},"m":{"ha":1138,"x_min":118,"x_max":1026,"o":"m 946 0 l 946 547 q 927 600 946 585 q 872 615 908 615 q 817 609 849 615 q 750 592 785 603 q 680 568 715 582 q 613 538 644 554 l 613 0 l 532 0 l 532 547 q 513 600 532 585 q 458 615 494 615 q 406 609 438 615 q 340 592 375 603 q 267 568 304 582 q 199 538 231 554 l 199 0 l 118 0 l 118 676 l 189 676 l 194 615 q 256 642 221 628 q 328 666 292 656 q 402 683 365 676 q 469 690 439 690 q 555 671 524 690 q 600 615 586 651 q 665 642 629 629 q 740 666 701 656 q 815 683 778 676 q 883 690 853 690 q 994 649 963 690 q 1026 538 1026 608 l 1026 0 l 946 0 z "},"n":{"ha":724,"x_min":118,"x_max":613,"o":"m 532 0 l 532 547 q 513 600 532 585 q 458 615 494 615 q 406 609 438 615 q 340 592 375 603 q 267 568 304 582 q 199 538 231 554 l 199 0 l 118 0 l 118 676 l 189 676 l 194 615 q 256 642 221 628 q 328 666 292 656 q 402 683 365 676 q 469 690 439 690 q 581 649 549 690 q 613 538 613 608 l 613 0 l 532 0 z "},"o":{"ha":692,"x_min":83,"x_max":608,"o":"m 608 232 q 594 135 608 179 q 548 57 579 90 q 467 5 517 24 q 346 -14 417 -14 q 225 5 275 -14 q 144 57 175 24 q 98 135 113 90 q 83 232 83 179 l 83 444 q 98 541 83 496 q 144 619 113 586 q 225 672 175 653 q 346 690 275 690 q 467 672 417 690 q 548 619 517 653 q 594 541 579 586 q 608 444 608 496 l 608 232 m 528 447 q 485 576 528 533 q 346 618 442 618 q 207 576 250 618 q 164 447 164 533 l 164 229 q 207 101 164 143 q 346 58 250 58 q 485 101 442 58 q 528 229 528 143 l 528 447 z "},"p":{"ha":710,"x_min":118,"x_max":615,"o":"m 615 194 q 568 44 615 101 q 407 -14 521 -14 q 306 -8 354 -14 q 199 8 257 -3 l 199 -274 l 118 -285 l 118 676 l 192 676 l 196 613 q 307 671 247 651 q 424 690 367 690 q 569 642 524 690 q 615 503 615 594 l 615 194 m 199 82 q 410 58 313 58 q 506 92 476 58 q 535 194 535 125 l 535 503 q 511 590 535 561 q 418 618 488 618 q 301 594 356 618 q 199 532 247 571 l 199 82 z "},"q":{"ha":706,"x_min":90,"x_max":588,"o":"m 90 451 q 104 553 90 508 q 149 628 118 597 q 233 674 181 658 q 361 690 285 690 q 413 688 383 690 q 473 683 442 686 q 534 676 504 681 q 588 665 564 671 l 588 -274 l 507 -285 l 507 38 q 410 1 465 15 q 285 -14 354 -14 q 136 40 182 -14 q 90 183 90 93 l 90 451 m 507 603 q 427 613 467 610 q 351 617 388 617 q 262 606 297 617 q 206 574 226 594 q 178 522 186 553 q 171 454 171 492 l 171 182 q 200 92 171 121 q 296 64 229 64 q 408 79 358 64 q 507 122 458 94 l 507 603 z "},"r":{"ha":433,"x_min":118,"x_max":413,"o":"m 413 611 q 303 553 360 588 q 199 486 247 518 l 199 0 l 118 0 l 118 676 l 190 676 l 194 574 q 301 641 249 610 q 403 690 354 672 l 413 611 z "},"s":{"ha":604,"x_min":97,"x_max":521,"o":"m 521 171 q 511 90 521 125 q 476 33 501 56 q 408 -2 451 10 q 296 -14 364 -14 q 190 -4 244 -14 q 97 21 135 6 l 111 86 q 204 65 156 72 q 290 58 253 58 q 367 63 338 58 q 413 81 396 68 q 435 115 429 93 q 440 168 440 136 q 438 226 440 204 q 419 263 435 249 q 373 287 404 276 q 283 311 342 297 q 183 343 219 326 q 128 383 147 360 q 105 438 110 406 q 100 517 100 471 q 148 646 100 601 q 321 690 196 690 q 420 684 368 690 q 513 667 472 678 l 504 599 q 410 613 464 607 q 315 618 357 618 q 244 612 271 618 q 203 593 218 606 q 185 561 189 581 q 181 514 181 542 q 183 458 181 479 q 199 424 186 438 q 238 401 211 410 q 311 379 264 392 q 428 343 386 360 q 490 303 469 326 q 516 249 511 281 q 521 171 521 218 z "},"t":{"ha":515,"x_min":42,"x_max":467,"o":"m 467 13 q 399 -6 438 1 q 325 -14 361 -14 q 208 19 244 -14 q 172 132 172 51 l 172 607 l 42 607 l 42 676 l 172 676 l 172 836 l 253 847 l 253 676 l 460 676 l 451 607 l 253 607 l 253 140 q 255 102 253 118 q 265 76 257 86 q 289 60 274 65 q 331 56 304 56 q 451 75 389 56 l 467 13 z "},"u":{"ha":724,"x_min":111,"x_max":606,"o":"m 192 676 l 192 129 q 210 76 192 92 q 265 61 229 61 q 317 67 286 61 q 384 83 349 72 q 456 108 419 93 q 525 139 493 122 l 525 676 l 606 676 l 606 0 l 535 0 l 529 61 q 467 35 501 49 q 395 10 432 21 q 322 -7 358 0 q 254 -14 285 -14 q 143 27 175 -14 q 111 139 111 68 l 111 676 l 192 676 z "},"v":{"ha":624,"x_min":21,"x_max":603,"o":"m 374 0 l 250 0 l 21 676 l 103 676 l 311 57 l 521 676 l 603 676 l 374 0 z "},"w":{"ha":975,"x_min":35,"x_max":940,"o":"m 189 0 l 35 676 l 111 676 l 250 54 l 433 676 l 542 676 l 724 54 l 864 676 l 940 676 l 786 0 l 665 0 l 488 618 l 310 0 l 189 0 z "},"x":{"ha":613,"x_min":35,"x_max":578,"o":"m 35 0 l 263 340 l 39 676 l 125 676 l 306 406 l 488 676 l 574 676 l 349 340 l 578 0 l 490 0 l 306 276 l 122 0 l 35 0 z "},"y":{"ha":617,"x_min":21,"x_max":603,"o":"m 374 0 l 274 -274 l 194 -274 l 296 0 l 250 0 l 21 676 l 103 676 l 311 57 l 521 676 l 603 676 l 374 0 z "},"z":{"ha":607,"x_min":76,"x_max":538,"o":"m 88 676 l 526 676 l 525 611 l 161 65 l 538 65 l 538 0 l 76 0 l 76 65 l 442 611 l 86 611 l 88 676 z "},"{":{"ha":429,"x_min":83,"x_max":401,"o":"m 106 486 q 153 499 139 486 q 167 543 167 513 l 167 960 q 201 1062 167 1026 q 306 1097 235 1097 l 401 1097 l 401 1025 l 300 1025 q 247 969 247 1025 l 247 547 q 230 481 247 511 q 160 450 213 451 q 230 418 213 447 q 247 353 247 389 l 247 -69 q 300 -125 247 -125 l 401 -125 l 401 -197 l 306 -197 q 201 -162 235 -197 q 167 -60 167 -126 l 167 357 q 153 401 167 388 q 106 414 139 414 l 83 414 l 83 486 l 106 486 z "},"|":{"ha":346,"x_min":146,"x_max":200,"o":"m 200 -292 l 146 -292 l 146 1097 l 200 1097 l 200 -292 z "},"}":{"ha":429,"x_min":28,"x_max":346,"o":"m 346 486 l 346 414 l 324 414 q 276 401 290 414 q 263 357 263 388 l 263 -60 q 228 -162 263 -126 q 124 -197 194 -197 l 28 -197 l 28 -125 l 129 -125 q 182 -69 182 -125 l 182 353 q 199 418 182 389 q 269 450 217 447 q 199 481 217 451 q 182 547 182 511 l 182 969 q 129 1025 182 1025 l 28 1025 l 28 1097 l 124 1097 q 228 1062 194 1097 q 263 960 263 1026 l 263 543 q 276 499 263 513 q 324 486 290 486 l 346 486 z "},"~":{"ha":688,"x_min":69,"x_max":632,"o":"m 632 450 q 608 392 622 421 q 575 342 594 364 q 528 306 556 319 q 464 292 501 292 q 396 308 425 292 q 341 346 367 325 q 291 383 315 367 q 238 400 267 400 q 174 370 196 400 q 128 285 151 340 l 69 311 q 137 425 97 382 q 240 468 176 468 q 308 451 279 468 q 363 413 338 433 q 413 374 389 392 q 467 357 438 357 q 507 367 490 357 q 535 393 524 376 q 557 431 547 410 q 575 475 567 453 l 632 450 z "}," ":{"ha":306,"x_min":0,"x_max":0,"o":""},"¡":{"ha":350,"x_min":132,"x_max":218,"o":"m 199 439 l 215 206 l 215 -274 l 135 -274 l 135 206 l 151 439 l 199 439 m 132 676 l 218 676 l 218 557 l 132 557 l 132 676 z "},"¢":{"ha":583,"x_min":83,"x_max":493,"o":"m 296 113 q 196 135 236 117 q 131 183 156 153 q 94 253 106 213 q 83 344 83 294 l 83 582 q 94 673 83 632 q 131 744 106 714 q 196 792 156 774 q 296 814 236 810 l 296 940 l 374 940 l 374 814 q 434 807 403 811 q 493 796 465 803 l 483 729 q 339 743 401 743 q 204 709 244 743 q 164 585 164 675 l 164 342 q 204 217 164 251 q 339 183 244 183 q 483 197 401 183 l 493 131 q 434 119 465 124 q 374 111 403 114 l 374 -14 l 296 -14 l 296 113 z "},"£":{"ha":757,"x_min":111,"x_max":653,"o":"m 111 496 l 240 496 q 190 600 208 544 q 172 708 172 656 q 228 862 172 813 q 425 911 283 911 q 476 909 449 911 q 530 903 503 907 q 582 894 557 899 q 628 883 607 889 l 615 814 q 524 832 576 825 q 428 839 471 839 q 341 833 375 839 q 288 812 307 826 q 260 771 268 797 q 253 706 253 744 q 274 600 253 651 q 328 496 294 549 l 604 496 l 599 426 l 357 426 q 372 346 372 396 q 342 213 372 279 q 240 72 311 147 l 653 72 l 653 0 l 133 0 l 133 72 q 196 133 167 100 q 247 201 225 165 q 280 272 268 236 q 292 344 292 308 q 274 426 292 388 l 111 426 l 111 496 z "},"¤":{"ha":750,"x_min":104,"x_max":646,"o":"m 558 672 q 580 623 574 650 q 586 565 586 596 l 586 365 q 558 258 586 300 l 646 171 l 593 118 l 501 210 q 375 185 453 185 q 247 208 297 185 l 157 118 l 104 171 l 190 257 q 169 306 175 279 q 163 365 163 333 l 163 565 q 190 672 163 631 l 104 760 l 157 813 l 247 721 q 375 746 294 746 q 447 739 415 746 q 501 721 478 732 l 593 813 l 646 760 l 558 672 m 238 383 q 242 327 238 351 q 263 287 247 303 q 304 263 278 271 q 375 254 331 254 q 445 263 418 254 q 487 287 472 271 q 506 327 501 303 q 511 383 511 351 l 511 547 q 506 603 511 579 q 487 644 501 628 q 445 668 472 660 q 375 676 418 676 q 304 668 331 676 q 263 644 278 660 q 242 603 247 628 q 238 547 238 579 l 238 383 z "},"¥":{"ha":754,"x_min":35,"x_max":719,"o":"m 93 494 l 233 494 l 35 897 l 119 897 l 376 367 l 635 897 l 719 897 l 521 494 l 661 494 l 661 429 l 489 429 l 418 285 l 418 256 l 661 256 l 661 193 l 418 193 l 418 0 l 336 0 l 336 193 l 93 193 l 93 256 l 336 256 l 336 285 l 265 429 l 93 429 l 93 494 z "},"¦":{"ha":346,"x_min":146,"x_max":200,"o":"m 200 518 l 146 518 l 146 1097 l 200 1097 l 200 518 m 146 -292 l 146 288 l 200 288 l 200 -292 l 146 -292 z "},"§":{"ha":778,"x_min":97,"x_max":688,"o":"m 283 0 q 212 219 246 111 q 152 426 178 326 q 112 617 126 526 q 97 786 97 707 q 141 904 97 869 q 272 939 185 939 q 374 930 315 939 q 476 906 432 921 l 464 843 q 413 853 439 849 q 360 862 386 858 q 313 867 335 865 q 278 869 292 869 q 226 865 246 869 q 195 851 206 861 q 181 824 185 840 q 178 781 178 807 q 193 615 178 704 q 233 429 208 526 q 290 229 258 332 q 356 22 322 126 l 283 0 m 501 681 q 573 462 539 569 q 633 254 607 354 q 673 64 658 154 q 688 -106 688 -26 q 644 -224 688 -189 q 513 -258 600 -258 q 411 -249 469 -258 q 308 -225 353 -240 l 321 -162 q 372 -173 346 -168 q 424 -181 399 -178 q 472 -187 450 -185 q 507 -189 493 -189 q 559 -185 539 -189 q 590 -170 579 -181 q 603 -143 600 -160 q 607 -100 607 -126 q 592 65 607 -24 q 551 251 576 154 q 494 451 526 349 q 429 658 463 554 l 501 681 z "},"¨":{"ha":544,"x_min":111,"x_max":433,"o":"m 111 867 l 197 867 l 197 775 l 111 775 l 111 867 m 347 867 l 433 867 l 433 775 l 347 775 l 347 867 z "},"©":{"ha":1147,"x_min":97,"x_max":1050,"o":"m 97 463 q 131 649 97 561 q 228 801 165 736 q 378 903 290 865 q 574 940 465 940 q 769 903 682 940 q 919 801 857 865 q 1016 649 982 736 q 1050 463 1050 561 q 1016 277 1050 364 q 919 126 982 190 q 769 24 857 61 q 574 -14 682 -14 q 378 24 465 -14 q 228 126 290 61 q 131 277 165 190 q 97 463 97 364 m 164 463 q 192 301 164 376 q 274 169 221 225 q 402 80 326 113 q 574 47 478 47 q 745 80 669 47 q 874 169 821 113 q 955 301 926 225 q 983 463 983 376 q 955 625 983 549 q 874 758 926 701 q 745 847 821 814 q 574 879 669 879 q 402 847 478 879 q 274 758 326 814 q 192 625 221 701 q 164 463 164 549 m 410 563 q 447 670 410 636 q 576 704 485 704 q 650 699 614 704 q 717 688 686 694 l 710 633 q 642 644 681 640 q 581 647 604 647 q 493 630 515 647 q 471 561 471 613 l 471 364 q 476 321 471 338 q 493 294 481 304 q 526 281 506 285 q 581 278 547 278 q 642 281 604 278 q 710 292 681 285 l 717 238 q 650 226 686 231 q 576 221 614 221 q 447 255 485 221 q 410 363 410 289 l 410 563 z "},"ª":{"ha":525,"x_min":111,"x_max":407,"o":"m 407 547 l 356 547 l 351 575 q 299 551 331 563 q 236 539 268 539 q 142 567 174 539 q 111 658 111 596 q 142 752 111 729 q 235 775 172 775 l 347 775 l 347 853 q 328 900 347 886 q 263 914 308 914 q 199 910 229 914 q 138 899 168 906 l 128 950 q 188 962 156 957 q 260 967 221 967 q 374 940 340 967 q 407 856 407 913 l 407 547 m 347 721 l 238 721 q 185 710 199 721 q 171 658 171 699 q 188 605 171 618 q 239 592 206 592 q 296 603 264 592 q 347 629 328 614 l 347 721 z "},"«":{"ha":664,"x_min":76,"x_max":574,"o":"m 254 607 l 315 565 l 165 339 l 315 113 l 254 71 l 76 339 l 254 607 m 513 607 l 574 565 l 424 339 l 574 113 l 513 71 l 335 339 l 513 607 z "},"¬":{"ha":786,"x_min":90,"x_max":654,"o":"m 90 374 l 654 374 l 654 54 l 579 54 l 579 301 l 90 301 l 90 374 z "},"®":{"ha":696,"x_min":97,"x_max":599,"o":"m 97 715 q 115 813 97 767 q 165 893 132 858 q 244 947 197 928 q 349 967 290 967 q 453 947 407 967 q 532 893 500 928 q 581 813 564 858 q 599 715 599 767 q 581 618 599 664 q 532 538 564 572 q 453 484 500 504 q 349 464 407 464 q 244 484 290 464 q 165 538 197 504 q 115 618 132 572 q 97 715 97 664 m 146 715 q 159 636 146 674 q 198 571 172 599 q 261 527 224 543 q 349 511 299 511 q 436 527 399 511 q 499 571 474 543 q 537 636 524 599 q 550 715 550 674 q 537 794 550 757 q 499 860 524 832 q 436 905 474 889 q 349 921 399 921 q 261 905 299 921 q 198 860 224 889 q 159 794 172 832 q 146 715 146 757 m 363 682 l 307 682 l 307 606 l 274 606 l 274 836 l 363 836 q 416 820 400 836 q 432 776 432 804 l 432 742 q 425 710 432 722 q 399 689 418 697 l 461 606 l 421 606 l 363 682 m 399 776 q 390 800 399 794 q 363 806 382 806 l 307 806 l 307 713 l 363 713 q 391 720 383 713 q 399 742 399 728 l 399 776 z "},"¯":{"ha":522,"x_min":97,"x_max":425,"o":"m 97 853 l 425 853 l 425 786 l 97 786 l 97 853 z "},"°":{"ha":497,"x_min":104,"x_max":393,"o":"m 393 765 q 356 663 393 704 q 249 621 318 621 q 141 663 178 621 q 104 765 104 704 q 142 869 104 826 q 249 911 179 911 q 356 869 318 911 q 393 765 393 826 m 343 765 q 319 836 343 806 q 249 867 296 867 q 178 836 201 867 q 154 765 154 806 q 178 696 154 726 q 249 665 201 665 q 319 696 296 665 q 343 765 343 726 z "},"±":{"ha":786,"x_min":111,"x_max":675,"o":"m 111 485 l 354 485 l 354 732 l 432 732 l 432 485 l 675 485 l 675 413 l 432 413 l 432 165 l 354 165 l 354 413 l 111 413 l 111 485 m 675 0 l 111 0 l 111 72 l 675 72 l 675 0 z "},"²":{"ha":536,"x_min":104,"x_max":418,"o":"m 104 619 q 132 654 119 639 q 159 688 144 669 q 194 733 174 707 q 246 799 214 758 q 301 874 282 844 q 329 922 321 903 q 339 953 338 940 q 340 982 340 967 l 340 1000 q 338 1034 340 1019 q 324 1058 335 1049 q 295 1071 314 1067 q 243 1075 276 1075 q 178 1069 211 1075 q 117 1057 144 1064 l 106 1115 q 174 1131 133 1125 q 246 1138 214 1138 q 372 1104 335 1138 q 410 1008 410 1071 l 410 972 q 407 939 410 956 q 394 901 404 922 q 365 850 383 879 q 315 781 346 821 q 267 718 286 743 q 235 676 249 693 q 214 649 222 660 q 197 628 206 638 l 418 628 l 418 564 l 104 564 l 104 619 z "},"³":{"ha":519,"x_min":97,"x_max":408,"o":"m 107 631 q 176 617 142 621 q 233 614 211 614 q 320 632 299 614 q 342 693 342 650 l 342 743 q 254 817 342 817 l 139 817 l 139 879 l 256 879 q 315 897 300 879 q 329 942 329 915 l 329 1010 q 307 1063 329 1049 q 236 1076 285 1076 q 179 1074 211 1076 q 115 1064 147 1071 l 106 1121 q 170 1133 133 1129 q 233 1138 207 1138 q 357 1105 318 1138 q 396 1013 396 1072 l 396 943 q 383 888 396 910 q 339 849 371 867 q 408 744 408 822 l 408 692 q 368 585 408 618 q 228 553 328 553 q 166 558 201 553 q 97 572 131 563 l 107 631 z "},"´":{"ha":431,"x_min":104,"x_max":326,"o":"m 104 815 q 193 872 146 842 q 286 935 240 903 l 326 874 q 233 812 282 842 q 142 758 185 782 l 104 815 z "},"µ":{"ha":724,"x_min":111,"x_max":606,"o":"m 111 676 l 192 676 l 192 129 q 210 76 192 92 q 265 61 229 61 q 317 67 286 61 q 384 83 349 72 q 456 108 419 93 q 525 139 493 122 l 525 676 l 606 676 l 606 0 l 535 0 l 529 61 q 467 35 501 49 q 395 10 432 21 q 322 -7 358 0 q 254 -14 285 -14 q 219 -11 235 -14 q 192 -4 204 -8 l 192 -274 l 111 -274 l 111 676 z "},"¶":{"ha":697,"x_min":104,"x_max":558,"o":"m 558 925 l 558 -81 q 556 -114 558 -100 q 538 -148 553 -128 q 492 -200 524 -168 q 404 -287 461 -232 l 357 -235 q 425 -166 400 -192 q 463 -125 450 -140 q 478 -101 475 -110 q 481 -83 481 -93 l 481 925 l 558 925 m 104 644 q 126 756 104 704 q 185 844 147 807 q 274 903 222 882 q 385 925 325 925 l 385 365 q 274 387 325 365 q 185 446 222 408 q 126 534 147 483 q 104 644 104 585 z "},"·":{"ha":336,"x_min":125,"x_max":211,"o":"m 125 504 l 211 504 l 211 385 l 125 385 l 125 504 z "},"¸":{"ha":435,"x_min":97,"x_max":338,"o":"m 338 -181 q 304 -257 338 -226 q 206 -287 271 -287 q 149 -282 176 -287 q 97 -268 121 -276 l 110 -219 q 152 -228 129 -225 q 194 -232 175 -232 q 256 -219 238 -232 q 274 -183 274 -207 q 208 -140 274 -140 q 166 -143 189 -140 q 128 -149 143 -146 l 160 0 l 218 0 l 197 -97 q 217 -94 207 -94 q 236 -93 228 -93 q 308 -115 278 -93 q 338 -181 338 -136 z "},"¹":{"ha":457,"x_min":83,"x_max":290,"o":"m 83 1039 l 235 1126 l 290 1126 l 290 564 l 221 564 l 221 1046 l 111 988 l 83 1039 z "},"º":{"ha":544,"x_min":111,"x_max":433,"o":"m 433 690 q 397 582 433 625 q 272 539 360 539 q 148 582 185 539 q 111 690 111 625 l 111 817 q 148 924 111 881 q 272 967 185 967 q 346 955 315 967 q 395 923 376 943 q 423 876 414 903 q 433 817 432 849 l 433 690 m 375 818 q 351 890 375 865 q 272 914 326 914 q 171 818 171 914 l 171 689 q 272 592 171 592 q 351 616 326 592 q 375 689 375 640 l 375 818 z "},"»":{"ha":664,"x_min":90,"x_max":588,"o":"m 588 346 l 410 78 l 349 119 l 499 346 l 349 572 l 410 614 l 588 346 m 329 346 l 151 78 l 90 119 l 240 346 l 90 572 l 151 614 l 329 346 z "},"¼":{"ha":1138,"x_min":83,"x_max":1019,"o":"m 368 -36 l 310 -14 l 674 933 l 731 911 l 368 -36 m 83 810 l 235 897 l 290 897 l 290 335 l 221 335 l 221 817 l 111 758 l 83 810 m 938 126 l 938 0 l 871 0 l 871 126 l 615 126 l 615 193 l 851 563 l 938 563 l 938 188 l 1019 188 l 1019 126 l 938 126 m 871 188 l 871 489 l 686 188 l 871 188 z "},"½":{"ha":1150,"x_min":83,"x_max":1032,"o":"m 368 -36 l 310 -14 l 674 933 l 731 911 l 368 -36 m 83 810 l 235 897 l 290 897 l 290 335 l 221 335 l 221 817 l 111 758 l 83 810 m 718 56 q 746 90 733 75 q 773 124 758 106 q 808 169 788 143 q 860 235 828 194 q 915 310 896 281 q 943 358 935 339 q 953 390 951 376 q 954 418 954 403 l 954 436 q 951 470 954 456 q 938 494 949 485 q 909 507 928 503 q 857 511 890 511 q 792 506 825 511 q 731 493 758 500 l 719 551 q 788 567 747 561 q 860 574 828 574 q 986 540 949 574 q 1024 444 1024 507 l 1024 408 q 1021 375 1024 392 q 1008 337 1018 358 q 978 286 997 315 q 929 217 960 257 q 881 154 900 179 q 849 113 863 129 q 828 85 836 96 q 811 64 819 74 l 1032 64 l 1032 0 l 718 0 l 718 56 z "},"¾":{"ha":1179,"x_min":97,"x_max":1061,"o":"m 410 -36 l 351 -14 l 715 933 l 772 911 l 410 -36 m 979 126 l 979 0 l 913 0 l 913 126 l 657 126 l 657 193 l 893 563 l 979 563 l 979 188 l 1061 188 l 1061 126 l 979 126 m 913 188 l 913 489 l 728 188 l 913 188 m 107 404 q 176 391 142 394 q 233 388 211 388 q 320 406 299 388 q 342 467 342 424 l 342 517 q 254 590 342 590 l 139 590 l 139 653 l 256 653 q 315 671 300 653 q 329 715 329 689 l 329 783 q 307 836 329 822 q 236 850 285 850 q 179 847 211 850 q 115 838 147 844 l 106 894 q 170 907 133 903 q 233 911 207 911 q 357 878 318 911 q 396 786 396 846 l 396 717 q 383 662 396 683 q 339 622 371 640 q 408 518 408 596 l 408 465 q 368 359 408 392 q 228 326 328 326 q 166 331 201 326 q 97 346 131 336 l 107 404 z "},"¿":{"ha":636,"x_min":97,"x_max":553,"o":"m 422 297 q 389 271 406 283 q 354 244 372 258 q 316 214 336 231 q 271 176 296 197 q 219 129 238 149 q 191 88 200 110 q 180 38 182 67 q 178 -40 178 8 q 183 -126 178 -93 q 206 -180 188 -160 q 258 -208 224 -200 q 353 -215 293 -215 q 441 -210 392 -215 q 539 -194 490 -206 l 553 -264 q 451 -281 504 -275 q 350 -287 399 -287 q 219 -274 269 -287 q 142 -230 169 -260 q 106 -154 115 -200 q 97 -43 97 -108 q 101 56 97 17 q 118 124 104 94 q 158 181 132 154 q 231 243 185 207 q 307 304 275 278 q 375 358 339 331 l 422 297 m 422 543 l 336 543 l 336 676 l 422 676 l 422 543 z "},"À":{"ha":863,"x_min":49,"x_max":814,"o":"m 646 243 l 215 243 l 129 0 l 49 0 l 371 925 l 492 925 l 814 0 l 733 0 l 646 243 m 240 314 l 621 314 l 431 878 l 240 314 m 432 994 q 344 1046 388 1018 q 260 1101 300 1074 l 300 1163 q 386 1103 344 1131 q 469 1051 428 1076 l 432 994 z "},"Á":{"ha":863,"x_min":49,"x_max":814,"o":"m 646 243 l 215 243 l 129 0 l 49 0 l 371 925 l 492 925 l 814 0 l 733 0 l 646 243 m 240 314 l 621 314 l 431 878 l 240 314 m 392 1051 q 475 1103 433 1076 q 561 1163 517 1131 l 601 1101 q 517 1046 561 1074 q 429 994 474 1018 l 392 1051 z "},"Â":{"ha":863,"x_min":49,"x_max":814,"o":"m 646 243 l 215 243 l 129 0 l 49 0 l 371 925 l 492 925 l 814 0 l 733 0 l 646 243 m 240 314 l 621 314 l 431 878 l 240 314 m 258 1049 q 343 1103 303 1076 q 432 1163 383 1129 q 513 1105 475 1131 q 604 1049 551 1079 l 575 994 q 497 1038 526 1021 q 432 1078 467 1056 q 365 1038 397 1057 q 289 994 333 1018 l 258 1049 z "},"Ã":{"ha":863,"x_min":49,"x_max":814,"o":"m 646 243 l 215 243 l 129 0 l 49 0 l 371 925 l 492 925 l 814 0 l 733 0 l 646 243 m 240 314 l 621 314 l 431 878 l 240 314 m 436 1029 q 395 1047 413 1040 q 358 1054 378 1054 q 318 1044 335 1054 q 283 1015 301 1033 l 247 1056 q 297 1103 267 1083 q 361 1124 328 1124 q 397 1118 381 1124 q 436 1101 413 1113 q 481 1083 464 1089 q 515 1076 499 1076 q 582 1111 551 1076 l 622 1075 q 576 1026 604 1046 q 515 1007 549 1007 q 481 1012 497 1007 q 436 1029 464 1017 z "},"Ä":{"ha":863,"x_min":49,"x_max":814,"o":"m 646 243 l 215 243 l 129 0 l 49 0 l 371 925 l 492 925 l 814 0 l 733 0 l 646 243 m 240 314 l 621 314 l 431 878 l 240 314 m 265 1103 l 357 1103 l 357 1019 l 265 1019 l 265 1103 m 504 1103 l 596 1103 l 596 1019 l 504 1019 l 504 1103 z "},"Å":{"ha":863,"x_min":49,"x_max":814,"o":"m 646 243 l 215 243 l 129 0 l 49 0 l 371 925 l 492 925 l 814 0 l 733 0 l 646 243 m 240 314 l 621 314 l 431 878 l 240 314 m 518 1049 q 496 988 518 1013 q 431 963 474 963 q 365 988 388 963 q 343 1049 343 1013 q 365 1110 343 1086 q 431 1133 388 1133 q 496 1110 474 1133 q 518 1049 518 1086 m 471 1049 q 431 1093 471 1093 q 389 1049 389 1093 q 399 1017 389 1029 q 431 1004 410 1004 q 461 1017 451 1004 q 471 1049 471 1029 z "},"Æ":{"ha":1165,"x_min":49,"x_max":1068,"o":"m 646 243 l 215 243 l 129 0 l 49 0 l 371 925 l 1067 925 l 1067 851 l 517 851 l 632 522 l 1036 522 l 1036 449 l 657 449 l 788 74 l 1068 74 l 1068 0 l 733 0 l 646 243 m 240 314 l 621 314 l 431 878 l 240 314 z "},"Ç":{"ha":710,"x_min":104,"x_max":633,"o":"m 546 -181 q 513 -257 546 -226 q 414 -287 479 -287 q 357 -282 385 -287 q 306 -268 329 -276 l 318 -219 q 360 -228 338 -225 q 403 -232 383 -232 q 464 -219 446 -232 q 482 -183 482 -207 q 417 -140 482 -140 q 374 -143 397 -140 q 336 -149 351 -146 l 365 -12 q 164 66 224 -3 q 104 254 104 135 l 104 671 q 121 785 104 735 q 174 869 138 835 q 269 922 210 904 q 411 939 328 939 q 521 934 461 939 q 633 918 581 929 l 624 847 q 519 860 576 856 q 418 865 463 865 q 311 855 356 865 q 239 822 267 844 q 199 761 211 799 q 186 669 186 724 l 186 256 q 199 164 186 201 q 239 103 211 126 q 311 70 267 81 q 418 60 356 60 q 519 65 463 60 q 624 78 576 69 l 633 7 q 528 -8 585 -3 q 424 -14 472 -12 l 406 -97 q 426 -94 415 -94 q 444 -93 436 -93 q 516 -115 486 -93 q 546 -181 546 -136 z "},"È":{"ha":744,"x_min":125,"x_max":647,"o":"m 125 925 l 646 925 l 646 851 l 207 851 l 207 508 l 615 508 l 615 435 l 207 435 l 207 74 l 647 74 l 647 0 l 125 0 l 125 925 m 410 994 q 322 1046 365 1018 q 238 1101 278 1074 l 278 1163 q 364 1103 322 1131 q 447 1051 406 1076 l 410 994 z "},"É":{"ha":744,"x_min":125,"x_max":647,"o":"m 125 925 l 646 925 l 646 851 l 207 851 l 207 508 l 615 508 l 615 435 l 207 435 l 207 74 l 647 74 l 647 0 l 125 0 l 125 925 m 319 1051 q 403 1103 361 1076 q 489 1163 444 1131 l 529 1101 q 445 1046 489 1074 q 357 994 401 1018 l 319 1051 z "},"Ê":{"ha":744,"x_min":125,"x_max":647,"o":"m 125 925 l 646 925 l 646 851 l 207 851 l 207 508 l 615 508 l 615 435 l 207 435 l 207 74 l 647 74 l 647 0 l 125 0 l 125 925 m 221 1049 q 306 1103 265 1076 q 394 1163 346 1129 q 476 1105 438 1131 q 567 1049 514 1079 l 538 994 q 459 1038 489 1021 q 394 1078 429 1056 q 328 1038 360 1057 q 251 994 296 1018 l 221 1049 z "},"Ë":{"ha":744,"x_min":125,"x_max":647,"o":"m 125 925 l 646 925 l 646 851 l 207 851 l 207 508 l 615 508 l 615 435 l 207 435 l 207 74 l 647 74 l 647 0 l 125 0 l 125 925 m 228 1103 l 319 1103 l 319 1019 l 228 1019 l 228 1103 m 467 1103 l 558 1103 l 558 1019 l 467 1019 l 467 1103 z "},"Ì":{"ha":346,"x_min":8,"x_max":218,"o":"m 214 0 l 132 0 l 132 925 l 214 925 l 214 0 m 181 994 q 92 1046 136 1018 q 8 1101 49 1074 l 49 1163 q 135 1103 93 1131 q 218 1051 176 1076 l 181 994 z "},"Í":{"ha":346,"x_min":132,"x_max":343,"o":"m 214 0 l 132 0 l 132 925 l 214 925 l 214 0 m 133 1051 q 217 1103 175 1076 q 303 1163 258 1131 l 343 1101 q 259 1046 303 1074 q 171 994 215 1018 l 133 1051 z "},"Î":{"ha":346,"x_min":0,"x_max":346,"o":"m 214 0 l 132 0 l 132 925 l 214 925 l 214 0 m 0 1049 q 85 1103 44 1076 q 174 1163 125 1129 q 255 1105 217 1131 q 346 1049 293 1079 l 317 994 q 238 1038 268 1021 q 174 1078 208 1056 q 107 1038 139 1057 q 31 994 75 1018 l 0 1049 z "},"Ï":{"ha":346,"x_min":7,"x_max":338,"o":"m 214 0 l 132 0 l 132 925 l 214 925 l 214 0 m 7 1103 l 99 1103 l 99 1019 l 7 1019 l 7 1103 m 246 1103 l 338 1103 l 338 1019 l 246 1019 l 246 1103 z "},"Ð":{"ha":871,"x_min":69,"x_max":771,"o":"m 69 506 l 176 506 l 176 925 l 482 925 q 622 904 567 925 q 711 847 678 883 q 758 760 744 811 q 771 651 771 710 l 771 274 q 758 165 771 215 q 711 78 744 114 q 622 21 678 42 q 482 0 567 0 l 176 0 l 176 436 l 69 436 l 69 506 m 258 506 l 454 506 l 454 436 l 258 436 l 258 74 l 483 74 q 644 122 600 74 q 689 269 689 171 l 689 656 q 644 803 689 754 q 483 851 600 851 l 258 851 l 258 506 z "},"Ñ":{"ha":886,"x_min":125,"x_max":761,"o":"m 203 844 l 203 0 l 125 0 l 125 925 l 244 925 l 683 79 l 683 925 l 761 925 l 761 0 l 642 0 l 203 844 m 463 1029 q 422 1047 439 1040 q 385 1054 404 1054 q 344 1044 361 1054 q 310 1015 328 1033 l 274 1056 q 324 1103 293 1083 q 388 1124 354 1124 q 423 1118 407 1124 q 463 1101 439 1113 q 508 1083 490 1089 q 542 1076 525 1076 q 608 1111 578 1076 l 649 1075 q 603 1026 631 1046 q 542 1007 575 1007 q 507 1012 524 1007 q 463 1029 490 1017 z "},"Ò":{"ha":856,"x_min":104,"x_max":751,"o":"m 751 261 q 734 151 751 201 q 678 65 717 101 q 578 7 640 28 q 428 -14 517 -14 q 277 7 339 -14 q 177 65 215 28 q 122 151 139 101 q 104 261 104 201 l 104 664 q 122 774 104 724 q 177 860 139 824 q 277 918 215 897 q 428 939 339 939 q 578 918 517 939 q 678 860 640 897 q 734 774 717 824 q 751 664 751 724 l 751 261 m 428 60 q 615 113 561 60 q 669 264 669 165 l 669 661 q 615 813 669 760 q 428 865 561 865 q 240 813 294 865 q 186 661 186 760 l 186 264 q 240 113 186 165 q 428 60 294 60 m 450 994 q 362 1046 406 1018 q 278 1101 318 1074 l 318 1163 q 404 1103 363 1131 q 488 1051 446 1076 l 450 994 z "},"Ó":{"ha":856,"x_min":104,"x_max":751,"o":"m 751 261 q 734 151 751 201 q 678 65 717 101 q 578 7 640 28 q 428 -14 517 -14 q 277 7 339 -14 q 177 65 215 28 q 122 151 139 101 q 104 261 104 201 l 104 664 q 122 774 104 724 q 177 860 139 824 q 277 918 215 897 q 428 939 339 939 q 578 918 517 939 q 678 860 640 897 q 734 774 717 824 q 751 664 751 724 l 751 261 m 428 60 q 615 113 561 60 q 669 264 669 165 l 669 661 q 615 813 669 760 q 428 865 561 865 q 240 813 294 865 q 186 661 186 760 l 186 264 q 240 113 186 165 q 428 60 294 60 m 375 1051 q 458 1103 417 1076 q 544 1163 500 1131 l 585 1101 q 501 1046 544 1074 q 413 994 457 1018 l 375 1051 z "},"Ô":{"ha":856,"x_min":104,"x_max":751,"o":"m 751 261 q 734 151 751 201 q 678 65 717 101 q 578 7 640 28 q 428 -14 517 -14 q 277 7 339 -14 q 177 65 215 28 q 122 151 139 101 q 104 261 104 201 l 104 664 q 122 774 104 724 q 177 860 139 824 q 277 918 215 897 q 428 939 339 939 q 578 918 517 939 q 678 860 640 897 q 734 774 717 824 q 751 664 751 724 l 751 261 m 428 60 q 615 113 561 60 q 669 264 669 165 l 669 661 q 615 813 669 760 q 428 865 561 865 q 240 813 294 865 q 186 661 186 760 l 186 264 q 240 113 186 165 q 428 60 294 60 m 256 1049 q 340 1103 300 1076 q 429 1163 381 1129 q 510 1105 472 1131 q 601 1049 549 1079 l 572 994 q 494 1038 524 1021 q 429 1078 464 1056 q 363 1038 394 1057 q 286 994 331 1018 l 256 1049 z "},"Õ":{"ha":856,"x_min":104,"x_max":751,"o":"m 751 261 q 734 151 751 201 q 678 65 717 101 q 578 7 640 28 q 428 -14 517 -14 q 277 7 339 -14 q 177 65 215 28 q 122 151 139 101 q 104 261 104 201 l 104 664 q 122 774 104 724 q 177 860 139 824 q 277 918 215 897 q 428 939 339 939 q 578 918 517 939 q 678 860 640 897 q 734 774 717 824 q 751 664 751 724 l 751 261 m 428 60 q 615 113 561 60 q 669 264 669 165 l 669 661 q 615 813 669 760 q 428 865 561 865 q 240 813 294 865 q 186 661 186 760 l 186 264 q 240 113 186 165 q 428 60 294 60 m 438 1029 q 397 1047 414 1040 q 360 1054 379 1054 q 319 1044 336 1054 q 285 1015 303 1033 l 249 1056 q 299 1103 268 1083 q 363 1124 329 1124 q 398 1118 382 1124 q 438 1101 414 1113 q 483 1083 465 1089 q 517 1076 500 1076 q 583 1111 553 1076 l 624 1075 q 578 1026 606 1046 q 517 1007 550 1007 q 482 1012 499 1007 q 438 1029 465 1017 z "},"Ö":{"ha":856,"x_min":104,"x_max":751,"o":"m 751 261 q 734 151 751 201 q 678 65 717 101 q 578 7 640 28 q 428 -14 517 -14 q 277 7 339 -14 q 177 65 215 28 q 122 151 139 101 q 104 261 104 201 l 104 664 q 122 774 104 724 q 177 860 139 824 q 277 918 215 897 q 428 939 339 939 q 578 918 517 939 q 678 860 640 897 q 734 774 717 824 q 751 664 751 724 l 751 261 m 428 60 q 615 113 561 60 q 669 264 669 165 l 669 661 q 615 813 669 760 q 428 865 561 865 q 240 813 294 865 q 186 661 186 760 l 186 264 q 240 113 186 165 q 428 60 294 60 m 263 1103 l 354 1103 l 354 1019 l 263 1019 l 263 1103 m 501 1103 l 593 1103 l 593 1019 l 501 1019 l 501 1103 z "},"×":{"ha":761,"x_min":111,"x_max":650,"o":"m 650 558 l 432 339 l 650 119 l 600 69 l 381 288 l 161 69 l 111 119 l 329 339 l 111 558 l 161 608 l 381 390 l 600 608 l 650 558 z "},"Ø":{"ha":856,"x_min":104,"x_max":751,"o":"m 682 857 q 735 772 718 821 q 751 664 751 722 l 751 261 q 734 151 751 201 q 678 65 717 101 q 578 7 640 28 q 428 -14 517 -14 q 221 31 297 -14 l 157 -83 l 104 -56 l 172 68 q 120 153 136 104 q 104 261 104 203 l 104 664 q 122 774 104 724 q 177 860 139 824 q 277 918 215 897 q 428 939 339 939 q 546 927 494 939 q 635 893 597 915 l 699 1008 l 751 979 l 682 857 m 428 60 q 615 113 561 60 q 669 264 669 165 l 669 661 q 640 782 669 733 l 258 99 q 428 60 314 60 m 186 264 q 214 143 186 189 l 597 826 q 526 856 568 846 q 428 865 485 865 q 240 813 294 865 q 186 661 186 760 l 186 264 z "},"Ù":{"ha":875,"x_min":118,"x_max":757,"o":"m 757 925 l 757 263 q 739 153 757 204 q 682 65 721 103 q 583 7 643 28 q 438 -14 522 -14 q 292 7 353 -14 q 193 65 232 28 q 136 153 154 103 q 118 263 118 204 l 118 925 l 200 925 l 200 263 q 260 113 200 165 q 438 60 319 60 q 615 113 556 60 q 675 263 675 165 l 675 925 l 757 925 m 458 994 q 370 1046 414 1018 q 286 1101 326 1074 l 326 1163 q 413 1103 371 1131 q 496 1051 454 1076 l 458 994 z "},"Ú":{"ha":875,"x_min":118,"x_max":757,"o":"m 757 925 l 757 263 q 739 153 757 204 q 682 65 721 103 q 583 7 643 28 q 438 -14 522 -14 q 292 7 353 -14 q 193 65 232 28 q 136 153 154 103 q 118 263 118 204 l 118 925 l 200 925 l 200 263 q 260 113 200 165 q 438 60 319 60 q 615 113 556 60 q 675 263 675 165 l 675 925 l 757 925 m 382 1051 q 465 1103 424 1076 q 551 1163 507 1131 l 592 1101 q 508 1046 551 1074 q 419 994 464 1018 l 382 1051 z "},"Û":{"ha":875,"x_min":118,"x_max":757,"o":"m 757 925 l 757 263 q 739 153 757 204 q 682 65 721 103 q 583 7 643 28 q 438 -14 522 -14 q 292 7 353 -14 q 193 65 232 28 q 136 153 154 103 q 118 263 118 204 l 118 925 l 200 925 l 200 263 q 260 113 200 165 q 438 60 319 60 q 615 113 556 60 q 675 263 675 165 l 675 925 l 757 925 m 265 1049 q 350 1103 310 1076 q 439 1163 390 1129 q 520 1105 482 1131 q 611 1049 558 1079 l 582 994 q 503 1038 533 1021 q 439 1078 474 1056 q 372 1038 404 1057 q 296 994 340 1018 l 265 1049 z "},"Ü":{"ha":875,"x_min":118,"x_max":757,"o":"m 757 925 l 757 263 q 739 153 757 204 q 682 65 721 103 q 583 7 643 28 q 438 -14 522 -14 q 292 7 353 -14 q 193 65 232 28 q 136 153 154 103 q 118 263 118 204 l 118 925 l 200 925 l 200 263 q 260 113 200 165 q 438 60 319 60 q 615 113 556 60 q 675 263 675 165 l 675 925 l 757 925 m 272 1103 l 364 1103 l 364 1019 l 272 1019 l 272 1103 m 511 1103 l 603 1103 l 603 1019 l 511 1019 l 511 1103 z "},"Ý":{"ha":754,"x_min":21,"x_max":733,"o":"m 376 367 l 649 925 l 733 925 l 418 285 l 418 0 l 336 0 l 336 285 l 21 925 l 106 925 l 376 367 m 326 1051 q 410 1103 368 1076 q 496 1163 451 1131 l 536 1101 q 452 1046 496 1074 q 364 994 408 1018 l 326 1051 z "},"Þ":{"ha":756,"x_min":125,"x_max":693,"o":"m 125 925 l 207 925 l 207 756 l 439 756 q 557 740 508 756 q 635 697 606 725 q 679 630 665 669 q 693 542 693 590 l 693 397 q 679 309 693 349 q 635 242 665 269 q 557 199 606 214 q 439 183 508 183 l 207 183 l 207 0 l 125 0 l 125 925 m 611 542 q 569 650 611 618 q 440 682 528 682 l 207 682 l 207 257 l 440 257 q 569 289 528 257 q 611 397 611 321 l 611 542 z "},"ß":{"ha":824,"x_min":125,"x_max":740,"o":"m 432 460 q 443 527 432 497 q 474 593 454 557 q 506 656 494 631 q 524 702 518 682 q 532 740 531 722 q 533 778 533 757 q 496 875 533 839 q 375 911 458 911 q 249 867 293 911 q 206 718 206 822 l 206 0 l 125 0 l 125 736 q 190 916 125 851 q 376 981 256 981 q 484 964 439 981 q 558 919 529 947 q 600 855 586 892 q 614 776 614 818 q 604 693 614 738 q 560 586 594 649 q 523 512 533 539 q 513 457 513 485 q 515 439 513 449 q 526 416 517 429 q 557 385 536 403 q 615 342 578 367 q 682 295 657 314 q 719 257 707 276 q 736 213 732 238 q 740 151 740 189 q 733 82 740 113 q 703 30 725 51 q 643 -3 682 8 q 540 -14 604 -14 q 468 -8 508 -14 q 393 13 428 -1 l 406 79 q 440 71 421 75 q 477 64 458 67 q 513 60 496 61 q 542 58 529 58 q 599 62 576 58 q 635 75 622 65 q 654 102 649 85 q 660 147 660 119 q 658 192 660 174 q 644 225 656 210 q 610 257 633 240 q 546 300 588 274 q 485 344 507 324 q 451 383 463 364 q 435 420 439 401 q 432 460 432 439 z "},"à":{"ha":674,"x_min":90,"x_max":572,"o":"m 572 0 l 504 0 l 497 56 q 390 6 449 25 q 265 -14 332 -14 q 182 1 215 -14 q 128 42 149 15 q 99 106 108 69 q 90 189 90 143 q 140 338 90 296 q 289 381 189 381 l 492 381 l 492 478 q 485 547 492 519 q 460 590 478 574 q 413 612 442 606 q 338 618 383 618 q 242 609 289 618 q 154 583 194 600 l 139 653 q 236 681 182 672 q 343 690 290 690 q 519 641 465 690 q 572 481 572 592 l 572 0 m 492 313 l 292 313 q 194 283 219 313 q 168 188 168 254 q 172 134 168 158 q 188 92 176 110 q 222 65 200 75 q 282 56 244 56 q 390 76 332 56 q 492 124 447 96 l 492 313 m 375 758 q 283 812 332 782 q 190 874 235 842 l 231 935 q 324 872 276 903 q 413 815 371 842 l 375 758 z "},"á":{"ha":674,"x_min":90,"x_max":572,"o":"m 572 0 l 504 0 l 497 56 q 390 6 449 25 q 265 -14 332 -14 q 182 1 215 -14 q 128 42 149 15 q 99 106 108 69 q 90 189 90 143 q 140 338 90 296 q 289 381 189 381 l 492 381 l 492 478 q 485 547 492 519 q 460 590 478 574 q 413 612 442 606 q 338 618 383 618 q 242 609 289 618 q 154 583 194 600 l 139 653 q 236 681 182 672 q 343 690 290 690 q 519 641 465 690 q 572 481 572 592 l 572 0 m 492 313 l 292 313 q 194 283 219 313 q 168 188 168 254 q 172 134 168 158 q 188 92 176 110 q 222 65 200 75 q 282 56 244 56 q 390 76 332 56 q 492 124 447 96 l 492 313 m 256 815 q 344 872 297 842 q 438 935 392 903 l 478 874 q 385 812 433 842 q 293 758 336 782 l 256 815 z "},"â":{"ha":674,"x_min":90,"x_max":572,"o":"m 572 0 l 504 0 l 497 56 q 390 6 449 25 q 265 -14 332 -14 q 182 1 215 -14 q 128 42 149 15 q 99 106 108 69 q 90 189 90 143 q 140 338 90 296 q 289 381 189 381 l 492 381 l 492 478 q 485 547 492 519 q 460 590 478 574 q 413 612 442 606 q 338 618 383 618 q 242 609 289 618 q 154 583 194 600 l 139 653 q 236 681 182 672 q 343 690 290 690 q 519 641 465 690 q 572 481 572 592 l 572 0 m 492 313 l 292 313 q 194 283 219 313 q 168 188 168 254 q 172 134 168 158 q 188 92 176 110 q 222 65 200 75 q 282 56 244 56 q 390 76 332 56 q 492 124 447 96 l 492 313 m 164 814 q 251 869 208 840 q 343 931 294 897 q 428 871 388 899 q 521 814 469 843 l 492 760 q 413 804 446 783 q 343 846 379 825 q 274 804 308 825 q 194 760 239 783 l 164 814 z "},"ã":{"ha":674,"x_min":90,"x_max":572,"o":"m 572 0 l 504 0 l 497 56 q 390 6 449 25 q 265 -14 332 -14 q 182 1 215 -14 q 128 42 149 15 q 99 106 108 69 q 90 189 90 143 q 140 338 90 296 q 289 381 189 381 l 492 381 l 492 478 q 485 547 492 519 q 460 590 478 574 q 413 612 442 606 q 338 618 383 618 q 242 609 289 618 q 154 583 194 600 l 139 653 q 236 681 182 672 q 343 690 290 690 q 519 641 465 690 q 572 481 572 592 l 572 0 m 492 313 l 292 313 q 194 283 219 313 q 168 188 168 254 q 172 134 168 158 q 188 92 176 110 q 222 65 200 75 q 282 56 244 56 q 390 76 332 56 q 492 124 447 96 l 492 313 m 350 789 q 309 807 326 800 q 272 814 292 814 q 232 803 249 814 q 197 775 215 793 l 161 815 q 211 863 181 843 q 275 883 242 883 q 310 878 294 883 q 350 861 326 872 q 395 842 378 849 q 429 836 413 836 q 496 871 465 836 l 536 835 q 490 786 518 806 q 429 767 463 767 q 394 772 411 767 q 350 789 378 776 z "},"ä":{"ha":674,"x_min":90,"x_max":572,"o":"m 572 0 l 504 0 l 497 56 q 390 6 449 25 q 265 -14 332 -14 q 182 1 215 -14 q 128 42 149 15 q 99 106 108 69 q 90 189 90 143 q 140 338 90 296 q 289 381 189 381 l 492 381 l 492 478 q 485 547 492 519 q 460 590 478 574 q 413 612 442 606 q 338 618 383 618 q 242 609 289 618 q 154 583 194 600 l 139 653 q 236 681 182 672 q 343 690 290 690 q 519 641 465 690 q 572 481 572 592 l 572 0 m 492 313 l 292 313 q 194 283 219 313 q 168 188 168 254 q 172 134 168 158 q 188 92 176 110 q 222 65 200 75 q 282 56 244 56 q 390 76 332 56 q 492 124 447 96 l 492 313 m 194 867 l 281 867 l 281 775 l 194 775 l 194 867 m 431 867 l 517 867 l 517 775 l 431 775 l 431 867 z "},"å":{"ha":674,"x_min":90,"x_max":572,"o":"m 572 0 l 504 0 l 497 56 q 390 6 449 25 q 265 -14 332 -14 q 182 1 215 -14 q 128 42 149 15 q 99 106 108 69 q 90 189 90 143 q 140 338 90 296 q 289 381 189 381 l 492 381 l 492 478 q 485 547 492 519 q 460 590 478 574 q 413 612 442 606 q 338 618 383 618 q 242 609 289 618 q 154 583 194 600 l 139 653 q 236 681 182 672 q 343 690 290 690 q 519 641 465 690 q 572 481 572 592 l 572 0 m 492 313 l 292 313 q 194 283 219 313 q 168 188 168 254 q 172 134 168 158 q 188 92 176 110 q 222 65 200 75 q 282 56 244 56 q 390 76 332 56 q 492 124 447 96 l 492 313 m 431 840 q 407 778 431 804 q 340 751 383 751 q 274 778 297 751 q 250 840 250 804 q 274 903 250 878 q 340 928 297 928 q 407 903 383 928 q 431 840 431 878 m 383 840 q 372 874 383 861 q 340 888 361 888 q 308 874 319 888 q 296 840 296 861 q 308 807 296 821 q 340 793 319 793 q 372 807 361 793 q 383 840 383 821 z "},"æ":{"ha":1074,"x_min":90,"x_max":990,"o":"m 572 229 q 581 151 572 183 q 610 97 589 118 q 665 67 631 76 q 749 57 699 57 q 857 66 801 57 q 963 89 913 75 l 976 24 q 867 -3 929 7 q 743 -14 806 -14 q 610 8 661 -14 q 532 71 560 31 q 416 13 486 39 q 265 -14 346 -14 q 182 1 215 -14 q 128 44 149 17 q 99 108 108 71 q 90 189 90 144 q 140 338 90 296 q 289 381 189 381 l 492 381 l 492 478 q 485 547 492 519 q 460 590 478 574 q 413 612 442 606 q 338 618 383 618 q 242 609 289 618 q 154 583 194 600 l 139 653 q 236 681 182 672 q 343 690 290 690 q 467 672 418 690 q 542 613 515 653 q 620 669 571 649 q 744 690 669 690 q 863 672 815 690 q 939 619 911 653 q 978 541 967 586 q 990 444 990 496 l 990 313 l 572 313 l 572 229 m 492 313 l 292 313 q 194 283 219 313 q 168 188 168 254 q 172 134 168 158 q 188 92 176 110 q 222 65 200 75 q 282 56 244 56 q 407 74 350 56 q 506 124 464 92 q 492 232 492 169 l 492 313 m 572 381 l 911 381 l 911 450 q 875 579 911 535 q 744 624 839 624 q 610 580 649 624 q 572 450 572 536 l 572 381 z "},"ç":{"ha":556,"x_min":76,"x_max":486,"o":"m 157 217 q 197 92 157 126 q 332 58 238 58 q 476 72 394 58 l 486 6 q 410 -8 451 -3 q 336 -14 369 -12 l 318 -97 q 338 -94 328 -94 q 357 -93 349 -93 q 428 -115 399 -93 q 458 -181 458 -136 q 425 -257 458 -226 q 326 -287 392 -287 q 269 -282 297 -287 q 218 -268 242 -276 l 231 -219 q 273 -228 250 -225 q 315 -232 296 -232 q 376 -219 358 -232 q 394 -183 394 -207 q 329 -140 394 -140 q 287 -143 310 -140 q 249 -149 264 -146 l 278 -11 q 122 60 167 0 q 76 219 76 121 l 76 457 q 90 555 76 511 q 133 628 103 599 q 212 674 163 658 q 332 690 261 690 q 408 685 367 690 q 486 671 450 681 l 476 604 q 332 618 394 618 q 197 584 238 618 q 157 460 157 550 l 157 217 z "},"è":{"ha":665,"x_min":83,"x_max":582,"o":"m 164 229 q 172 151 164 183 q 201 97 181 118 q 256 67 222 76 q 340 57 290 57 q 449 66 393 57 q 554 89 504 75 l 568 24 q 459 -3 521 7 q 335 -14 397 -14 q 215 3 264 -14 q 138 53 167 21 q 96 131 108 86 q 83 232 83 176 l 83 444 q 96 541 83 496 q 138 619 108 586 q 217 672 168 653 q 336 690 265 690 q 455 672 407 690 q 531 619 503 653 q 570 541 558 586 q 582 444 582 496 l 582 296 l 164 296 l 164 229 m 164 367 l 503 367 l 503 450 q 467 579 503 535 q 336 624 431 624 q 202 580 240 624 q 164 450 164 536 l 164 367 m 369 758 q 278 812 326 782 q 185 874 229 842 l 225 935 q 318 872 271 903 q 407 815 365 842 l 369 758 z "},"é":{"ha":665,"x_min":83,"x_max":582,"o":"m 164 229 q 172 151 164 183 q 201 97 181 118 q 256 67 222 76 q 340 57 290 57 q 449 66 393 57 q 554 89 504 75 l 568 24 q 459 -3 521 7 q 335 -14 397 -14 q 215 3 264 -14 q 138 53 167 21 q 96 131 108 86 q 83 232 83 176 l 83 444 q 96 541 83 496 q 138 619 108 586 q 217 672 168 653 q 336 690 265 690 q 455 672 407 690 q 531 619 503 653 q 570 541 558 586 q 582 444 582 496 l 582 296 l 164 296 l 164 229 m 164 367 l 503 367 l 503 450 q 467 579 503 535 q 336 624 431 624 q 202 580 240 624 q 164 450 164 536 l 164 367 m 261 815 q 350 872 303 842 q 443 935 397 903 l 483 874 q 390 812 439 842 q 299 758 342 782 l 261 815 z "},"ê":{"ha":665,"x_min":83,"x_max":582,"o":"m 164 229 q 172 151 164 183 q 201 97 181 118 q 256 67 222 76 q 340 57 290 57 q 449 66 393 57 q 554 89 504 75 l 568 24 q 459 -3 521 7 q 335 -14 397 -14 q 215 3 264 -14 q 138 53 167 21 q 96 131 108 86 q 83 232 83 176 l 83 444 q 96 541 83 496 q 138 619 108 586 q 217 672 168 653 q 336 690 265 690 q 455 672 407 690 q 531 619 503 653 q 570 541 558 586 q 582 444 582 496 l 582 296 l 164 296 l 164 229 m 164 367 l 503 367 l 503 450 q 467 579 503 535 q 336 624 431 624 q 202 580 240 624 q 164 450 164 536 l 164 367 m 171 814 q 258 869 215 840 q 350 931 301 897 q 435 871 394 899 q 528 814 476 843 l 499 760 q 419 804 453 783 q 350 846 386 825 q 281 804 315 825 q 201 760 246 783 l 171 814 z "},"ë":{"ha":665,"x_min":83,"x_max":582,"o":"m 164 229 q 172 151 164 183 q 201 97 181 118 q 256 67 222 76 q 340 57 290 57 q 449 66 393 57 q 554 89 504 75 l 568 24 q 459 -3 521 7 q 335 -14 397 -14 q 215 3 264 -14 q 138 53 167 21 q 96 131 108 86 q 83 232 83 176 l 83 444 q 96 541 83 496 q 138 619 108 586 q 217 672 168 653 q 336 690 265 690 q 455 672 407 690 q 531 619 503 653 q 570 541 558 586 q 582 444 582 496 l 582 296 l 164 296 l 164 229 m 164 367 l 503 367 l 503 450 q 467 579 503 535 q 336 624 431 624 q 202 580 240 624 q 164 450 164 536 l 164 367 m 174 867 l 260 867 l 260 775 l 174 775 l 174 867 m 410 867 l 496 867 l 496 775 l 410 775 l 410 867 z "},"ì":{"ha":317,"x_min":-12,"x_max":210,"o":"m 118 0 l 118 676 l 199 676 l 199 0 l 118 0 m 172 758 q 81 812 129 782 q -12 874 32 842 l 28 935 q 121 872 74 903 q 210 815 168 842 l 172 758 z "},"í":{"ha":317,"x_min":117,"x_max":339,"o":"m 118 0 l 118 676 l 199 676 l 199 0 l 118 0 m 117 815 q 206 872 158 842 q 299 935 253 903 l 339 874 q 246 812 294 842 q 154 758 197 782 l 117 815 z "},"î":{"ha":317,"x_min":-19,"x_max":338,"o":"m 118 0 l 118 676 l 199 676 l 199 0 l 118 0 m -19 814 q 68 869 25 840 q 160 931 111 897 q 245 871 204 899 q 338 814 286 843 l 308 760 q 229 804 263 783 q 160 846 196 825 q 90 804 125 825 q 11 760 56 783 l -19 814 z "},"ï":{"ha":317,"x_min":-3,"x_max":319,"o":"m 118 0 l 118 676 l 199 676 l 199 0 l 118 0 m -3 867 l 83 867 l 83 775 l -3 775 l -3 867 m 233 867 l 319 867 l 319 775 l 233 775 l 233 867 z "},"ð":{"ha":713,"x_min":90,"x_max":615,"o":"m 372 839 q 297 878 338 861 q 208 911 256 896 l 229 974 q 338 933 288 954 q 429 883 388 911 l 518 954 l 553 908 l 476 849 q 581 710 546 790 q 615 518 615 631 l 615 232 q 601 135 615 179 q 555 57 586 90 q 474 5 524 24 q 353 -14 424 -14 q 232 5 282 -14 q 151 57 182 24 q 105 135 119 90 q 90 232 90 179 l 90 396 q 158 584 90 526 q 338 642 226 642 q 447 625 400 642 q 535 576 494 608 q 506 703 533 646 q 421 804 479 760 l 304 714 l 271 760 l 372 839 m 353 58 q 492 101 449 58 q 535 229 535 143 l 535 486 q 459 544 511 518 q 344 569 407 569 q 210 527 249 569 q 171 399 171 485 l 171 229 q 214 101 171 143 q 353 58 257 58 z "},"ñ":{"ha":724,"x_min":118,"x_max":613,"o":"m 532 0 l 532 547 q 513 600 532 585 q 458 615 494 615 q 406 609 438 615 q 340 592 375 603 q 267 568 304 582 q 199 538 231 554 l 199 0 l 118 0 l 118 676 l 189 676 l 194 615 q 256 642 221 628 q 328 666 292 656 q 402 683 365 676 q 469 690 439 690 q 581 649 549 690 q 613 538 613 608 l 613 0 l 532 0 m 371 789 q 330 807 347 800 q 293 814 313 814 q 253 803 269 814 q 218 775 236 793 l 182 815 q 232 863 201 843 q 296 883 263 883 q 331 878 315 883 q 371 861 347 872 q 416 842 399 849 q 450 836 433 836 q 517 871 486 836 l 557 835 q 511 786 539 806 q 450 767 483 767 q 415 772 432 767 q 371 789 399 776 z "},"ò":{"ha":692,"x_min":83,"x_max":608,"o":"m 608 232 q 594 135 608 179 q 548 57 579 90 q 467 5 517 24 q 346 -14 417 -14 q 225 5 275 -14 q 144 57 175 24 q 98 135 113 90 q 83 232 83 179 l 83 444 q 98 541 83 496 q 144 619 113 586 q 225 672 175 653 q 346 690 275 690 q 467 672 417 690 q 548 619 517 653 q 594 541 579 586 q 608 444 608 496 l 608 232 m 528 447 q 485 576 528 533 q 346 618 442 618 q 207 576 250 618 q 164 447 164 533 l 164 229 q 207 101 164 143 q 346 58 250 58 q 485 101 442 58 q 528 229 528 143 l 528 447 m 393 758 q 301 812 350 782 q 208 874 253 842 l 249 935 q 342 872 294 903 q 431 815 389 842 l 393 758 z "},"ó":{"ha":692,"x_min":83,"x_max":608,"o":"m 608 232 q 594 135 608 179 q 548 57 579 90 q 467 5 517 24 q 346 -14 417 -14 q 225 5 275 -14 q 144 57 175 24 q 98 135 113 90 q 83 232 83 179 l 83 444 q 98 541 83 496 q 144 619 113 586 q 225 672 175 653 q 346 690 275 690 q 467 672 417 690 q 548 619 517 653 q 594 541 579 586 q 608 444 608 496 l 608 232 m 528 447 q 485 576 528 533 q 346 618 442 618 q 207 576 250 618 q 164 447 164 533 l 164 229 q 207 101 164 143 q 346 58 250 58 q 485 101 442 58 q 528 229 528 143 l 528 447 m 278 815 q 367 872 319 842 q 460 935 414 903 l 500 874 q 407 812 456 842 q 315 758 358 782 l 278 815 z "},"ô":{"ha":692,"x_min":83,"x_max":608,"o":"m 608 232 q 594 135 608 179 q 548 57 579 90 q 467 5 517 24 q 346 -14 417 -14 q 225 5 275 -14 q 144 57 175 24 q 98 135 113 90 q 83 232 83 179 l 83 444 q 98 541 83 496 q 144 619 113 586 q 225 672 175 653 q 346 690 275 690 q 467 672 417 690 q 548 619 517 653 q 594 541 579 586 q 608 444 608 496 l 608 232 m 528 447 q 485 576 528 533 q 346 618 442 618 q 207 576 250 618 q 164 447 164 533 l 164 229 q 207 101 164 143 q 346 58 250 58 q 485 101 442 58 q 528 229 528 143 l 528 447 m 168 814 q 256 869 213 840 q 347 931 299 897 q 433 871 392 899 q 525 814 474 843 l 496 760 q 417 804 450 783 q 347 846 383 825 q 278 804 313 825 q 199 760 243 783 l 168 814 z "},"õ":{"ha":692,"x_min":83,"x_max":608,"o":"m 608 232 q 594 135 608 179 q 548 57 579 90 q 467 5 517 24 q 346 -14 417 -14 q 225 5 275 -14 q 144 57 175 24 q 98 135 113 90 q 83 232 83 179 l 83 444 q 98 541 83 496 q 144 619 113 586 q 225 672 175 653 q 346 690 275 690 q 467 672 417 690 q 548 619 517 653 q 594 541 579 586 q 608 444 608 496 l 608 232 m 528 447 q 485 576 528 533 q 346 618 442 618 q 207 576 250 618 q 164 447 164 533 l 164 229 q 207 101 164 143 q 346 58 250 58 q 485 101 442 58 q 528 229 528 143 l 528 447 m 357 789 q 316 807 333 800 q 279 814 299 814 q 239 803 256 814 q 204 775 222 793 l 168 815 q 218 863 188 843 q 282 883 249 883 q 317 878 301 883 q 357 861 333 872 q 402 842 385 849 q 436 836 419 836 q 503 871 472 836 l 543 835 q 497 786 525 806 q 436 767 469 767 q 401 772 418 767 q 357 789 385 776 z "},"ö":{"ha":692,"x_min":83,"x_max":608,"o":"m 608 232 q 594 135 608 179 q 548 57 579 90 q 467 5 517 24 q 346 -14 417 -14 q 225 5 275 -14 q 144 57 175 24 q 98 135 113 90 q 83 232 83 179 l 83 444 q 98 541 83 496 q 144 619 113 586 q 225 672 175 653 q 346 690 275 690 q 467 672 417 690 q 548 619 517 653 q 594 541 579 586 q 608 444 608 496 l 608 232 m 528 447 q 485 576 528 533 q 346 618 442 618 q 207 576 250 618 q 164 447 164 533 l 164 229 q 207 101 164 143 q 346 58 250 58 q 485 101 442 58 q 528 229 528 143 l 528 447 m 185 867 l 271 867 l 271 775 l 185 775 l 185 867 m 421 867 l 507 867 l 507 775 l 421 775 l 421 867 z "},"÷":{"ha":786,"x_min":111,"x_max":675,"o":"m 675 301 l 111 301 l 111 374 l 675 374 l 675 301 m 350 167 l 436 167 l 436 61 l 350 61 l 350 167 m 350 614 l 436 614 l 436 508 l 350 508 l 350 614 z "},"ø":{"ha":692,"x_min":83,"x_max":608,"o":"m 608 232 q 594 135 608 179 q 548 57 579 90 q 467 5 517 24 q 346 -14 417 -14 q 256 -4 296 -14 q 188 22 217 6 l 132 -69 l 83 -40 l 142 57 q 97 135 110 90 q 83 232 83 179 l 83 444 q 98 541 83 496 q 144 619 113 586 q 225 672 175 653 q 346 690 275 690 q 435 681 396 690 q 504 654 474 671 l 560 746 l 608 715 l 549 618 q 594 541 581 586 q 608 444 608 496 l 608 232 m 164 229 q 185 129 164 168 l 465 590 q 346 618 421 618 q 207 576 250 618 q 164 447 164 533 l 164 229 m 528 447 q 506 547 528 508 l 226 86 q 346 58 268 58 q 485 101 442 58 q 528 229 528 143 l 528 447 z "},"ù":{"ha":724,"x_min":111,"x_max":606,"o":"m 192 676 l 192 129 q 210 76 192 92 q 265 61 229 61 q 317 67 286 61 q 384 83 349 72 q 456 108 419 93 q 525 139 493 122 l 525 676 l 606 676 l 606 0 l 535 0 l 529 61 q 467 35 501 49 q 395 10 432 21 q 322 -7 358 0 q 254 -14 285 -14 q 143 27 175 -14 q 111 139 111 68 l 111 676 l 192 676 m 392 758 q 300 812 349 782 q 207 874 251 842 l 247 935 q 340 872 293 903 q 429 815 388 842 l 392 758 z "},"ú":{"ha":724,"x_min":111,"x_max":606,"o":"m 192 676 l 192 129 q 210 76 192 92 q 265 61 229 61 q 317 67 286 61 q 384 83 349 72 q 456 108 419 93 q 525 139 493 122 l 525 676 l 606 676 l 606 0 l 535 0 l 529 61 q 467 35 501 49 q 395 10 432 21 q 322 -7 358 0 q 254 -14 285 -14 q 143 27 175 -14 q 111 139 111 68 l 111 676 l 192 676 m 290 815 q 379 872 332 842 q 472 935 426 903 l 513 874 q 419 812 468 842 q 328 758 371 782 l 290 815 z "},"û":{"ha":724,"x_min":111,"x_max":606,"o":"m 192 676 l 192 129 q 210 76 192 92 q 265 61 229 61 q 317 67 286 61 q 384 83 349 72 q 456 108 419 93 q 525 139 493 122 l 525 676 l 606 676 l 606 0 l 535 0 l 529 61 q 467 35 501 49 q 395 10 432 21 q 322 -7 358 0 q 254 -14 285 -14 q 143 27 175 -14 q 111 139 111 68 l 111 676 l 192 676 m 193 814 q 281 869 238 840 q 372 931 324 897 q 458 871 417 899 q 550 814 499 843 l 521 760 q 442 804 475 783 q 372 846 408 825 q 303 804 338 825 q 224 760 268 783 l 193 814 z "},"ü":{"ha":724,"x_min":111,"x_max":606,"o":"m 192 676 l 192 129 q 210 76 192 92 q 265 61 229 61 q 317 67 286 61 q 384 83 349 72 q 456 108 419 93 q 525 139 493 122 l 525 676 l 606 676 l 606 0 l 535 0 l 529 61 q 467 35 501 49 q 395 10 432 21 q 322 -7 358 0 q 254 -14 285 -14 q 143 27 175 -14 q 111 139 111 68 l 111 676 l 192 676 m 206 867 l 292 867 l 292 775 l 206 775 l 206 867 m 442 867 l 528 867 l 528 775 l 442 775 l 442 867 z "},"ý":{"ha":617,"x_min":21,"x_max":603,"o":"m 374 0 l 274 -274 l 194 -274 l 296 0 l 250 0 l 21 676 l 103 676 l 311 57 l 521 676 l 603 676 l 374 0 m 247 815 q 336 872 289 842 q 429 935 383 903 l 469 874 q 376 812 425 842 q 285 758 328 782 l 247 815 z "},"þ":{"ha":719,"x_min":125,"x_max":622,"o":"m 125 953 l 206 964 l 206 614 q 315 671 256 651 q 431 690 374 690 q 576 642 531 690 q 622 503 622 594 l 622 194 q 575 44 622 101 q 414 -14 528 -14 q 313 -8 361 -14 q 206 8 264 -3 l 206 -274 l 125 -290 l 125 953 m 206 82 q 417 58 319 58 q 513 92 483 58 q 542 194 542 125 l 542 503 q 518 590 542 561 q 425 618 494 618 q 308 594 363 618 q 206 532 254 571 l 206 82 z "},"ÿ":{"ha":617,"x_min":21,"x_max":603,"o":"m 374 0 l 274 -274 l 194 -274 l 296 0 l 250 0 l 21 676 l 103 676 l 311 57 l 521 676 l 603 676 l 374 0 m 151 867 l 238 867 l 238 775 l 151 775 l 151 867 m 388 867 l 474 867 l 474 775 l 388 775 l 388 867 z "},"Ā":{"ha":863,"x_min":49,"x_max":814,"o":"m 646 243 l 215 243 l 129 0 l 49 0 l 371 925 l 492 925 l 814 0 l 733 0 l 646 243 m 240 314 l 621 314 l 431 878 l 240 314 m 267 1089 l 594 1089 l 594 1026 l 267 1026 l 267 1089 z "},"ā":{"ha":674,"x_min":90,"x_max":572,"o":"m 572 0 l 504 0 l 497 56 q 390 6 449 25 q 265 -14 332 -14 q 182 1 215 -14 q 128 42 149 15 q 99 106 108 69 q 90 189 90 143 q 140 338 90 296 q 289 381 189 381 l 492 381 l 492 478 q 485 547 492 519 q 460 590 478 574 q 413 612 442 606 q 338 618 383 618 q 242 609 289 618 q 154 583 194 600 l 139 653 q 236 681 182 672 q 343 690 290 690 q 519 641 465 690 q 572 481 572 592 l 572 0 m 492 313 l 292 313 q 194 283 219 313 q 168 188 168 254 q 172 134 168 158 q 188 92 176 110 q 222 65 200 75 q 282 56 244 56 q 390 76 332 56 q 492 124 447 96 l 492 313 m 185 853 l 513 853 l 513 786 l 185 786 l 185 853 z "},"Ă":{"ha":863,"x_min":49,"x_max":814,"o":"m 646 243 l 215 243 l 129 0 l 49 0 l 371 925 l 492 925 l 814 0 l 733 0 l 646 243 m 240 314 l 621 314 l 431 878 l 240 314 m 601 1089 q 574 1056 590 1072 q 537 1026 558 1039 q 489 1003 515 1013 q 431 994 463 994 q 372 1003 399 994 q 324 1026 346 1013 q 287 1056 303 1039 q 260 1089 271 1072 l 306 1131 q 360 1078 329 1099 q 431 1057 392 1057 q 501 1078 469 1057 q 556 1131 532 1099 l 601 1089 z "},"ă":{"ha":674,"x_min":90,"x_max":572,"o":"m 572 0 l 504 0 l 497 56 q 390 6 449 25 q 265 -14 332 -14 q 182 1 215 -14 q 128 42 149 15 q 99 106 108 69 q 90 189 90 143 q 140 338 90 296 q 289 381 189 381 l 492 381 l 492 478 q 485 547 492 519 q 460 590 478 574 q 413 612 442 606 q 338 618 383 618 q 242 609 289 618 q 154 583 194 600 l 139 653 q 236 681 182 672 q 343 690 290 690 q 519 641 465 690 q 572 481 572 592 l 572 0 m 492 313 l 292 313 q 194 283 219 313 q 168 188 168 254 q 172 134 168 158 q 188 92 176 110 q 222 65 200 75 q 282 56 244 56 q 390 76 332 56 q 492 124 447 96 l 492 313 m 533 849 q 506 815 522 832 q 469 785 490 799 q 421 763 447 772 q 363 754 394 754 q 304 763 331 754 q 256 785 278 772 q 219 815 235 799 q 192 849 203 832 l 238 890 q 292 838 261 858 q 363 817 324 817 q 433 838 401 817 q 488 890 464 858 l 533 849 z "},"Ą":{"ha":863,"x_min":49,"x_max":814,"o":"m 814 -267 q 725 -287 776 -287 q 643 -262 679 -287 q 607 -182 607 -237 q 642 -79 607 -126 q 733 0 678 -32 l 646 243 l 215 243 l 129 0 l 49 0 l 371 925 l 492 925 l 814 0 q 717 -82 756 -40 q 678 -176 678 -124 q 690 -212 678 -197 q 735 -226 703 -226 q 766 -224 751 -226 q 797 -215 781 -222 l 814 -267 m 240 314 l 621 314 l 431 878 l 240 314 z "},"ą":{"ha":676,"x_min":90,"x_max":572,"o":"m 572 0 q 475 -82 514 -40 q 436 -176 436 -124 q 449 -212 436 -197 q 493 -226 461 -226 q 524 -224 510 -226 q 556 -215 539 -222 l 572 -267 q 483 -287 535 -287 q 401 -262 438 -287 q 365 -182 365 -237 q 407 -78 365 -124 q 504 0 449 -32 l 497 56 q 390 6 449 25 q 265 -14 332 -14 q 182 1 215 -14 q 128 42 149 15 q 99 106 108 69 q 90 189 90 143 q 140 338 90 296 q 289 381 189 381 l 492 381 l 492 478 q 485 547 492 519 q 460 590 478 574 q 413 612 442 606 q 338 618 383 618 q 242 609 289 618 q 154 583 194 600 l 139 653 q 236 681 182 672 q 343 690 290 690 q 519 641 465 690 q 572 481 572 592 l 572 0 m 492 313 l 292 313 q 194 283 219 313 q 168 188 168 254 q 172 134 168 158 q 188 92 176 110 q 222 65 200 75 q 282 56 244 56 q 390 76 332 56 q 492 124 447 96 l 492 313 z "},"Ć":{"ha":710,"x_min":104,"x_max":633,"o":"m 186 256 q 199 164 186 201 q 239 103 211 126 q 311 70 267 81 q 418 60 356 60 q 519 65 463 60 q 624 78 576 69 l 633 7 q 521 -9 581 -4 q 411 -14 461 -14 q 269 3 328 -14 q 174 56 210 21 q 121 140 138 90 q 104 254 104 189 l 104 671 q 121 785 104 735 q 174 869 138 835 q 269 922 210 904 q 411 939 328 939 q 521 934 461 939 q 633 918 581 929 l 624 847 q 519 860 576 856 q 418 865 463 865 q 311 855 356 865 q 239 822 267 844 q 199 761 211 799 q 186 669 186 724 l 186 256 m 332 1051 q 415 1103 374 1076 q 501 1163 457 1131 l 542 1101 q 458 1046 501 1074 q 369 994 414 1018 l 332 1051 z "},"ć":{"ha":556,"x_min":76,"x_max":486,"o":"m 157 217 q 197 92 157 126 q 332 58 238 58 q 476 72 394 58 l 486 6 q 408 -9 450 -4 q 332 -14 367 -14 q 212 2 261 -14 q 133 48 163 18 q 90 122 103 78 q 76 219 76 165 l 76 457 q 90 555 76 511 q 133 628 103 599 q 212 674 163 658 q 332 690 261 690 q 408 685 367 690 q 486 671 450 681 l 476 604 q 332 618 394 618 q 197 584 238 618 q 157 460 157 550 l 157 217 m 229 815 q 318 872 271 842 q 411 935 365 903 l 451 874 q 358 812 407 842 q 267 758 310 782 l 229 815 z "},"Ĉ":{"ha":710,"x_min":104,"x_max":633,"o":"m 186 256 q 199 164 186 201 q 239 103 211 126 q 311 70 267 81 q 418 60 356 60 q 519 65 463 60 q 624 78 576 69 l 633 7 q 521 -9 581 -4 q 411 -14 461 -14 q 269 3 328 -14 q 174 56 210 21 q 121 140 138 90 q 104 254 104 189 l 104 671 q 121 785 104 735 q 174 869 138 835 q 269 922 210 904 q 411 939 328 939 q 521 934 461 939 q 633 918 581 929 l 624 847 q 519 860 576 856 q 418 865 463 865 q 311 855 356 865 q 239 822 267 844 q 199 761 211 799 q 186 669 186 724 l 186 256 m 240 1049 q 325 1103 285 1076 q 414 1163 365 1129 q 495 1105 457 1131 q 586 1049 533 1079 l 557 994 q 478 1038 508 1021 q 414 1078 449 1056 q 347 1038 379 1057 q 271 994 315 1018 l 240 1049 z "},"ĉ":{"ha":556,"x_min":76,"x_max":504,"o":"m 157 217 q 197 92 157 126 q 332 58 238 58 q 476 72 394 58 l 486 6 q 408 -9 450 -4 q 332 -14 367 -14 q 212 2 261 -14 q 133 48 163 18 q 90 122 103 78 q 76 219 76 165 l 76 457 q 90 555 76 511 q 133 628 103 599 q 212 674 163 658 q 332 690 261 690 q 408 685 367 690 q 486 671 450 681 l 476 604 q 332 618 394 618 q 197 584 238 618 q 157 460 157 550 l 157 217 m 147 814 q 235 869 192 840 q 326 931 278 897 q 412 871 371 899 q 504 814 453 843 l 475 760 q 396 804 429 783 q 326 846 363 825 q 257 804 292 825 q 178 760 222 783 l 147 814 z "},"Ċ":{"ha":710,"x_min":104,"x_max":633,"o":"m 186 256 q 199 164 186 201 q 239 103 211 126 q 311 70 267 81 q 418 60 356 60 q 519 65 463 60 q 624 78 576 69 l 633 7 q 521 -9 581 -4 q 411 -14 461 -14 q 269 3 328 -14 q 174 56 210 21 q 121 140 138 90 q 104 254 104 189 l 104 671 q 121 785 104 735 q 174 869 138 835 q 269 922 210 904 q 411 939 328 939 q 521 934 461 939 q 633 918 581 929 l 624 847 q 519 860 576 856 q 418 865 463 865 q 311 855 356 865 q 239 822 267 844 q 199 761 211 799 q 186 669 186 724 l 186 256 m 372 1008 l 372 1157 l 453 1157 l 453 1008 l 372 1008 z "},"ċ":{"ha":556,"x_min":76,"x_max":486,"o":"m 157 217 q 197 92 157 126 q 332 58 238 58 q 476 72 394 58 l 486 6 q 408 -9 450 -4 q 332 -14 367 -14 q 212 2 261 -14 q 133 48 163 18 q 90 122 103 78 q 76 219 76 165 l 76 457 q 90 555 76 511 q 133 628 103 599 q 212 674 163 658 q 332 690 261 690 q 408 685 367 690 q 486 671 450 681 l 476 604 q 332 618 394 618 q 197 584 238 618 q 157 460 157 550 l 157 217 m 263 804 l 263 953 l 343 953 l 343 804 l 263 804 z "},"Č":{"ha":710,"x_min":104,"x_max":633,"o":"m 186 256 q 199 164 186 201 q 239 103 211 126 q 311 70 267 81 q 418 60 356 60 q 519 65 463 60 q 624 78 576 69 l 633 7 q 521 -9 581 -4 q 411 -14 461 -14 q 269 3 328 -14 q 174 56 210 21 q 121 140 138 90 q 104 254 104 189 l 104 671 q 121 785 104 735 q 174 869 138 835 q 269 922 210 904 q 411 939 328 939 q 521 934 461 939 q 633 918 581 929 l 624 847 q 519 860 576 856 q 418 865 463 865 q 311 855 356 865 q 239 822 267 844 q 199 761 211 799 q 186 669 186 724 l 186 256 m 265 1168 q 344 1124 310 1144 q 414 1082 379 1103 q 483 1124 450 1103 q 563 1168 517 1144 l 592 1114 q 499 1057 540 1085 q 414 997 458 1029 q 322 1059 365 1031 q 235 1114 279 1088 l 265 1168 z "},"č":{"ha":556,"x_min":76,"x_max":496,"o":"m 157 217 q 197 92 157 126 q 332 58 238 58 q 476 72 394 58 l 486 6 q 408 -9 450 -4 q 332 -14 367 -14 q 212 2 261 -14 q 133 48 163 18 q 90 122 103 78 q 76 219 76 165 l 76 457 q 90 555 76 511 q 133 628 103 599 q 212 674 163 658 q 332 690 261 690 q 408 685 367 690 q 486 671 450 681 l 476 604 q 332 618 394 618 q 197 584 238 618 q 157 460 157 550 l 157 217 m 169 918 q 249 874 214 894 q 318 832 283 853 q 388 874 354 853 q 467 918 421 894 l 496 864 q 403 807 444 835 q 318 747 363 779 q 226 809 269 781 q 139 864 183 838 l 169 918 z "},"Ď":{"ha":819,"x_min":125,"x_max":719,"o":"m 431 925 q 571 904 515 925 q 660 847 626 883 q 706 760 693 811 q 719 651 719 710 l 719 274 q 706 165 719 215 q 660 78 693 114 q 571 21 626 42 q 431 0 515 0 l 125 0 l 125 925 l 431 925 m 207 74 l 432 74 q 593 122 549 74 q 638 269 638 171 l 638 656 q 593 803 638 754 q 432 851 549 851 l 207 851 l 207 74 m 250 1168 q 329 1124 294 1144 q 399 1082 364 1103 q 468 1124 435 1103 q 547 1168 501 1144 l 576 1114 q 484 1057 525 1085 q 399 997 443 1029 q 307 1059 350 1031 q 219 1114 264 1088 l 250 1168 z "},"ď":{"ha":842,"x_min":97,"x_max":828,"o":"m 97 482 q 108 567 97 528 q 144 633 119 606 q 209 675 169 660 q 306 690 249 690 q 407 685 358 690 q 514 668 456 679 l 514 953 l 594 964 l 594 0 l 521 0 l 517 64 q 406 6 465 25 q 289 -14 346 -14 q 143 34 189 -14 q 97 174 97 82 l 97 482 m 514 594 q 303 618 400 618 q 207 585 236 618 q 178 482 178 551 l 178 174 q 201 87 178 115 q 294 58 225 58 q 411 82 357 58 q 514 144 465 106 l 514 594 m 742 953 l 828 953 l 828 833 l 761 683 l 722 700 l 772 833 l 742 833 l 742 953 z "},"Đ":{"ha":871,"x_min":69,"x_max":771,"o":"m 69 506 l 176 506 l 176 925 l 482 925 q 622 904 567 925 q 711 847 678 883 q 758 760 744 811 q 771 651 771 710 l 771 274 q 758 165 771 215 q 711 78 744 114 q 622 21 678 42 q 482 0 567 0 l 176 0 l 176 436 l 69 436 l 69 506 m 258 506 l 454 506 l 454 436 l 258 436 l 258 74 l 483 74 q 644 122 600 74 q 689 269 689 171 l 689 656 q 644 803 689 754 q 483 851 600 851 l 258 851 l 258 506 z "},"đ":{"ha":713,"x_min":97,"x_max":700,"o":"m 347 846 l 514 846 l 514 953 l 594 964 l 594 846 l 700 846 l 700 783 l 594 783 l 594 0 l 521 0 l 517 64 q 406 6 465 25 q 289 -14 346 -14 q 143 34 189 -14 q 97 174 97 82 l 97 482 q 108 567 97 528 q 144 633 119 606 q 209 675 169 660 q 306 690 249 690 q 407 685 358 690 q 514 668 456 679 l 514 783 l 347 783 l 347 846 m 514 594 q 303 618 400 618 q 207 585 236 618 q 178 482 178 551 l 178 174 q 201 87 178 115 q 294 58 225 58 q 411 82 357 58 q 514 144 465 106 l 514 594 z "},"Ē":{"ha":744,"x_min":125,"x_max":647,"o":"m 125 925 l 646 925 l 646 851 l 207 851 l 207 508 l 615 508 l 615 435 l 207 435 l 207 74 l 647 74 l 647 0 l 125 0 l 125 925 m 240 1089 l 568 1089 l 568 1026 l 240 1026 l 240 1089 z "},"ē":{"ha":665,"x_min":83,"x_max":582,"o":"m 164 229 q 172 151 164 183 q 201 97 181 118 q 256 67 222 76 q 340 57 290 57 q 449 66 393 57 q 554 89 504 75 l 568 24 q 459 -3 521 7 q 335 -14 397 -14 q 215 3 264 -14 q 138 53 167 21 q 96 131 108 86 q 83 232 83 176 l 83 444 q 96 541 83 496 q 138 619 108 586 q 217 672 168 653 q 336 690 265 690 q 455 672 407 690 q 531 619 503 653 q 570 541 558 586 q 582 444 582 496 l 582 296 l 164 296 l 164 229 m 164 367 l 503 367 l 503 450 q 467 579 503 535 q 336 624 431 624 q 202 580 240 624 q 164 450 164 536 l 164 367 m 182 853 l 510 853 l 510 786 l 182 786 l 182 853 z "},"Ĕ":{"ha":744,"x_min":125,"x_max":647,"o":"m 125 925 l 646 925 l 646 851 l 207 851 l 207 508 l 615 508 l 615 435 l 207 435 l 207 74 l 647 74 l 647 0 l 125 0 l 125 925 m 574 1089 q 547 1056 563 1072 q 509 1026 531 1039 q 461 1003 488 1013 q 403 994 435 994 q 344 1003 371 994 q 297 1026 318 1013 q 259 1056 275 1039 q 232 1089 243 1072 l 278 1131 q 333 1078 301 1099 q 403 1057 364 1057 q 473 1078 442 1057 q 528 1131 504 1099 l 574 1089 z "},"ĕ":{"ha":665,"x_min":83,"x_max":582,"o":"m 164 229 q 172 151 164 183 q 201 97 181 118 q 256 67 222 76 q 340 57 290 57 q 449 66 393 57 q 554 89 504 75 l 568 24 q 459 -3 521 7 q 335 -14 397 -14 q 215 3 264 -14 q 138 53 167 21 q 96 131 108 86 q 83 232 83 176 l 83 444 q 96 541 83 496 q 138 619 108 586 q 217 672 168 653 q 336 690 265 690 q 455 672 407 690 q 531 619 503 653 q 570 541 558 586 q 582 444 582 496 l 582 296 l 164 296 l 164 229 m 164 367 l 503 367 l 503 450 q 467 579 503 535 q 336 624 431 624 q 202 580 240 624 q 164 450 164 536 l 164 367 m 524 849 q 497 815 513 832 q 459 785 481 799 q 411 763 438 772 q 353 754 385 754 q 294 763 321 754 q 247 785 268 772 q 209 815 225 799 q 182 849 193 832 l 228 890 q 283 838 251 858 q 353 817 314 817 q 423 838 392 817 q 478 890 454 858 l 524 849 z "},"Ė":{"ha":744,"x_min":125,"x_max":647,"o":"m 125 925 l 646 925 l 646 851 l 207 851 l 207 508 l 615 508 l 615 435 l 207 435 l 207 74 l 647 74 l 647 0 l 125 0 l 125 925 m 360 1008 l 360 1157 l 440 1157 l 440 1008 l 360 1008 z "},"ė":{"ha":665,"x_min":83,"x_max":582,"o":"m 164 229 q 172 151 164 183 q 201 97 181 118 q 256 67 222 76 q 340 57 290 57 q 449 66 393 57 q 554 89 504 75 l 568 24 q 459 -3 521 7 q 335 -14 397 -14 q 215 3 264 -14 q 138 53 167 21 q 96 131 108 86 q 83 232 83 176 l 83 444 q 96 541 83 496 q 138 619 108 586 q 217 672 168 653 q 336 690 265 690 q 455 672 407 690 q 531 619 503 653 q 570 541 558 586 q 582 444 582 496 l 582 296 l 164 296 l 164 229 m 164 367 l 503 367 l 503 450 q 467 579 503 535 q 336 624 431 624 q 202 580 240 624 q 164 450 164 536 l 164 367 m 297 804 l 297 953 l 378 953 l 378 804 l 297 804 z "},"Ę":{"ha":744,"x_min":125,"x_max":647,"o":"m 125 925 l 646 925 l 646 851 l 207 851 l 207 508 l 615 508 l 615 435 l 207 435 l 207 74 l 647 74 l 647 0 l 582 0 q 485 -82 524 -40 q 446 -176 446 -124 q 458 -212 446 -197 q 503 -226 471 -226 q 534 -224 519 -226 q 565 -215 549 -222 l 582 -267 q 493 -287 544 -287 q 411 -262 447 -287 q 375 -182 375 -237 q 414 -78 375 -126 q 508 0 453 -29 l 125 0 l 125 925 z "},"ę":{"ha":665,"x_min":83,"x_max":582,"o":"m 164 229 q 172 151 164 183 q 201 97 181 118 q 256 67 222 76 q 340 57 290 57 q 458 66 403 57 q 554 89 514 75 l 568 24 q 478 -16 521 7 q 404 -65 436 -39 q 353 -119 372 -90 q 335 -176 335 -147 q 347 -212 335 -197 q 392 -226 360 -226 q 423 -224 408 -226 q 454 -215 438 -222 l 471 -267 q 382 -287 433 -287 q 300 -262 336 -287 q 264 -182 264 -237 q 278 -126 264 -151 q 315 -78 292 -100 q 366 -38 338 -56 q 422 -8 394 -21 q 378 -12 400 -11 q 335 -14 356 -14 q 215 3 264 -14 q 138 53 167 21 q 96 131 108 86 q 83 232 83 176 l 83 444 q 96 541 83 496 q 138 619 108 586 q 217 672 168 653 q 336 690 265 690 q 455 672 407 690 q 531 619 503 653 q 570 541 558 586 q 582 444 582 496 l 582 296 l 164 296 l 164 229 m 164 367 l 503 367 l 503 447 l 503 464 q 463 583 500 542 q 336 624 426 624 q 202 580 240 624 q 164 450 164 536 l 164 367 z "},"Ě":{"ha":744,"x_min":125,"x_max":647,"o":"m 125 925 l 646 925 l 646 851 l 207 851 l 207 508 l 615 508 l 615 435 l 207 435 l 207 74 l 647 74 l 647 0 l 125 0 l 125 925 m 258 1168 q 338 1124 303 1144 q 407 1082 372 1103 q 476 1124 443 1103 q 556 1168 510 1144 l 585 1114 q 492 1057 533 1085 q 407 997 451 1029 q 315 1059 358 1031 q 228 1114 272 1088 l 258 1168 z "},"ě":{"ha":665,"x_min":83,"x_max":582,"o":"m 164 229 q 172 151 164 183 q 201 97 181 118 q 256 67 222 76 q 340 57 290 57 q 449 66 393 57 q 554 89 504 75 l 568 24 q 459 -3 521 7 q 335 -14 397 -14 q 215 3 264 -14 q 138 53 167 21 q 96 131 108 86 q 83 232 83 176 l 83 444 q 96 541 83 496 q 138 619 108 586 q 217 672 168 653 q 336 690 265 690 q 455 672 407 690 q 531 619 503 653 q 570 541 558 586 q 582 444 582 496 l 582 296 l 164 296 l 164 229 m 164 367 l 503 367 l 503 450 q 467 579 503 535 q 336 624 431 624 q 202 580 240 624 q 164 450 164 536 l 164 367 m 197 918 q 276 874 242 894 q 346 832 311 853 q 415 874 382 853 q 494 918 449 894 l 524 864 q 431 807 472 835 q 346 747 390 779 q 254 809 297 781 q 167 864 211 838 l 197 918 z "},"Ĝ":{"ha":793,"x_min":104,"x_max":682,"o":"m 186 257 q 196 169 186 206 q 231 108 206 132 q 298 72 256 83 q 406 60 340 60 q 503 65 449 60 q 600 81 557 69 l 600 408 l 682 408 l 682 25 q 542 -4 617 6 q 400 -14 468 -14 q 258 4 315 -14 q 167 56 201 22 q 119 140 133 90 q 104 256 104 190 l 104 669 q 120 785 104 735 q 173 869 136 835 q 268 922 210 904 q 411 939 326 939 q 542 932 471 939 q 665 914 613 925 l 657 843 q 535 859 599 853 q 413 865 472 865 q 304 854 347 865 q 235 819 261 843 q 197 758 208 796 q 186 668 186 721 l 186 257 m 246 1049 q 331 1103 290 1076 q 419 1163 371 1129 q 501 1105 463 1131 q 592 1049 539 1079 l 563 994 q 484 1038 514 1021 q 419 1078 454 1056 q 353 1038 385 1057 q 276 994 321 1018 l 246 1049 z "},"ĝ":{"ha":713,"x_min":90,"x_max":650,"o":"m 610 444 q 547 268 610 329 q 350 207 485 207 q 260 215 301 207 q 219 171 232 192 q 207 126 207 150 q 220 94 207 107 q 268 78 233 81 q 322 74 300 75 q 363 70 343 72 q 406 67 383 68 q 463 63 429 65 q 593 14 556 56 q 631 -99 631 -28 q 616 -187 631 -151 q 568 -246 601 -224 q 479 -278 535 -268 q 342 -287 424 -287 q 288 -285 318 -287 q 226 -279 258 -283 q 163 -269 194 -275 q 104 -254 131 -262 l 117 -190 q 228 -210 167 -201 q 344 -218 290 -218 q 453 -211 413 -218 q 517 -190 494 -204 q 545 -153 539 -175 q 551 -103 551 -132 q 528 -31 551 -53 q 443 -4 504 -8 q 391 -1 411 -3 q 353 1 371 0 q 314 4 335 3 q 260 8 293 6 q 156 49 185 15 q 126 128 126 83 q 140 185 126 156 q 190 242 154 214 q 90 444 90 299 l 90 453 q 104 554 90 510 q 149 628 118 599 q 228 674 179 658 q 350 690 278 690 q 464 676 418 690 l 650 676 l 650 618 l 565 611 q 610 453 610 554 l 610 444 m 532 456 q 492 584 532 547 q 350 621 451 621 q 208 585 249 621 q 168 456 168 549 l 168 442 q 213 311 168 346 q 350 276 257 276 q 488 313 443 276 q 532 442 532 350 l 532 456 m 183 814 q 271 869 228 840 q 363 931 314 897 q 448 871 407 899 q 540 814 489 843 l 511 760 q 432 804 465 783 q 363 846 399 825 q 293 804 328 825 q 214 760 258 783 l 183 814 z "},"Ğ":{"ha":793,"x_min":104,"x_max":682,"o":"m 186 257 q 196 169 186 206 q 231 108 206 132 q 298 72 256 83 q 406 60 340 60 q 503 65 449 60 q 600 81 557 69 l 600 408 l 682 408 l 682 25 q 542 -4 617 6 q 400 -14 468 -14 q 258 4 315 -14 q 167 56 201 22 q 119 140 133 90 q 104 256 104 190 l 104 669 q 120 785 104 735 q 173 869 136 835 q 268 922 210 904 q 411 939 326 939 q 542 932 471 939 q 665 914 613 925 l 657 843 q 535 859 599 853 q 413 865 472 865 q 304 854 347 865 q 235 819 261 843 q 197 758 208 796 q 186 668 186 721 l 186 257 m 596 1089 q 569 1056 585 1072 q 531 1026 553 1039 q 483 1003 510 1013 q 425 994 457 994 q 367 1003 393 994 q 319 1026 340 1013 q 281 1056 297 1039 q 254 1089 265 1072 l 300 1131 q 355 1078 324 1099 q 425 1057 386 1057 q 495 1078 464 1057 q 550 1131 526 1099 l 596 1089 z "},"ğ":{"ha":713,"x_min":90,"x_max":650,"o":"m 610 444 q 547 268 610 329 q 350 207 485 207 q 260 215 301 207 q 219 171 232 192 q 207 126 207 150 q 220 94 207 107 q 268 78 233 81 q 322 74 300 75 q 363 70 343 72 q 406 67 383 68 q 463 63 429 65 q 593 14 556 56 q 631 -99 631 -28 q 616 -187 631 -151 q 568 -246 601 -224 q 479 -278 535 -268 q 342 -287 424 -287 q 288 -285 318 -287 q 226 -279 258 -283 q 163 -269 194 -275 q 104 -254 131 -262 l 117 -190 q 228 -210 167 -201 q 344 -218 290 -218 q 453 -211 413 -218 q 517 -190 494 -204 q 545 -153 539 -175 q 551 -103 551 -132 q 528 -31 551 -53 q 443 -4 504 -8 q 391 -1 411 -3 q 353 1 371 0 q 314 4 335 3 q 260 8 293 6 q 156 49 185 15 q 126 128 126 83 q 140 185 126 156 q 190 242 154 214 q 90 444 90 299 l 90 453 q 104 554 90 510 q 149 628 118 599 q 228 674 179 658 q 350 690 278 690 q 464 676 418 690 l 650 676 l 650 618 l 565 611 q 610 453 610 554 l 610 444 m 532 456 q 492 584 532 547 q 350 621 451 621 q 208 585 249 621 q 168 456 168 549 l 168 442 q 213 311 168 346 q 350 276 257 276 q 488 313 443 276 q 532 442 532 350 l 532 456 m 532 849 q 505 815 521 832 q 467 785 489 799 q 419 763 446 772 q 361 754 393 754 q 303 763 329 754 q 255 785 276 772 q 217 815 233 799 q 190 849 201 832 l 236 890 q 291 838 260 858 q 361 817 322 817 q 431 838 400 817 q 486 890 463 858 l 532 849 z "},"Ġ":{"ha":793,"x_min":104,"x_max":682,"o":"m 186 257 q 196 169 186 206 q 231 108 206 132 q 298 72 256 83 q 406 60 340 60 q 503 65 449 60 q 600 81 557 69 l 600 408 l 682 408 l 682 25 q 542 -4 617 6 q 400 -14 468 -14 q 258 4 315 -14 q 167 56 201 22 q 119 140 133 90 q 104 256 104 190 l 104 669 q 120 785 104 735 q 173 869 136 835 q 268 922 210 904 q 411 939 326 939 q 542 932 471 939 q 665 914 613 925 l 657 843 q 535 859 599 853 q 413 865 472 865 q 304 854 347 865 q 235 819 261 843 q 197 758 208 796 q 186 668 186 721 l 186 257 m 383 1008 l 383 1157 l 464 1157 l 464 1008 l 383 1008 z "},"ġ":{"ha":713,"x_min":90,"x_max":650,"o":"m 610 444 q 547 268 610 329 q 350 207 485 207 q 260 215 301 207 q 219 171 232 192 q 207 126 207 150 q 220 94 207 107 q 268 78 233 81 q 322 74 300 75 q 363 70 343 72 q 406 67 383 68 q 463 63 429 65 q 593 14 556 56 q 631 -99 631 -28 q 616 -187 631 -151 q 568 -246 601 -224 q 479 -278 535 -268 q 342 -287 424 -287 q 288 -285 318 -287 q 226 -279 258 -283 q 163 -269 194 -275 q 104 -254 131 -262 l 117 -190 q 228 -210 167 -201 q 344 -218 290 -218 q 453 -211 413 -218 q 517 -190 494 -204 q 545 -153 539 -175 q 551 -103 551 -132 q 528 -31 551 -53 q 443 -4 504 -8 q 391 -1 411 -3 q 353 1 371 0 q 314 4 335 3 q 260 8 293 6 q 156 49 185 15 q 126 128 126 83 q 140 185 126 156 q 190 242 154 214 q 90 444 90 299 l 90 453 q 104 554 90 510 q 149 628 118 599 q 228 674 179 658 q 350 690 278 690 q 464 676 418 690 l 650 676 l 650 618 l 565 611 q 610 453 610 554 l 610 444 m 532 456 q 492 584 532 547 q 350 621 451 621 q 208 585 249 621 q 168 456 168 549 l 168 442 q 213 311 168 346 q 350 276 257 276 q 488 313 443 276 q 532 442 532 350 l 532 456 m 317 804 l 317 953 l 397 953 l 397 804 l 317 804 z "},"Ģ":{"ha":793,"x_min":104,"x_max":682,"o":"m 186 257 q 196 169 186 206 q 231 108 206 132 q 298 72 256 83 q 406 60 340 60 q 503 65 449 60 q 600 81 557 69 l 600 408 l 682 408 l 682 25 q 542 -4 617 6 q 400 -14 468 -14 q 258 4 315 -14 q 167 56 201 22 q 119 140 133 90 q 104 256 104 190 l 104 669 q 120 785 104 735 q 173 869 136 835 q 268 922 210 904 q 411 939 326 939 q 542 932 471 939 q 665 914 613 925 l 657 843 q 535 859 599 853 q 413 865 472 865 q 304 854 347 865 q 235 819 261 843 q 197 758 208 796 q 186 668 186 721 l 186 257 m 369 -79 l 456 -79 l 456 -199 l 389 -349 l 350 -332 l 400 -199 l 369 -199 l 369 -79 z "},"ģ":{"ha":713,"x_min":90,"x_max":650,"o":"m 389 754 l 303 754 l 303 874 l 369 1024 l 408 1007 l 358 874 l 389 874 l 389 754 m 610 444 q 547 268 610 329 q 350 207 485 207 q 260 215 301 207 q 219 171 232 192 q 207 126 207 150 q 220 94 207 107 q 268 78 233 81 q 322 74 300 75 q 363 70 343 72 q 406 67 383 68 q 463 63 429 65 q 593 14 556 56 q 631 -99 631 -28 q 616 -187 631 -151 q 568 -246 601 -224 q 479 -278 535 -268 q 342 -287 424 -287 q 288 -285 318 -287 q 226 -279 258 -283 q 163 -269 194 -275 q 104 -254 131 -262 l 117 -190 q 228 -210 167 -201 q 344 -218 290 -218 q 453 -211 413 -218 q 517 -190 494 -204 q 545 -153 539 -175 q 551 -103 551 -132 q 528 -31 551 -53 q 443 -4 504 -8 q 391 -1 411 -3 q 353 1 371 0 q 314 4 335 3 q 260 8 293 6 q 156 49 185 15 q 126 128 126 83 q 140 185 126 156 q 190 242 154 214 q 90 444 90 299 l 90 453 q 104 554 90 510 q 149 628 118 599 q 228 674 179 658 q 350 690 278 690 q 464 676 418 690 l 650 676 l 650 618 l 565 611 q 610 453 610 554 l 610 444 m 532 456 q 492 584 532 547 q 350 621 451 621 q 208 585 249 621 q 168 456 168 549 l 168 442 q 213 311 168 346 q 350 276 257 276 q 488 313 443 276 q 532 442 532 350 l 532 456 z "},"Ĥ":{"ha":861,"x_min":125,"x_max":736,"o":"m 654 0 l 654 439 l 207 439 l 207 0 l 125 0 l 125 925 l 207 925 l 207 513 l 654 513 l 654 925 l 736 925 l 736 0 l 654 0 m 258 1049 q 343 1103 303 1076 q 432 1163 383 1129 q 513 1105 475 1131 q 604 1049 551 1079 l 575 994 q 497 1038 526 1021 q 432 1078 467 1056 q 365 1038 397 1057 q 289 994 333 1018 l 258 1049 z "},"ĥ":{"ha":724,"x_min":-8,"x_max":613,"o":"m 532 0 l 532 547 q 513 600 532 585 q 458 615 494 615 q 406 609 438 615 q 340 592 375 603 q 267 568 304 582 q 199 538 231 554 l 199 0 l 118 0 l 118 953 l 199 964 l 199 617 q 260 642 225 629 q 331 666 294 656 q 403 683 367 676 q 469 690 439 690 q 581 649 549 690 q 613 538 613 608 l 613 0 l 532 0 m -8 1090 q 76 1144 36 1118 q 165 1204 117 1171 q 247 1147 208 1172 q 338 1090 285 1121 l 308 1036 q 230 1080 260 1063 q 165 1119 200 1097 q 99 1079 131 1099 q 22 1036 67 1060 l -8 1090 z "},"Ħ":{"ha":1100,"x_min":132,"x_max":968,"o":"m 132 783 l 244 783 l 244 925 l 326 925 l 326 783 l 774 783 l 774 925 l 856 925 l 856 783 l 968 783 l 968 722 l 856 722 l 856 0 l 774 0 l 774 439 l 326 439 l 326 0 l 244 0 l 244 722 l 132 722 l 132 783 m 774 513 l 774 722 l 326 722 l 326 513 l 774 513 z "},"ħ":{"ha":724,"x_min":31,"x_max":613,"o":"m 31 838 l 118 838 l 118 953 l 199 964 l 199 838 l 376 838 l 376 775 l 199 775 l 199 617 q 260 642 225 629 q 331 666 294 656 q 403 683 367 676 q 469 690 439 690 q 581 649 549 690 q 613 538 613 608 l 613 0 l 532 0 l 532 547 q 513 600 532 585 q 458 615 494 615 q 406 609 438 615 q 340 592 375 603 q 267 568 304 582 q 199 538 231 554 l 199 0 l 118 0 l 118 775 l 31 775 l 31 838 z "},"Ĩ":{"ha":346,"x_min":-7,"x_max":368,"o":"m 214 0 l 132 0 l 132 925 l 214 925 l 214 0 m 182 1029 q 141 1047 158 1040 q 104 1054 124 1054 q 64 1044 81 1054 q 29 1015 47 1033 l -7 1056 q 43 1103 13 1083 q 107 1124 74 1124 q 142 1118 126 1124 q 182 1101 158 1113 q 227 1083 210 1089 q 261 1076 244 1076 q 328 1111 297 1076 l 368 1075 q 322 1026 350 1046 q 261 1007 294 1007 q 226 1012 243 1007 q 182 1029 210 1017 z "},"ĩ":{"ha":317,"x_min":-21,"x_max":354,"o":"m 118 0 l 118 676 l 199 676 l 199 0 l 118 0 m 168 789 q 127 807 144 800 q 90 814 110 814 q 50 803 67 814 q 15 775 33 793 l -21 815 q 29 863 -1 843 q 93 883 60 883 q 128 878 113 883 q 168 861 144 872 q 213 842 196 849 q 247 836 231 836 q 314 871 283 836 l 354 835 q 308 786 336 806 q 247 767 281 767 q 213 772 229 767 q 168 789 196 776 z "},"Ī":{"ha":346,"x_min":8,"x_max":336,"o":"m 214 0 l 132 0 l 132 925 l 214 925 l 214 0 m 8 1089 l 336 1089 l 336 1026 l 8 1026 l 8 1089 z "},"ī":{"ha":317,"x_min":-6,"x_max":322,"o":"m 118 0 l 118 676 l 199 676 l 199 0 l 118 0 m -6 853 l 322 853 l 322 786 l -6 786 l -6 853 z "},"Ĭ":{"ha":346,"x_min":1,"x_max":343,"o":"m 214 0 l 132 0 l 132 925 l 214 925 l 214 0 m 343 1089 q 316 1056 332 1072 q 278 1026 300 1039 q 231 1003 257 1013 q 172 994 204 994 q 114 1003 140 994 q 66 1026 88 1013 q 28 1056 44 1039 q 1 1089 13 1072 l 47 1131 q 102 1078 71 1099 q 172 1057 133 1057 q 242 1078 211 1057 q 297 1131 274 1099 l 343 1089 z "},"ĭ":{"ha":317,"x_min":-12,"x_max":329,"o":"m 118 0 l 118 676 l 199 676 l 199 0 l 118 0 m 329 849 q 302 815 318 832 q 265 785 286 799 q 217 763 243 772 q 158 754 190 754 q 100 763 126 754 q 52 785 74 772 q 15 815 31 799 q -12 849 -1 832 l 33 890 q 88 838 57 858 q 158 817 119 817 q 228 838 197 817 q 283 890 260 858 l 329 849 z "},"Į":{"ha":346,"x_min":46,"x_max":251,"o":"m 251 -267 q 163 -287 214 -287 q 73 -257 100 -287 q 46 -178 46 -226 q 73 -76 46 -121 q 132 0 100 -32 l 132 925 l 214 925 l 214 0 q 143 -86 169 -43 q 117 -176 117 -129 q 128 -212 117 -197 q 172 -226 140 -226 q 203 -224 189 -226 q 235 -215 218 -222 l 251 -267 l 251 -267 z "},"į":{"ha":317,"x_min":31,"x_max":236,"o":"m 199 676 l 199 0 q 128 -86 154 -43 q 101 -176 101 -129 q 113 -212 101 -197 q 157 -226 125 -226 q 188 -224 174 -226 q 219 -215 203 -222 l 236 -267 q 147 -287 199 -287 q 58 -257 85 -287 q 31 -178 31 -226 q 58 -76 31 -121 q 118 0 86 -32 l 118 676 l 199 676 m 118 804 l 118 953 l 199 953 l 199 804 l 118 804 z "},"İ":{"ha":346,"x_min":132,"x_max":214,"o":"m 214 0 l 132 0 l 132 925 l 214 925 l 214 0 m 132 1008 l 132 1157 l 213 1157 l 213 1008 l 132 1008 z "},"ı":{"ha":317,"x_min":118,"x_max":199,"o":"m 118 0 l 118 676 l 199 676 l 199 0 l 118 0 z "},"Ĳ":{"ha":671,"x_min":132,"x_max":553,"o":"m 214 0 l 132 0 l 132 925 l 214 925 l 214 0 m 553 925 l 553 8 q 549 -62 553 -35 q 529 -115 546 -89 q 479 -176 513 -142 q 386 -268 446 -210 l 332 -210 q 411 -131 383 -160 q 452 -81 439 -101 q 468 -44 465 -61 q 471 0 471 -26 l 471 925 l 553 925 z "},"ĳ":{"ha":626,"x_min":118,"x_max":515,"o":"m 118 0 l 118 676 l 199 676 l 199 0 l 118 0 m 118 804 l 118 953 l 199 953 l 199 804 l 118 804 m 515 676 l 515 -49 q 510 -111 515 -86 q 489 -160 506 -136 q 441 -212 472 -183 q 358 -287 410 -240 l 306 -229 q 374 -167 349 -190 q 413 -124 400 -143 q 431 -86 426 -106 q 435 -36 435 -67 l 435 676 l 515 676 m 435 804 l 435 953 l 515 953 l 515 804 l 435 804 z "},"Ĵ":{"ha":325,"x_min":-14,"x_max":343,"o":"m 207 925 l 207 8 q 203 -62 207 -35 q 183 -115 200 -89 q 133 -176 167 -142 q 40 -268 100 -210 l -14 -210 q 65 -131 38 -160 q 106 -81 93 -101 q 122 -44 119 -61 q 125 0 125 -26 l 125 925 l 207 925 m -3 1049 q 82 1103 42 1076 q 171 1163 122 1129 q 252 1105 214 1131 q 343 1049 290 1079 l 314 994 q 235 1038 265 1021 q 171 1078 206 1056 q 104 1038 136 1057 q 28 994 72 1018 l -3 1049 z "},"ĵ":{"ha":310,"x_min":-17,"x_max":340,"o":"m 199 676 l 199 -49 q 194 -111 199 -86 q 172 -160 189 -136 q 124 -212 156 -183 q 42 -287 93 -240 l -11 -229 q 58 -167 32 -190 q 97 -124 83 -143 q 114 -86 110 -106 q 118 -36 118 -67 l 118 676 l 199 676 m -17 814 q 71 869 28 840 q 163 931 114 897 q 248 871 207 899 q 340 814 289 843 l 311 760 q 232 804 265 783 q 163 846 199 825 q 93 804 128 825 q 14 760 58 783 l -17 814 z "},"Ķ":{"ha":790,"x_min":125,"x_max":735,"o":"m 207 0 l 125 0 l 125 925 l 207 925 l 207 0 m 338 471 l 735 0 l 632 0 l 239 471 l 607 925 l 708 925 l 338 471 m 361 -79 l 447 -79 l 447 -199 l 381 -349 l 342 -332 l 392 -199 l 361 -199 l 361 -79 z "},"ķ":{"ha":654,"x_min":118,"x_max":613,"o":"m 118 0 l 118 953 l 199 964 l 199 0 l 118 0 m 601 676 l 332 343 l 613 0 l 510 0 l 235 343 l 501 676 l 601 676 m 296 -79 l 382 -79 l 382 -199 l 315 -349 l 276 -332 l 326 -199 l 296 -199 l 296 -79 z "},"ĸ":{"ha":654,"x_min":118,"x_max":613,"o":"m 118 0 l 118 676 l 199 676 l 199 0 l 118 0 m 601 676 l 332 343 l 613 0 l 510 0 l 235 343 l 501 676 l 601 676 z "},"Ĺ":{"ha":686,"x_min":125,"x_max":624,"o":"m 207 74 l 624 74 l 624 0 l 125 0 l 125 925 l 207 925 l 207 74 m 135 1051 q 218 1103 176 1076 q 304 1163 260 1131 l 344 1101 q 260 1046 304 1074 q 172 994 217 1018 l 135 1051 z "},"ĺ":{"ha":317,"x_min":108,"x_max":318,"o":"m 118 0 l 118 953 l 199 964 l 199 0 l 118 0 m 108 1090 q 192 1142 150 1115 q 278 1201 233 1169 l 318 1140 q 234 1085 278 1113 q 146 1033 190 1057 l 108 1090 z "},"Ļ":{"ha":686,"x_min":125,"x_max":624,"o":"m 207 74 l 624 74 l 624 0 l 125 0 l 125 925 l 207 925 l 207 74 m 349 -79 l 435 -79 l 435 -199 l 368 -349 l 329 -332 l 379 -199 l 349 -199 l 349 -79 z "},"ļ":{"ha":317,"x_min":97,"x_max":203,"o":"m 118 0 l 118 953 l 199 964 l 199 0 l 118 0 m 117 -79 l 203 -79 l 203 -199 l 136 -349 l 97 -332 l 147 -199 l 117 -199 l 117 -79 z "},"Ľ":{"ha":686,"x_min":125,"x_max":624,"o":"m 207 74 l 624 74 l 624 0 l 125 0 l 125 925 l 207 925 l 207 74 m 443 953 l 529 953 l 529 833 l 463 683 l 424 700 l 474 833 l 443 833 l 443 953 z "},"ľ":{"ha":444,"x_min":118,"x_max":431,"o":"m 118 0 l 118 953 l 199 964 l 199 0 l 118 0 m 344 953 l 431 953 l 431 833 l 364 683 l 325 700 l 375 833 l 344 833 l 344 953 z "},"Ŀ":{"ha":686,"x_min":125,"x_max":624,"o":"m 207 74 l 624 74 l 624 0 l 125 0 l 125 925 l 207 925 l 207 74 m 388 547 l 474 547 l 474 428 l 388 428 l 388 547 z "},"ŀ":{"ha":478,"x_min":118,"x_max":422,"o":"m 118 0 l 118 953 l 199 964 l 199 0 l 118 0 m 336 439 l 422 439 l 422 319 l 336 319 l 336 439 z "},"Ł":{"ha":724,"x_min":42,"x_max":661,"o":"m 42 415 l 163 481 l 163 925 l 244 925 l 244 526 l 447 638 l 482 575 l 244 444 l 244 74 l 661 74 l 661 0 l 163 0 l 163 400 l 76 353 l 42 415 z "},"ł":{"ha":440,"x_min":49,"x_max":392,"o":"m 49 415 l 169 481 l 169 953 l 250 964 l 250 525 l 357 583 l 392 521 l 250 443 l 250 0 l 169 0 l 169 400 l 83 353 l 49 415 z "},"Ń":{"ha":886,"x_min":125,"x_max":761,"o":"m 203 844 l 203 0 l 125 0 l 125 925 l 244 925 l 683 79 l 683 925 l 761 925 l 761 0 l 642 0 l 203 844 m 396 1051 q 479 1103 438 1076 q 565 1163 521 1131 l 606 1101 q 522 1046 565 1074 q 433 994 478 1018 l 396 1051 z "},"ń":{"ha":724,"x_min":118,"x_max":613,"o":"m 532 0 l 532 547 q 513 600 532 585 q 458 615 494 615 q 406 609 438 615 q 340 592 375 603 q 267 568 304 582 q 199 538 231 554 l 199 0 l 118 0 l 118 676 l 189 676 l 194 615 q 256 642 221 628 q 328 666 292 656 q 402 683 365 676 q 469 690 439 690 q 581 649 549 690 q 613 538 613 608 l 613 0 l 532 0 m 285 815 q 374 872 326 842 q 467 935 421 903 l 507 874 q 414 812 463 842 q 322 758 365 782 l 285 815 z "},"Ņ":{"ha":886,"x_min":125,"x_max":761,"o":"m 203 844 l 203 0 l 125 0 l 125 925 l 244 925 l 683 79 l 683 925 l 761 925 l 761 0 l 642 0 l 203 844 m 390 -79 l 476 -79 l 476 -199 l 410 -349 l 371 -332 l 421 -199 l 390 -199 l 390 -79 z "},"ņ":{"ha":724,"x_min":118,"x_max":613,"o":"m 532 0 l 532 547 q 513 600 532 585 q 458 615 494 615 q 406 609 438 615 q 340 592 375 603 q 267 568 304 582 q 199 538 231 554 l 199 0 l 118 0 l 118 676 l 189 676 l 194 615 q 256 642 221 628 q 328 666 292 656 q 402 683 365 676 q 469 690 439 690 q 581 649 549 690 q 613 538 613 608 l 613 0 l 532 0 m 329 -79 l 415 -79 l 415 -199 l 349 -349 l 310 -332 l 360 -199 l 329 -199 l 329 -79 z "},"Ň":{"ha":886,"x_min":125,"x_max":761,"o":"m 203 844 l 203 0 l 125 0 l 125 925 l 244 925 l 683 79 l 683 925 l 761 925 l 761 0 l 642 0 l 203 844 m 299 1168 q 378 1124 343 1144 q 447 1082 413 1103 q 517 1124 483 1103 q 596 1168 550 1144 l 625 1114 q 533 1057 574 1085 q 447 997 492 1029 q 356 1059 399 1031 q 268 1114 313 1088 l 299 1168 z "},"ň":{"ha":724,"x_min":118,"x_max":613,"o":"m 532 0 l 532 547 q 513 600 532 585 q 458 615 494 615 q 406 609 438 615 q 340 592 375 603 q 267 568 304 582 q 199 538 231 554 l 199 0 l 118 0 l 118 676 l 189 676 l 194 615 q 256 642 221 628 q 328 666 292 656 q 402 683 365 676 q 469 690 439 690 q 581 649 549 690 q 613 538 613 608 l 613 0 l 532 0 m 226 918 q 306 874 271 894 q 375 832 340 853 q 444 874 411 853 q 524 918 478 894 l 553 864 q 460 807 501 835 q 375 747 419 779 q 283 809 326 781 q 196 864 240 838 l 226 918 z "},"Ŋ":{"ha":886,"x_min":125,"x_max":761,"o":"m 203 844 l 203 0 l 125 0 l 125 925 l 244 925 l 683 79 l 683 925 l 761 925 l 761 -49 q 756 -111 761 -86 q 735 -160 751 -136 q 687 -212 718 -183 q 604 -287 656 -240 l 551 -229 q 620 -167 594 -190 q 659 -124 646 -143 q 676 -86 672 -106 q 681 -36 681 -67 l 681 0 l 642 0 l 203 844 z "},"ŋ":{"ha":724,"x_min":118,"x_max":613,"o":"m 532 547 q 513 600 532 585 q 458 615 494 615 q 406 609 438 615 q 340 592 375 603 q 267 568 304 582 q 199 538 231 554 l 199 0 l 118 0 l 118 676 l 189 676 l 194 615 q 256 642 221 628 q 328 666 292 656 q 402 683 365 676 q 469 690 439 690 q 581 649 549 690 q 613 538 613 608 l 613 -49 q 608 -111 613 -86 q 586 -160 603 -136 q 538 -212 569 -183 q 456 -287 507 -240 l 403 -229 q 472 -167 446 -190 q 510 -124 497 -143 q 528 -86 524 -106 q 532 -36 532 -67 l 532 547 l 532 547 z "},"Ō":{"ha":856,"x_min":104,"x_max":751,"o":"m 751 261 q 734 151 751 201 q 678 65 717 101 q 578 7 640 28 q 428 -14 517 -14 q 277 7 339 -14 q 177 65 215 28 q 122 151 139 101 q 104 261 104 201 l 104 664 q 122 774 104 724 q 177 860 139 824 q 277 918 215 897 q 428 939 339 939 q 578 918 517 939 q 678 860 640 897 q 734 774 717 824 q 751 664 751 724 l 751 261 m 428 60 q 615 113 561 60 q 669 264 669 165 l 669 661 q 615 813 669 760 q 428 865 561 865 q 240 813 294 865 q 186 661 186 760 l 186 264 q 240 113 186 165 q 428 60 294 60 m 264 1089 l 592 1089 l 592 1026 l 264 1026 l 264 1089 z "},"ō":{"ha":692,"x_min":83,"x_max":608,"o":"m 608 232 q 594 135 608 179 q 548 57 579 90 q 467 5 517 24 q 346 -14 417 -14 q 225 5 275 -14 q 144 57 175 24 q 98 135 113 90 q 83 232 83 179 l 83 444 q 98 541 83 496 q 144 619 113 586 q 225 672 175 653 q 346 690 275 690 q 467 672 417 690 q 548 619 517 653 q 594 541 579 586 q 608 444 608 496 l 608 232 m 528 447 q 485 576 528 533 q 346 618 442 618 q 207 576 250 618 q 164 447 164 533 l 164 229 q 207 101 164 143 q 346 58 250 58 q 485 101 442 58 q 528 229 528 143 l 528 447 m 183 853 l 511 853 l 511 786 l 183 786 l 183 853 z "},"Ŏ":{"ha":856,"x_min":104,"x_max":751,"o":"m 751 261 q 734 151 751 201 q 678 65 717 101 q 578 7 640 28 q 428 -14 517 -14 q 277 7 339 -14 q 177 65 215 28 q 122 151 139 101 q 104 261 104 201 l 104 664 q 122 774 104 724 q 177 860 139 824 q 277 918 215 897 q 428 939 339 939 q 578 918 517 939 q 678 860 640 897 q 734 774 717 824 q 751 664 751 724 l 751 261 m 428 60 q 615 113 561 60 q 669 264 669 165 l 669 661 q 615 813 669 760 q 428 865 561 865 q 240 813 294 865 q 186 661 186 760 l 186 264 q 240 113 186 165 q 428 60 294 60 m 599 1089 q 572 1056 588 1072 q 534 1026 556 1039 q 486 1003 513 1013 q 428 994 460 994 q 369 1003 396 994 q 322 1026 343 1013 q 284 1056 300 1039 q 257 1089 268 1072 l 303 1131 q 358 1078 326 1099 q 428 1057 389 1057 q 498 1078 467 1057 q 553 1131 529 1099 l 599 1089 z "},"ŏ":{"ha":692,"x_min":83,"x_max":608,"o":"m 608 232 q 594 135 608 179 q 548 57 579 90 q 467 5 517 24 q 346 -14 417 -14 q 225 5 275 -14 q 144 57 175 24 q 98 135 113 90 q 83 232 83 179 l 83 444 q 98 541 83 496 q 144 619 113 586 q 225 672 175 653 q 346 690 275 690 q 467 672 417 690 q 548 619 517 653 q 594 541 579 586 q 608 444 608 496 l 608 232 m 528 447 q 485 576 528 533 q 346 618 442 618 q 207 576 250 618 q 164 447 164 533 l 164 229 q 207 101 164 143 q 346 58 250 58 q 485 101 442 58 q 528 229 528 143 l 528 447 m 518 849 q 491 815 507 832 q 453 785 475 799 q 406 763 432 772 q 347 754 379 754 q 289 763 315 754 q 241 785 263 772 q 203 815 219 799 q 176 849 188 832 l 222 890 q 277 838 246 858 q 347 817 308 817 q 417 838 386 817 q 472 890 449 858 l 518 849 z "},"Ő":{"ha":856,"x_min":104,"x_max":751,"o":"m 751 261 q 734 151 751 201 q 678 65 717 101 q 578 7 640 28 q 428 -14 517 -14 q 277 7 339 -14 q 177 65 215 28 q 122 151 139 101 q 104 261 104 201 l 104 664 q 122 774 104 724 q 177 860 139 824 q 277 918 215 897 q 428 939 339 939 q 578 918 517 939 q 678 860 640 897 q 734 774 717 824 q 751 664 751 724 l 751 261 m 428 60 q 615 113 561 60 q 669 264 669 165 l 669 661 q 615 813 669 760 q 428 865 561 865 q 240 813 294 865 q 186 661 186 760 l 186 264 q 240 113 186 165 q 428 60 294 60 m 278 1038 q 359 1106 317 1069 q 443 1179 401 1142 l 490 1124 q 406 1051 450 1086 q 322 986 363 1015 l 278 1038 m 485 1039 q 565 1106 522 1071 q 650 1181 608 1142 l 697 1125 q 613 1052 657 1088 q 529 986 569 1017 l 485 1039 z "},"ő":{"ha":692,"x_min":83,"x_max":610,"o":"m 608 232 q 594 135 608 179 q 548 57 579 90 q 467 5 517 24 q 346 -14 417 -14 q 225 5 275 -14 q 144 57 175 24 q 98 135 113 90 q 83 232 83 179 l 83 444 q 98 541 83 496 q 144 619 113 586 q 225 672 175 653 q 346 690 275 690 q 467 672 417 690 q 548 619 517 653 q 594 541 579 586 q 608 444 608 496 l 608 232 m 528 447 q 485 576 528 533 q 346 618 442 618 q 207 576 250 618 q 164 447 164 533 l 164 229 q 207 101 164 143 q 346 58 250 58 q 485 101 442 58 q 528 229 528 143 l 528 447 m 190 788 q 272 856 229 819 q 356 929 314 892 l 403 874 q 319 801 363 836 q 235 736 275 765 l 190 788 m 397 789 q 478 856 435 821 q 563 931 521 892 l 610 875 q 526 802 569 838 q 442 736 482 767 l 397 789 z "},"Œ":{"ha":1243,"x_min":104,"x_max":1146,"o":"m 428 0 q 277 21 339 0 q 177 78 215 42 q 122 165 139 115 q 104 275 104 215 l 104 650 q 122 760 104 710 q 177 847 139 810 q 277 904 215 883 q 428 925 339 925 l 1144 925 l 1144 851 l 706 851 l 706 522 l 1114 522 l 1114 449 l 706 449 l 706 74 l 1146 74 l 1146 0 l 428 0 m 624 74 l 624 851 l 428 851 q 240 799 294 851 q 186 647 186 746 l 186 278 q 240 126 186 179 q 428 74 294 74 l 624 74 z "},"œ":{"ha":1110,"x_min":83,"x_max":1026,"o":"m 608 221 q 647 94 608 131 q 779 57 686 57 q 830 59 801 57 q 889 65 858 61 q 948 74 919 69 q 999 85 976 79 l 1013 19 q 900 -5 964 4 q 779 -14 836 -14 q 642 13 696 -14 q 564 83 589 39 q 483 13 532 39 q 346 -14 433 -14 q 225 5 275 -14 q 144 57 175 24 q 98 135 113 90 q 83 232 83 179 l 83 444 q 98 541 83 496 q 144 619 113 586 q 225 672 175 653 q 346 690 275 690 q 481 663 429 690 q 567 590 533 636 q 646 663 594 636 q 781 690 697 690 q 899 672 851 690 q 975 619 947 653 q 1015 541 1003 586 q 1026 444 1026 496 l 1026 296 l 608 296 l 608 221 m 528 447 q 485 576 528 533 q 346 618 442 618 q 207 576 250 618 q 164 447 164 533 l 164 229 q 207 101 164 143 q 346 58 250 58 q 528 221 528 58 l 528 447 m 608 367 l 947 367 l 947 450 q 911 579 947 535 q 781 624 875 624 q 647 580 685 624 q 608 450 608 536 l 608 367 z "},"Ŕ":{"ha":860,"x_min":125,"x_max":804,"o":"m 471 356 l 453 356 l 207 356 l 207 0 l 125 0 l 125 925 l 453 925 q 571 910 522 925 q 649 867 619 894 q 693 799 679 839 q 707 711 707 760 l 707 569 q 673 440 707 493 q 557 367 639 386 l 804 0 l 711 0 l 471 356 m 625 711 q 583 819 625 788 q 454 851 542 851 l 207 851 l 207 429 l 454 429 q 583 461 542 429 q 625 569 625 493 l 625 711 m 333 1051 q 417 1103 375 1076 q 503 1163 458 1131 l 543 1101 q 459 1046 503 1074 q 371 994 415 1018 l 333 1051 z "},"ŕ":{"ha":433,"x_min":118,"x_max":413,"o":"m 413 611 q 303 553 360 588 q 199 486 247 518 l 199 0 l 118 0 l 118 676 l 190 676 l 194 574 q 301 641 249 610 q 403 690 354 672 l 413 611 m 136 815 q 225 872 178 842 q 318 935 272 903 l 358 874 q 265 812 314 842 q 174 758 217 782 l 136 815 z "},"Ŗ":{"ha":860,"x_min":125,"x_max":804,"o":"m 471 356 l 453 356 l 207 356 l 207 0 l 125 0 l 125 925 l 453 925 q 571 910 522 925 q 649 867 619 894 q 693 799 679 839 q 707 711 707 760 l 707 569 q 673 440 707 493 q 557 367 639 386 l 804 0 l 711 0 l 471 356 m 625 711 q 583 819 625 788 q 454 851 542 851 l 207 851 l 207 429 l 454 429 q 583 461 542 429 q 625 569 625 493 l 625 711 m 396 -79 l 482 -79 l 482 -199 l 415 -349 l 376 -332 l 426 -199 l 396 -199 l 396 -79 z "},"ŗ":{"ha":433,"x_min":94,"x_max":413,"o":"m 413 611 q 303 553 360 588 q 199 486 247 518 l 199 0 l 118 0 l 118 676 l 190 676 l 194 574 q 301 641 249 610 q 403 690 354 672 l 413 611 m 114 -79 l 200 -79 l 200 -199 l 133 -349 l 94 -332 l 144 -199 l 114 -199 l 114 -79 z "},"Ř":{"ha":860,"x_min":125,"x_max":804,"o":"m 471 356 l 453 356 l 207 356 l 207 0 l 125 0 l 125 925 l 453 925 q 571 910 522 925 q 649 867 619 894 q 693 799 679 839 q 707 711 707 760 l 707 569 q 673 440 707 493 q 557 367 639 386 l 804 0 l 711 0 l 471 356 m 625 711 q 583 819 625 788 q 454 851 542 851 l 207 851 l 207 429 l 454 429 q 583 461 542 429 q 625 569 625 493 l 625 711 m 261 1168 q 340 1124 306 1144 q 410 1082 375 1103 q 479 1124 446 1103 q 558 1168 513 1144 l 588 1114 q 495 1057 536 1085 q 410 997 454 1029 q 318 1059 361 1031 q 231 1114 275 1088 l 261 1168 z "},"ř":{"ha":433,"x_min":81,"x_max":438,"o":"m 414 611 q 305 553 361 588 q 200 486 249 518 l 200 0 l 119 0 l 119 676 l 192 676 l 196 574 q 303 641 250 610 q 404 690 356 672 l 414 611 m 111 918 q 190 874 156 894 q 260 832 225 853 q 329 874 296 853 q 408 918 363 894 l 438 864 q 345 807 386 835 q 260 747 304 779 q 168 809 211 781 q 81 864 125 838 l 111 918 z "},"Ś":{"ha":756,"x_min":104,"x_max":651,"o":"m 651 229 q 640 127 651 172 q 597 51 628 82 q 509 3 565 19 q 365 -14 453 -14 q 234 -3 304 -14 q 104 31 164 7 l 119 97 q 368 60 244 60 q 467 69 428 60 q 528 98 506 78 q 560 149 551 118 q 569 225 569 181 q 566 311 569 279 q 543 364 563 343 q 481 399 524 385 q 363 431 439 413 q 230 469 279 450 q 155 519 181 489 q 122 594 129 549 q 114 708 114 639 q 126 808 114 765 q 171 881 139 851 q 258 924 203 910 q 401 939 314 939 q 528 930 463 939 q 640 907 593 921 l 631 838 q 519 857 579 849 q 404 865 458 865 q 294 856 335 865 q 231 828 253 847 q 203 779 210 810 q 196 706 196 749 q 199 617 196 649 q 222 565 203 585 q 281 531 242 544 q 394 500 321 518 q 538 456 486 476 q 614 408 589 436 q 645 337 639 379 q 651 229 651 294 m 324 1051 q 407 1103 365 1076 q 493 1163 449 1131 l 533 1101 q 449 1046 493 1074 q 361 994 406 1018 l 324 1051 z "},"ś":{"ha":604,"x_min":97,"x_max":521,"o":"m 521 171 q 511 90 521 125 q 476 33 501 56 q 408 -2 451 10 q 296 -14 364 -14 q 190 -4 244 -14 q 97 21 135 6 l 111 86 q 204 65 156 72 q 290 58 253 58 q 367 63 338 58 q 413 81 396 68 q 435 115 429 93 q 440 168 440 136 q 438 226 440 204 q 419 263 435 249 q 373 287 404 276 q 283 311 342 297 q 183 343 219 326 q 128 383 147 360 q 105 438 110 406 q 100 517 100 471 q 148 646 100 601 q 321 690 196 690 q 420 684 368 690 q 513 667 472 678 l 504 599 q 410 613 464 607 q 315 618 357 618 q 244 612 271 618 q 203 593 218 606 q 185 561 189 581 q 181 514 181 542 q 183 458 181 479 q 199 424 186 438 q 238 401 211 410 q 311 379 264 392 q 428 343 386 360 q 490 303 469 326 q 516 249 511 281 q 521 171 521 218 m 232 815 q 321 872 274 842 q 414 935 368 903 l 454 874 q 361 812 410 842 q 269 758 313 782 l 232 815 z "},"Ŝ":{"ha":756,"x_min":104,"x_max":651,"o":"m 651 229 q 640 127 651 172 q 597 51 628 82 q 509 3 565 19 q 365 -14 453 -14 q 234 -3 304 -14 q 104 31 164 7 l 119 97 q 368 60 244 60 q 467 69 428 60 q 528 98 506 78 q 560 149 551 118 q 569 225 569 181 q 566 311 569 279 q 543 364 563 343 q 481 399 524 385 q 363 431 439 413 q 230 469 279 450 q 155 519 181 489 q 122 594 129 549 q 114 708 114 639 q 126 808 114 765 q 171 881 139 851 q 258 924 203 910 q 401 939 314 939 q 528 930 463 939 q 640 907 593 921 l 631 838 q 519 857 579 849 q 404 865 458 865 q 294 856 335 865 q 231 828 253 847 q 203 779 210 810 q 196 706 196 749 q 199 617 196 649 q 222 565 203 585 q 281 531 242 544 q 394 500 321 518 q 538 456 486 476 q 614 408 589 436 q 645 337 639 379 q 651 229 651 294 m 238 1049 q 322 1103 282 1076 q 411 1163 363 1129 q 492 1105 454 1131 q 583 1049 531 1079 l 554 994 q 476 1038 506 1021 q 411 1078 446 1056 q 344 1038 376 1057 q 268 994 313 1018 l 238 1049 z "},"ŝ":{"ha":604,"x_min":97,"x_max":521,"o":"m 521 171 q 511 90 521 125 q 476 33 501 56 q 408 -2 451 10 q 296 -14 364 -14 q 190 -4 244 -14 q 97 21 135 6 l 111 86 q 204 65 156 72 q 290 58 253 58 q 367 63 338 58 q 413 81 396 68 q 435 115 429 93 q 440 168 440 136 q 438 226 440 204 q 419 263 435 249 q 373 287 404 276 q 283 311 342 297 q 183 343 219 326 q 128 383 147 360 q 105 438 110 406 q 100 517 100 471 q 148 646 100 601 q 321 690 196 690 q 420 684 368 690 q 513 667 472 678 l 504 599 q 410 613 464 607 q 315 618 357 618 q 244 612 271 618 q 203 593 218 606 q 185 561 189 581 q 181 514 181 542 q 183 458 181 479 q 199 424 186 438 q 238 401 211 410 q 311 379 264 392 q 428 343 386 360 q 490 303 469 326 q 516 249 511 281 q 521 171 521 218 m 149 814 q 236 869 193 840 q 328 931 279 897 q 413 871 372 899 q 506 814 454 843 l 476 760 q 397 804 431 783 q 328 846 364 825 q 258 804 293 825 q 179 760 224 783 l 149 814 z "},"Ş":{"ha":756,"x_min":104,"x_max":651,"o":"m 508 -181 q 475 -257 508 -226 q 376 -287 442 -287 q 319 -282 347 -287 q 268 -268 292 -276 l 281 -219 q 323 -228 300 -225 q 365 -232 346 -232 q 426 -219 408 -232 q 444 -183 444 -207 q 379 -140 444 -140 q 337 -143 360 -140 q 299 -149 314 -146 l 328 -12 q 213 1 272 -10 q 104 31 154 11 l 119 97 q 368 60 244 60 q 467 69 428 60 q 528 98 506 78 q 560 149 551 118 q 569 225 569 181 q 566 311 569 279 q 543 364 563 343 q 481 399 524 385 q 363 431 439 413 q 230 469 279 450 q 155 519 181 489 q 122 594 129 549 q 114 708 114 639 q 126 808 114 765 q 171 881 139 851 q 258 924 203 910 q 401 939 314 939 q 528 930 463 939 q 640 907 593 921 l 631 838 q 519 857 579 849 q 404 865 458 865 q 294 856 335 865 q 231 828 253 847 q 203 779 210 810 q 196 706 196 749 q 199 617 196 649 q 222 565 203 585 q 281 531 242 544 q 394 500 321 518 q 538 456 486 476 q 614 408 589 436 q 645 337 639 379 q 651 229 651 294 q 640 130 651 174 q 600 55 629 86 q 519 6 571 24 q 386 -14 467 -12 l 368 -97 q 388 -94 378 -94 q 407 -93 399 -93 q 478 -115 449 -93 q 508 -181 508 -136 z "},"ş":{"ha":604,"x_min":97,"x_max":521,"o":"m 521 171 q 512 94 521 128 q 481 38 503 61 q 422 3 460 15 q 326 -12 385 -10 l 308 -97 q 328 -94 318 -94 q 347 -93 339 -93 q 419 -115 389 -93 q 449 -181 449 -136 q 415 -257 449 -226 q 317 -287 382 -287 q 260 -282 288 -287 q 208 -268 232 -276 l 221 -219 q 263 -228 240 -225 q 306 -232 286 -232 q 367 -219 349 -232 q 385 -183 385 -207 q 319 -140 385 -140 q 277 -143 300 -140 q 239 -149 254 -146 l 268 -12 q 176 -1 222 -10 q 97 21 129 7 l 111 86 q 204 65 156 72 q 290 58 253 58 q 367 63 338 58 q 413 81 396 68 q 435 115 429 93 q 440 168 440 136 q 438 226 440 204 q 419 263 435 249 q 373 287 404 276 q 283 311 342 297 q 183 343 219 326 q 128 383 147 360 q 105 438 110 406 q 100 517 100 471 q 148 646 100 601 q 321 690 196 690 q 420 684 368 690 q 513 667 472 678 l 504 599 q 410 613 464 607 q 315 618 357 618 q 244 612 271 618 q 203 593 218 606 q 185 561 189 581 q 181 514 181 542 q 183 458 181 479 q 199 424 186 438 q 238 401 211 410 q 311 379 264 392 q 428 343 386 360 q 490 303 469 326 q 516 249 511 281 q 521 171 521 218 z "},"Š":{"ha":756,"x_min":104,"x_max":651,"o":"m 651 229 q 640 127 651 172 q 597 51 628 82 q 509 3 565 19 q 365 -14 453 -14 q 234 -3 304 -14 q 104 31 164 7 l 119 97 q 368 60 244 60 q 467 69 428 60 q 528 98 506 78 q 560 149 551 118 q 569 225 569 181 q 566 311 569 279 q 543 364 563 343 q 481 399 524 385 q 363 431 439 413 q 230 469 279 450 q 155 519 181 489 q 122 594 129 549 q 114 708 114 639 q 126 808 114 765 q 171 881 139 851 q 258 924 203 910 q 401 939 314 939 q 528 930 463 939 q 640 907 593 921 l 631 838 q 519 857 579 849 q 404 865 458 865 q 294 856 335 865 q 231 828 253 847 q 203 779 210 810 q 196 706 196 749 q 199 617 196 649 q 222 565 203 585 q 281 531 242 544 q 394 500 321 518 q 538 456 486 476 q 614 408 589 436 q 645 337 639 379 q 651 229 651 294 m 253 1168 q 332 1124 297 1144 q 401 1082 367 1103 q 471 1124 438 1103 q 550 1168 504 1144 l 579 1114 q 487 1057 528 1085 q 401 997 446 1029 q 310 1059 353 1031 q 222 1114 267 1088 l 253 1168 z "},"š":{"ha":604,"x_min":97,"x_max":521,"o":"m 521 171 q 511 90 521 125 q 476 33 501 56 q 408 -2 451 10 q 296 -14 364 -14 q 190 -4 244 -14 q 97 21 135 6 l 111 86 q 204 65 156 72 q 290 58 253 58 q 367 63 338 58 q 413 81 396 68 q 435 115 429 93 q 440 168 440 136 q 438 226 440 204 q 419 263 435 249 q 373 287 404 276 q 283 311 342 297 q 183 343 219 326 q 128 383 147 360 q 105 438 110 406 q 100 517 100 471 q 148 646 100 601 q 321 690 196 690 q 420 684 368 690 q 513 667 472 678 l 504 599 q 410 613 464 607 q 315 618 357 618 q 244 612 271 618 q 203 593 218 606 q 185 561 189 581 q 181 514 181 542 q 183 458 181 479 q 199 424 186 438 q 238 401 211 410 q 311 379 264 392 q 428 343 386 360 q 490 303 469 326 q 516 249 511 281 q 521 171 521 218 m 167 918 q 246 874 211 894 q 315 832 281 853 q 385 874 351 853 q 464 918 418 894 l 493 864 q 401 807 442 835 q 315 747 360 779 q 224 809 267 781 q 136 864 181 838 l 167 918 z "},"Ť":{"ha":721,"x_min":35,"x_max":686,"o":"m 319 851 l 35 851 l 35 925 l 686 925 l 686 851 l 401 851 l 401 0 l 319 0 l 319 851 m 213 1168 q 292 1124 257 1144 q 361 1082 326 1103 q 431 1124 397 1103 q 510 1168 464 1144 l 539 1114 q 447 1057 488 1085 q 361 997 406 1029 q 269 1059 313 1031 q 182 1114 226 1088 l 213 1168 z "},"ť":{"ha":515,"x_min":42,"x_max":492,"o":"m 467 13 q 399 -6 438 1 q 325 -14 361 -14 q 208 19 244 -14 q 172 132 172 51 l 172 607 l 42 607 l 42 676 l 172 676 l 172 836 l 253 847 l 253 676 l 460 676 l 451 607 l 253 607 l 253 140 q 255 102 253 118 q 265 76 257 86 q 289 60 274 65 q 331 56 304 56 q 451 75 389 56 l 467 13 m 408 967 l 492 967 l 492 861 l 440 754 l 401 771 l 436 861 l 408 861 l 408 967 z "},"Ŧ":{"ha":721,"x_min":35,"x_max":686,"o":"m 76 485 l 319 485 l 319 851 l 35 851 l 35 925 l 686 925 l 686 851 l 401 851 l 401 485 l 644 485 l 644 424 l 401 424 l 401 0 l 319 0 l 319 424 l 76 424 l 76 485 z "},"ŧ":{"ha":515,"x_min":42,"x_max":467,"o":"m 42 379 l 172 379 l 172 607 l 42 607 l 42 676 l 172 676 l 172 836 l 253 847 l 253 676 l 460 676 l 451 607 l 253 607 l 253 379 l 433 379 l 433 321 l 253 321 l 253 140 q 255 102 253 118 q 265 76 257 86 q 289 60 274 65 q 331 56 304 56 q 451 75 389 56 l 467 13 q 399 -6 438 1 q 325 -14 361 -14 q 208 19 244 -14 q 172 132 172 51 l 172 321 l 42 321 l 42 379 z "},"Ũ":{"ha":875,"x_min":118,"x_max":757,"o":"m 757 925 l 757 263 q 739 153 757 204 q 682 65 721 103 q 583 7 643 28 q 438 -14 522 -14 q 292 7 353 -14 q 193 65 232 28 q 136 153 154 103 q 118 263 118 204 l 118 925 l 200 925 l 200 263 q 260 113 200 165 q 438 60 319 60 q 615 113 556 60 q 675 263 675 165 l 675 925 l 757 925 m 461 1029 q 420 1047 438 1040 q 383 1054 403 1054 q 343 1044 360 1054 q 308 1015 326 1033 l 272 1056 q 322 1103 292 1083 q 386 1124 353 1124 q 422 1118 406 1124 q 461 1101 438 1113 q 506 1083 489 1089 q 540 1076 524 1076 q 607 1111 576 1076 l 647 1075 q 601 1026 629 1046 q 540 1007 574 1007 q 506 1012 522 1007 q 461 1029 489 1017 z "},"ũ":{"ha":724,"x_min":111,"x_max":606,"o":"m 192 676 l 192 129 q 210 76 192 92 q 265 61 229 61 q 317 67 286 61 q 384 83 349 72 q 456 108 419 93 q 525 139 493 122 l 525 676 l 606 676 l 606 0 l 535 0 l 529 61 q 467 35 501 49 q 395 10 432 21 q 322 -7 358 0 q 254 -14 285 -14 q 143 27 175 -14 q 111 139 111 68 l 111 676 l 192 676 m 383 789 q 342 807 360 800 q 306 814 325 814 q 265 803 282 814 q 231 775 249 793 l 194 815 q 244 863 214 843 q 308 883 275 883 q 344 878 328 883 q 383 861 360 872 q 428 842 411 849 q 463 836 446 836 q 529 871 499 836 l 569 835 q 524 786 551 806 q 463 767 496 767 q 428 772 444 767 q 383 789 411 776 z "},"Ū":{"ha":875,"x_min":118,"x_max":757,"o":"m 757 925 l 757 263 q 739 153 757 204 q 682 65 721 103 q 583 7 643 28 q 438 -14 522 -14 q 292 7 353 -14 q 193 65 232 28 q 136 153 154 103 q 118 263 118 204 l 118 925 l 200 925 l 200 263 q 260 113 200 165 q 438 60 319 60 q 615 113 556 60 q 675 263 675 165 l 675 925 l 757 925 m 272 1089 l 600 1089 l 600 1026 l 272 1026 l 272 1089 z "},"ū":{"ha":724,"x_min":111,"x_max":606,"o":"m 192 676 l 192 129 q 210 76 192 92 q 265 61 229 61 q 317 67 286 61 q 384 83 349 72 q 456 108 419 93 q 525 139 493 122 l 525 676 l 606 676 l 606 0 l 535 0 l 529 61 q 467 35 501 49 q 395 10 432 21 q 322 -7 358 0 q 254 -14 285 -14 q 143 27 175 -14 q 111 139 111 68 l 111 676 l 192 676 m 213 853 l 540 853 l 540 786 l 213 786 l 213 853 z "},"Ŭ":{"ha":875,"x_min":118,"x_max":757,"o":"m 757 925 l 757 263 q 739 153 757 204 q 682 65 721 103 q 583 7 643 28 q 438 -14 522 -14 q 292 7 353 -14 q 193 65 232 28 q 136 153 154 103 q 118 263 118 204 l 118 925 l 200 925 l 200 263 q 260 113 200 165 q 438 60 319 60 q 615 113 556 60 q 675 263 675 165 l 675 925 l 757 925 m 608 1089 q 581 1056 597 1072 q 544 1026 565 1039 q 496 1003 522 1013 q 438 994 469 994 q 379 1003 406 994 q 331 1026 353 1013 q 294 1056 310 1039 q 267 1089 278 1072 l 313 1131 q 367 1078 336 1099 q 438 1057 399 1057 q 508 1078 476 1057 q 563 1131 539 1099 l 608 1089 z "},"ŭ":{"ha":724,"x_min":111,"x_max":606,"o":"m 192 676 l 192 129 q 210 76 192 92 q 265 61 229 61 q 317 67 286 61 q 384 83 349 72 q 456 108 419 93 q 525 139 493 122 l 525 676 l 606 676 l 606 0 l 535 0 l 529 61 q 467 35 501 49 q 395 10 432 21 q 322 -7 358 0 q 254 -14 285 -14 q 143 27 175 -14 q 111 139 111 68 l 111 676 l 192 676 m 547 849 q 520 815 536 832 q 483 785 504 799 q 435 763 461 772 q 376 754 408 754 q 318 763 344 754 q 270 785 292 772 q 233 815 249 799 q 206 849 217 832 l 251 890 q 306 838 275 858 q 376 817 338 817 q 447 838 415 817 q 501 890 478 858 l 547 849 z "},"Ů":{"ha":875,"x_min":118,"x_max":757,"o":"m 757 925 l 757 263 q 739 153 757 204 q 682 65 721 103 q 583 7 643 28 q 438 -14 522 -14 q 292 7 353 -14 q 193 65 232 28 q 136 153 154 103 q 118 263 118 204 l 118 925 l 200 925 l 200 263 q 260 113 200 165 q 438 60 319 60 q 615 113 556 60 q 675 263 675 165 l 675 925 l 757 925 m 525 1049 q 503 988 525 1013 q 438 963 481 963 q 372 988 394 963 q 350 1049 350 1013 q 372 1110 350 1086 q 438 1133 394 1133 q 503 1110 481 1133 q 525 1049 525 1086 m 478 1049 q 438 1093 478 1093 q 396 1049 396 1093 q 406 1017 396 1029 q 438 1004 417 1004 q 468 1017 458 1004 q 478 1049 478 1029 z "},"ů":{"ha":724,"x_min":111,"x_max":606,"o":"m 192 676 l 192 129 q 210 76 192 92 q 265 61 229 61 q 317 67 286 61 q 384 83 349 72 q 456 108 419 93 q 525 139 493 122 l 525 676 l 606 676 l 606 0 l 535 0 l 529 61 q 467 35 501 49 q 395 10 432 21 q 322 -7 358 0 q 254 -14 285 -14 q 143 27 175 -14 q 111 139 111 68 l 111 676 l 192 676 m 451 840 q 428 778 451 804 q 361 751 404 751 q 294 778 318 751 q 271 840 271 804 q 294 903 271 878 q 361 928 318 928 q 428 903 404 928 q 451 840 451 878 m 404 840 q 393 874 404 861 q 361 888 382 888 q 328 874 340 888 q 317 840 317 861 q 328 807 317 821 q 361 793 340 793 q 393 807 382 793 q 404 840 404 821 z "},"Ű":{"ha":875,"x_min":118,"x_max":757,"o":"m 757 925 l 757 263 q 739 153 757 204 q 682 65 721 103 q 583 7 643 28 q 438 -14 522 -14 q 292 7 353 -14 q 193 65 232 28 q 136 153 154 103 q 118 263 118 204 l 118 925 l 200 925 l 200 263 q 260 113 200 165 q 438 60 319 60 q 615 113 556 60 q 675 263 675 165 l 675 925 l 757 925 m 274 1038 q 355 1106 313 1069 q 439 1179 397 1142 l 486 1124 q 402 1051 446 1086 q 318 986 358 1015 l 274 1038 m 481 1039 q 561 1106 518 1071 q 646 1181 604 1142 l 693 1125 q 609 1052 653 1088 q 525 986 565 1017 l 481 1039 z "},"ű":{"ha":724,"x_min":111,"x_max":613,"o":"m 192 676 l 192 129 q 210 76 192 92 q 265 61 229 61 q 317 67 286 61 q 384 83 349 72 q 456 108 419 93 q 525 139 493 122 l 525 676 l 606 676 l 606 0 l 535 0 l 529 61 q 467 35 501 49 q 395 10 432 21 q 322 -7 358 0 q 254 -14 285 -14 q 143 27 175 -14 q 111 139 111 68 l 111 676 l 192 676 m 193 788 q 274 856 232 819 q 358 929 317 892 l 406 874 q 322 801 365 836 q 238 736 278 765 l 193 788 m 400 789 q 481 856 438 821 q 565 931 524 892 l 613 875 q 528 802 572 838 q 444 736 485 767 l 400 789 z "},"Ų":{"ha":875,"x_min":118,"x_max":757,"o":"m 560 -267 q 471 -287 522 -287 q 389 -262 425 -287 q 353 -182 353 -237 q 367 -130 353 -156 q 403 -83 382 -104 q 450 -42 425 -61 q 497 -11 475 -24 q 467 -13 482 -12 q 438 -14 453 -14 q 292 7 353 -14 q 193 65 232 28 q 136 153 154 103 q 118 263 118 204 l 118 925 l 200 925 l 200 263 q 260 113 200 165 q 438 60 319 60 q 615 113 556 60 q 675 263 675 165 l 675 925 l 757 925 l 757 263 q 728 125 757 182 q 638 32 700 68 q 571 -12 608 13 q 501 -65 533 -37 q 446 -120 468 -92 q 424 -176 424 -149 q 436 -212 424 -197 q 481 -226 449 -226 q 512 -224 497 -226 q 543 -215 526 -222 l 560 -267 l 560 -267 z "},"ų":{"ha":724,"x_min":111,"x_max":606,"o":"m 606 -267 q 517 -287 568 -287 q 435 -262 471 -287 q 399 -182 399 -237 q 439 -79 399 -126 q 535 0 479 -32 l 529 61 q 467 35 501 49 q 395 10 432 21 q 322 -7 358 0 q 254 -14 285 -14 q 143 27 175 -14 q 111 139 111 68 l 111 676 l 192 676 l 192 129 q 210 76 192 92 q 265 61 229 61 q 317 67 286 61 q 384 83 349 72 q 456 108 419 93 q 525 139 493 122 l 525 676 l 606 676 l 606 0 q 508 -82 547 -40 q 469 -176 469 -124 q 482 -212 469 -197 q 526 -226 494 -226 q 558 -224 543 -226 q 589 -215 572 -222 l 606 -267 l 606 -267 z "},"Ŵ":{"ha":1236,"x_min":35,"x_max":1201,"o":"m 618 867 l 413 0 l 285 0 l 35 925 l 114 925 l 346 63 l 553 925 l 683 925 l 890 63 l 1122 925 l 1201 925 l 951 0 l 824 0 l 618 867 m 446 1049 q 531 1103 490 1076 q 619 1163 571 1129 q 701 1105 663 1131 q 792 1049 739 1079 l 763 994 q 684 1038 714 1021 q 619 1078 654 1056 q 553 1038 585 1057 q 476 994 521 1018 l 446 1049 z "},"ŵ":{"ha":975,"x_min":35,"x_max":940,"o":"m 189 0 l 35 676 l 111 676 l 250 54 l 433 676 l 542 676 l 724 54 l 864 676 l 940 676 l 786 0 l 665 0 l 488 618 l 310 0 l 189 0 m 310 814 q 397 869 354 840 q 489 931 440 897 q 574 871 533 899 q 667 814 615 843 l 638 760 q 558 804 592 783 q 489 846 525 825 q 419 804 454 825 q 340 760 385 783 l 310 814 z "},"Ŷ":{"ha":754,"x_min":21,"x_max":733,"o":"m 376 367 l 649 925 l 733 925 l 418 285 l 418 0 l 336 0 l 336 285 l 21 925 l 106 925 l 376 367 m 204 1049 q 289 1103 249 1076 q 378 1163 329 1129 q 459 1105 421 1131 q 550 1049 497 1079 l 521 994 q 442 1038 472 1021 q 378 1078 413 1056 q 311 1038 343 1057 q 235 994 279 1018 l 204 1049 z "},"ŷ":{"ha":617,"x_min":21,"x_max":603,"o":"m 374 0 l 274 -274 l 194 -274 l 296 0 l 250 0 l 21 676 l 103 676 l 311 57 l 521 676 l 603 676 l 374 0 m 143 814 q 231 869 188 840 q 322 931 274 897 q 408 871 367 899 q 500 814 449 843 l 471 760 q 392 804 425 783 q 322 846 358 825 q 253 804 288 825 q 174 760 218 783 l 143 814 z "},"Ÿ":{"ha":754,"x_min":21,"x_max":733,"o":"m 376 367 l 649 925 l 733 925 l 418 285 l 418 0 l 336 0 l 336 285 l 21 925 l 106 925 l 376 367 m 211 1103 l 303 1103 l 303 1019 l 211 1019 l 211 1103 m 450 1103 l 542 1103 l 542 1019 l 450 1019 l 450 1103 z "},"Ź":{"ha":800,"x_min":97,"x_max":703,"o":"m 188 74 l 703 74 l 703 0 l 97 0 l 97 74 l 601 851 l 111 851 l 111 925 l 693 925 l 693 851 l 188 74 m 339 1051 q 422 1103 381 1076 q 508 1163 464 1131 l 549 1101 q 465 1046 508 1074 q 376 994 421 1018 l 339 1051 z "},"ź":{"ha":607,"x_min":76,"x_max":538,"o":"m 88 676 l 526 676 l 525 611 l 161 65 l 538 65 l 538 0 l 76 0 l 76 65 l 442 611 l 86 611 l 88 676 m 232 815 q 321 872 274 842 q 414 935 368 903 l 454 874 q 361 812 410 842 q 269 758 313 782 l 232 815 z "},"Ż":{"ha":800,"x_min":97,"x_max":703,"o":"m 188 74 l 703 74 l 703 0 l 97 0 l 97 74 l 601 851 l 111 851 l 111 925 l 693 925 l 693 851 l 188 74 m 378 1008 l 378 1157 l 458 1157 l 458 1008 l 378 1008 z "},"ż":{"ha":607,"x_min":76,"x_max":538,"o":"m 88 676 l 526 676 l 525 611 l 161 65 l 538 65 l 538 0 l 76 0 l 76 65 l 442 611 l 86 611 l 88 676 m 282 804 l 282 953 l 363 953 l 363 804 l 282 804 z "},"Ž":{"ha":800,"x_min":97,"x_max":703,"o":"m 188 74 l 703 74 l 703 0 l 97 0 l 97 74 l 601 851 l 111 851 l 111 925 l 693 925 l 693 851 l 188 74 m 260 1168 q 339 1124 304 1144 q 408 1082 374 1103 q 478 1124 444 1103 q 557 1168 511 1144 l 586 1114 q 494 1057 535 1085 q 408 997 453 1029 q 317 1059 360 1031 q 229 1114 274 1088 l 260 1168 z "},"ž":{"ha":607,"x_min":76,"x_max":538,"o":"m 88 676 l 526 676 l 525 611 l 161 65 l 538 65 l 538 0 l 76 0 l 76 65 l 442 611 l 86 611 l 88 676 m 169 918 q 249 874 214 894 q 318 832 283 853 q 388 874 354 853 q 467 918 421 894 l 496 864 q 403 807 444 835 q 318 747 363 779 q 226 809 269 781 q 139 864 183 838 l 169 918 z "},"ƒ":{"ha":704,"x_min":35,"x_max":635,"o":"m 172 524 l 179 593 l 306 593 l 325 821 q 383 942 332 904 q 514 981 433 981 q 635 961 574 981 l 621 899 q 563 908 589 906 q 514 911 538 911 q 433 888 456 911 q 404 808 410 865 l 386 593 l 581 593 l 565 524 l 379 524 l 325 -110 q 139 -274 311 -274 q 85 -268 115 -274 q 35 -256 56 -262 l 49 -193 q 136 -204 97 -204 q 218 -181 196 -204 q 244 -106 240 -158 l 299 524 l 172 524 z "},"Ǻ":{"ha":863,"x_min":49,"x_max":814,"o":"m 646 243 l 215 243 l 129 0 l 49 0 l 371 925 l 492 925 l 814 0 l 733 0 l 646 243 m 240 314 l 621 314 l 431 878 l 240 314 m 518 1049 q 496 988 518 1013 q 431 963 474 963 q 365 988 388 963 q 343 1049 343 1013 q 365 1110 343 1086 q 431 1133 388 1133 q 496 1110 474 1133 q 518 1049 518 1086 m 471 1049 q 431 1093 471 1093 q 389 1049 389 1093 q 399 1017 389 1029 q 431 1004 410 1004 q 461 1017 451 1004 q 471 1049 471 1029 m 399 1208 q 435 1231 419 1221 q 467 1249 451 1240 q 498 1269 482 1258 q 536 1297 514 1281 l 568 1247 q 532 1222 549 1233 q 500 1202 515 1211 q 467 1183 485 1193 q 428 1163 450 1174 l 399 1208 z "},"ǻ":{"ha":676,"x_min":90,"x_max":572,"o":"m 435 832 q 413 771 435 796 q 347 746 390 746 q 282 771 304 746 q 260 832 260 796 q 282 893 260 869 q 347 917 304 917 q 413 893 390 917 q 435 832 435 869 m 388 832 q 347 876 388 876 q 306 832 306 876 q 316 800 306 813 q 347 788 326 788 q 378 800 368 788 q 388 832 388 813 m 310 992 q 347 1014 331 1004 q 378 1033 363 1024 q 409 1053 393 1042 q 447 1081 425 1064 l 479 1031 q 443 1006 460 1017 q 411 985 426 994 q 378 967 396 976 q 339 946 361 957 l 310 992 m 572 0 l 504 0 l 497 56 q 390 6 449 25 q 265 -14 332 -14 q 182 1 215 -14 q 128 42 149 15 q 99 106 108 69 q 90 189 90 143 q 140 338 90 296 q 289 381 189 381 l 492 381 l 492 478 q 485 547 492 519 q 460 590 478 574 q 413 612 442 606 q 338 618 383 618 q 242 609 289 618 q 154 583 194 600 l 139 653 q 236 681 182 672 q 343 690 290 690 q 519 641 465 690 q 572 481 572 592 l 572 0 m 492 313 l 292 313 q 194 283 219 313 q 168 188 168 254 q 172 134 168 158 q 188 92 176 110 q 222 65 200 75 q 282 56 244 56 q 390 76 332 56 q 492 124 447 96 l 492 313 z "},"Ǽ":{"ha":1165,"x_min":49,"x_max":1068,"o":"m 646 243 l 215 243 l 129 0 l 49 0 l 371 925 l 1067 925 l 1067 851 l 517 851 l 632 522 l 1036 522 l 1036 449 l 657 449 l 788 74 l 1068 74 l 1068 0 l 733 0 l 646 243 m 240 314 l 621 314 l 431 878 l 240 314 m 449 1051 q 532 1103 490 1076 q 618 1163 574 1131 l 658 1101 q 574 1046 618 1074 q 486 994 531 1018 l 449 1051 z "},"ǽ":{"ha":1071,"x_min":90,"x_max":990,"o":"m 572 229 q 581 151 572 183 q 610 97 589 118 q 665 67 631 76 q 749 57 699 57 q 857 66 801 57 q 963 89 913 75 l 976 24 q 867 -3 929 7 q 743 -14 806 -14 q 610 8 661 -14 q 532 71 560 31 q 416 13 486 39 q 265 -14 346 -14 q 182 1 215 -14 q 128 44 149 17 q 99 108 108 71 q 90 189 90 144 q 140 338 90 296 q 289 381 189 381 l 492 381 l 492 478 q 485 547 492 519 q 460 590 478 574 q 413 612 442 606 q 338 618 383 618 q 242 609 289 618 q 154 583 194 600 l 139 653 q 236 681 182 672 q 343 690 290 690 q 467 672 418 690 q 542 613 515 653 q 620 669 571 649 q 744 690 669 690 q 863 672 815 690 q 939 619 911 653 q 978 541 967 586 q 990 444 990 496 l 990 313 l 572 313 l 572 229 m 492 313 l 292 313 q 194 283 219 313 q 168 188 168 254 q 172 134 168 158 q 188 92 176 110 q 222 65 200 75 q 282 56 244 56 q 407 74 350 56 q 506 124 464 92 q 492 232 492 169 l 492 313 m 572 381 l 911 381 l 911 450 q 875 579 911 535 q 744 624 839 624 q 610 580 649 624 q 572 450 572 536 l 572 381 m 485 815 q 574 872 526 842 q 667 935 621 903 l 707 874 q 614 812 663 842 q 522 758 565 782 l 485 815 z "},"Ǿ":{"ha":856,"x_min":104,"x_max":751,"o":"m 682 857 q 735 772 718 821 q 751 664 751 722 l 751 261 q 734 151 751 201 q 678 65 717 101 q 578 7 640 28 q 428 -14 517 -14 q 221 31 297 -14 l 157 -83 l 104 -56 l 172 68 q 120 153 136 104 q 104 261 104 203 l 104 664 q 122 774 104 724 q 177 860 139 824 q 277 918 215 897 q 428 939 339 939 q 546 927 494 939 q 635 893 597 915 l 699 1008 l 751 979 l 682 857 m 428 60 q 615 113 561 60 q 669 264 669 165 l 669 661 q 640 782 669 733 l 258 99 q 428 60 314 60 m 186 264 q 214 143 186 189 l 597 826 q 526 856 568 846 q 428 865 485 865 q 240 813 294 865 q 186 661 186 760 l 186 264 m 382 1051 q 465 1103 424 1076 q 551 1163 507 1131 l 592 1101 q 508 1046 551 1074 q 419 994 464 1018 l 382 1051 z "},"ǿ":{"ha":692,"x_min":83,"x_max":608,"o":"m 608 232 q 594 135 608 179 q 548 57 579 90 q 467 5 517 24 q 346 -14 417 -14 q 256 -4 296 -14 q 188 22 217 6 l 132 -69 l 83 -40 l 142 57 q 97 135 110 90 q 83 232 83 179 l 83 444 q 98 541 83 496 q 144 619 113 586 q 225 672 175 653 q 346 690 275 690 q 435 681 396 690 q 504 654 474 671 l 560 746 l 608 715 l 549 618 q 594 541 581 586 q 608 444 608 496 l 608 232 m 164 229 q 185 129 164 168 l 465 590 q 346 618 421 618 q 207 576 250 618 q 164 447 164 533 l 164 229 m 528 447 q 506 547 528 508 l 226 86 q 346 58 268 58 q 485 101 442 58 q 528 229 528 143 l 528 447 m 282 815 q 371 872 324 842 q 464 935 418 903 l 504 874 q 411 812 460 842 q 319 758 363 782 l 282 815 z "},"ˆ":{"ha":551,"x_min":97,"x_max":454,"o":"m 97 814 q 185 869 142 840 q 276 931 228 897 q 362 871 321 899 q 454 814 403 843 l 425 760 q 346 804 379 783 q 276 846 313 825 q 207 804 242 825 q 128 760 172 783 l 97 814 z "},"ˇ":{"ha":551,"x_min":97,"x_max":454,"o":"m 128 918 q 207 874 172 894 q 276 832 242 853 q 346 874 313 853 q 425 918 379 894 l 454 864 q 362 807 403 835 q 276 747 321 779 q 185 809 228 781 q 97 864 142 838 l 128 918 z "},"˘":{"ha":536,"x_min":97,"x_max":439,"o":"m 439 849 q 412 815 428 832 q 374 785 396 799 q 326 763 353 772 q 268 754 300 754 q 210 763 236 754 q 162 785 183 772 q 124 815 140 799 q 97 849 108 832 l 143 890 q 198 838 167 858 q 268 817 229 817 q 338 838 307 817 q 393 890 369 858 l 439 849 z "},"˙":{"ha":275,"x_min":97,"x_max":178,"o":"m 97 804 l 97 953 l 178 953 l 178 804 l 97 804 z "},"˚":{"ha":375,"x_min":97,"x_max":278,"o":"m 278 840 q 254 778 278 804 q 188 751 231 751 q 121 778 144 751 q 97 840 97 804 q 121 903 97 878 q 188 928 144 928 q 254 903 231 928 q 278 840 278 878 m 231 840 q 219 874 231 861 q 188 888 208 888 q 155 874 167 888 q 143 840 143 861 q 155 807 143 821 q 188 793 167 793 q 219 807 208 793 q 231 840 231 821 z "},"˛":{"ha":401,"x_min":97,"x_max":304,"o":"m 304 -267 q 215 -287 267 -287 q 133 -262 169 -287 q 97 -182 97 -237 q 133 -79 97 -126 q 224 0 168 -32 l 304 0 q 207 -82 246 -40 q 168 -176 168 -124 q 181 -212 168 -197 q 225 -226 193 -226 q 256 -224 242 -226 q 288 -215 271 -222 l 304 -267 l 304 -267 z "},"˜":{"ha":569,"x_min":97,"x_max":472,"o":"m 286 789 q 245 807 263 800 q 208 814 228 814 q 168 803 185 814 q 133 775 151 793 l 97 815 q 147 863 117 843 q 211 883 178 883 q 247 878 231 883 q 286 861 263 872 q 331 842 314 849 q 365 836 349 836 q 432 871 401 836 l 472 835 q 426 786 454 806 q 365 767 399 767 q 331 772 347 767 q 286 789 314 776 z "},"˝":{"ha":614,"x_min":97,"x_max":517,"o":"m 97 788 q 178 856 136 819 q 263 929 221 892 l 310 874 q 226 801 269 836 q 142 736 182 765 l 97 788 m 304 789 q 385 856 342 821 q 469 931 428 892 l 517 875 q 433 802 476 838 q 349 736 389 767 l 304 789 z "},"Ω":{"ha":925,"x_min":104,"x_max":821,"o":"m 821 0 l 578 0 l 578 72 q 669 162 640 115 q 697 267 697 208 l 697 678 q 638 819 697 771 q 463 867 578 867 q 288 819 347 867 q 228 678 228 771 l 228 267 q 256 162 228 208 q 347 72 285 115 l 347 0 l 104 0 l 104 72 l 233 72 q 166 166 185 122 q 147 263 147 210 l 147 671 q 165 778 147 729 q 219 863 182 826 q 317 919 257 899 q 463 939 376 939 q 608 919 547 939 q 706 863 668 899 q 760 778 743 826 q 778 671 778 729 l 778 263 q 759 166 778 210 q 692 72 740 122 l 821 72 l 821 0 z "},"π":{"ha":967,"x_min":76,"x_max":869,"o":"m 686 604 l 686 132 q 702 70 686 85 q 764 56 718 56 q 854 71 806 56 l 869 8 q 817 -8 847 -1 q 758 -14 786 -14 q 642 19 678 -14 q 606 132 606 51 l 606 604 l 338 604 l 338 0 l 257 0 l 257 604 l 76 604 l 76 676 l 867 676 l 867 604 l 686 604 z "},"Ẁ":{"ha":1236,"x_min":35,"x_max":1201,"o":"m 618 867 l 413 0 l 285 0 l 35 925 l 114 925 l 346 63 l 553 925 l 683 925 l 890 63 l 1122 925 l 1201 925 l 951 0 l 824 0 l 618 867 m 626 994 q 538 1046 582 1018 q 454 1101 494 1074 l 494 1163 q 581 1103 539 1131 q 664 1051 622 1076 l 626 994 z "},"ẁ":{"ha":975,"x_min":35,"x_max":940,"o":"m 189 0 l 35 676 l 111 676 l 250 54 l 433 676 l 542 676 l 724 54 l 864 676 l 940 676 l 786 0 l 665 0 l 488 618 l 310 0 l 189 0 m 497 758 q 406 812 454 782 q 313 874 357 842 l 353 935 q 446 872 399 903 q 535 815 493 842 l 497 758 z "},"Ẃ":{"ha":1236,"x_min":35,"x_max":1201,"o":"m 618 867 l 413 0 l 285 0 l 35 925 l 114 925 l 346 63 l 553 925 l 683 925 l 890 63 l 1122 925 l 1201 925 l 951 0 l 824 0 l 618 867 m 578 1051 q 661 1103 619 1076 q 747 1163 703 1131 l 788 1101 q 703 1046 747 1074 q 615 994 660 1018 l 578 1051 z "},"ẃ":{"ha":975,"x_min":35,"x_max":940,"o":"m 189 0 l 35 676 l 111 676 l 250 54 l 433 676 l 542 676 l 724 54 l 864 676 l 940 676 l 786 0 l 665 0 l 488 618 l 310 0 l 189 0 m 439 815 q 528 872 481 842 q 621 935 575 903 l 661 874 q 568 812 617 842 q 476 758 519 782 l 439 815 z "},"Ẅ":{"ha":1236,"x_min":35,"x_max":1201,"o":"m 618 867 l 413 0 l 285 0 l 35 925 l 114 925 l 346 63 l 553 925 l 683 925 l 890 63 l 1122 925 l 1201 925 l 951 0 l 824 0 l 618 867 m 453 1103 l 544 1103 l 544 1019 l 453 1019 l 453 1103 m 692 1103 l 783 1103 l 783 1019 l 692 1019 l 692 1103 z "},"ẅ":{"ha":975,"x_min":35,"x_max":940,"o":"m 189 0 l 35 676 l 111 676 l 250 54 l 433 676 l 542 676 l 724 54 l 864 676 l 940 676 l 786 0 l 665 0 l 488 618 l 310 0 l 189 0 m 326 867 l 413 867 l 413 775 l 326 775 l 326 867 m 563 867 l 649 867 l 649 775 l 563 775 l 563 867 z "},"Ỳ":{"ha":754,"x_min":21,"x_max":733,"o":"m 376 367 l 649 925 l 733 925 l 418 285 l 418 0 l 336 0 l 336 285 l 21 925 l 106 925 l 376 367 m 389 994 q 301 1046 344 1018 q 217 1101 257 1074 l 257 1163 q 343 1103 301 1131 q 426 1051 385 1076 l 389 994 z "},"ỳ":{"ha":617,"x_min":21,"x_max":603,"o":"m 374 0 l 274 -274 l 194 -274 l 296 0 l 250 0 l 21 676 l 103 676 l 311 57 l 521 676 l 603 676 l 374 0 m 328 758 q 236 812 285 782 q 143 874 188 842 l 183 935 q 276 872 229 903 q 365 815 324 842 l 328 758 z "},"–":{"ha":689,"x_min":104,"x_max":585,"o":"m 104 424 l 585 424 l 585 356 l 104 356 l 104 424 z "},"—":{"ha":869,"x_min":104,"x_max":765,"o":"m 104 424 l 765 424 l 765 356 l 104 356 l 104 424 z "},"‘":{"ha":335,"x_min":125,"x_max":231,"o":"m 211 699 l 125 699 l 125 818 l 192 968 l 231 951 l 181 818 l 211 818 l 211 699 z "},"’":{"ha":307,"x_min":111,"x_max":217,"o":"m 131 953 l 217 953 l 217 833 l 150 683 l 111 700 l 161 833 l 131 833 l 131 953 z "},"‚":{"ha":335,"x_min":104,"x_max":210,"o":"m 124 119 l 210 119 l 210 0 l 143 -150 l 104 -133 l 154 0 l 124 0 l 124 119 z "},"“":{"ha":550,"x_min":125,"x_max":446,"o":"m 426 699 l 340 699 l 340 818 l 407 968 l 446 951 l 396 818 l 426 818 l 426 699 m 211 699 l 125 699 l 125 818 l 192 968 l 231 951 l 181 818 l 211 818 l 211 699 z "},"”":{"ha":550,"x_min":104,"x_max":425,"o":"m 124 953 l 210 953 l 210 833 l 143 683 l 104 700 l 154 833 l 124 833 l 124 953 m 339 953 l 425 953 l 425 833 l 358 683 l 319 700 l 369 833 l 339 833 l 339 953 z "},"„":{"ha":550,"x_min":104,"x_max":425,"o":"m 124 119 l 210 119 l 210 0 l 143 -150 l 104 -133 l 154 0 l 124 0 l 124 119 m 339 119 l 425 119 l 425 0 l 358 -150 l 319 -133 l 369 0 l 339 0 l 339 119 z "},"†":{"ha":689,"x_min":76,"x_max":613,"o":"m 76 672 l 304 672 l 304 925 l 385 925 l 385 672 l 613 672 l 613 600 l 385 600 l 385 -97 l 304 -97 l 304 600 l 76 600 l 76 672 z "},"‡":{"ha":689,"x_min":76,"x_max":613,"o":"m 76 228 l 304 228 l 304 600 l 76 600 l 76 672 l 304 672 l 304 925 l 385 925 l 385 672 l 613 672 l 613 600 l 385 600 l 385 228 l 613 228 l 613 156 l 385 156 l 385 -97 l 304 -97 l 304 156 l 76 156 l 76 228 z "},"•":{"ha":531,"x_min":104,"x_max":426,"o":"m 104 449 q 117 511 104 482 q 151 563 129 540 q 203 597 174 585 q 265 610 232 610 q 328 597 299 610 q 379 563 357 585 q 414 511 401 540 q 426 449 426 482 q 414 386 426 415 q 379 335 401 357 q 328 300 357 313 q 265 288 299 288 q 203 300 232 288 q 151 335 174 313 q 117 386 129 357 q 104 449 104 415 z "},"…":{"ha":981,"x_min":125,"x_max":856,"o":"m 125 119 l 211 119 l 211 0 l 125 0 l 125 119 m 447 119 l 533 119 l 533 0 l 447 0 l 447 119 m 769 119 l 856 119 l 856 0 l 769 0 l 769 119 z "},"‰":{"ha":1683,"x_min":76,"x_max":1600,"o":"m 425 -14 l 364 10 l 743 939 l 804 914 l 425 -14 m 472 617 q 426 482 472 531 q 275 433 379 433 q 124 482 171 433 q 76 617 76 531 l 76 756 q 124 890 76 842 q 275 939 171 939 q 426 890 379 939 q 472 756 472 842 l 472 617 m 146 615 q 174 526 146 557 q 275 494 201 494 q 376 526 349 494 q 403 615 403 557 l 403 757 q 376 847 403 815 q 275 878 349 878 q 174 847 201 878 q 146 757 146 815 l 146 615 m 1088 169 q 1041 35 1088 83 q 890 -14 994 -14 q 739 35 786 -14 q 692 169 692 83 l 692 308 q 739 443 692 394 q 890 492 786 492 q 1041 443 994 492 q 1088 308 1088 394 l 1088 169 m 761 168 q 789 78 761 110 q 890 47 817 47 q 991 78 964 47 q 1018 168 1018 110 l 1018 310 q 991 399 1018 368 q 890 431 964 431 q 789 399 817 431 q 761 310 761 368 l 761 168 m 1600 169 q 1553 35 1600 83 q 1403 -14 1507 -14 q 1251 35 1299 -14 q 1204 169 1204 83 l 1204 308 q 1251 443 1204 394 q 1403 492 1299 492 q 1553 443 1507 492 q 1600 308 1600 394 l 1600 169 m 1274 168 q 1301 78 1274 110 q 1403 47 1329 47 q 1503 78 1476 47 q 1531 168 1531 110 l 1531 310 q 1503 399 1531 368 q 1403 431 1476 431 q 1301 399 1329 431 q 1274 310 1274 368 l 1274 168 z "},"‹":{"ha":406,"x_min":76,"x_max":315,"o":"m 254 607 l 315 565 l 165 339 l 315 113 l 254 71 l 76 339 l 254 607 z "},"›":{"ha":406,"x_min":90,"x_max":329,"o":"m 329 339 l 151 71 l 90 113 l 240 339 l 90 565 l 151 607 l 329 339 z "},"⁄":{"ha":449,"x_min":14,"x_max":435,"o":"m 72 -36 l 14 -14 l 378 933 l 435 911 l 72 -36 z "},"€":{"ha":768,"x_min":56,"x_max":692,"o":"m 56 604 l 182 604 l 182 643 q 199 757 182 707 q 251 842 215 807 q 347 894 288 876 q 489 911 406 911 q 591 906 539 911 q 692 890 643 901 l 682 819 q 591 833 642 828 q 496 838 540 838 q 389 827 433 838 q 317 794 344 817 q 276 733 289 771 q 264 642 264 696 l 264 604 l 554 604 l 554 540 l 264 540 l 264 364 l 554 364 l 554 300 l 264 300 l 264 256 q 276 164 264 201 q 317 103 289 126 q 389 70 344 81 q 496 60 433 60 q 588 65 540 60 q 682 78 635 69 l 692 7 q 489 -14 588 -14 q 347 3 406 -14 q 251 56 288 21 q 199 140 215 90 q 182 254 182 189 l 182 300 l 56 300 l 56 364 l 182 364 l 182 540 l 56 540 l 56 604 z "},"ℓ":{"ha":638,"x_min":28,"x_max":554,"o":"m 368 -14 q 269 2 308 -14 q 205 47 229 18 q 171 113 181 75 q 161 196 161 151 l 161 301 q 113 274 138 288 q 61 246 88 261 l 28 307 q 96 346 63 326 q 161 385 129 365 l 161 764 q 205 922 161 863 q 353 981 249 981 q 491 928 447 981 q 535 792 535 875 q 517 662 535 721 q 463 550 499 603 q 372 449 426 497 q 242 351 317 400 l 242 197 q 273 89 242 119 q 367 58 304 58 q 450 67 411 58 q 533 97 489 76 l 554 31 q 468 -2 513 10 q 368 -14 424 -14 m 242 436 q 332 512 292 475 q 400 590 372 549 q 442 681 428 632 q 457 792 457 729 q 430 878 457 847 q 353 908 403 908 q 242 764 242 908 l 242 436 z "},"№":{"ha":1317,"x_min":125,"x_max":1254,"o":"m 200 844 l 200 0 l 125 0 l 125 925 l 242 925 l 625 79 l 625 925 l 700 925 l 700 0 l 583 0 l 200 844 m 1254 597 q 1207 463 1254 513 q 1057 413 1160 413 q 907 463 954 413 q 860 597 860 513 l 860 754 q 907 889 860 839 q 1057 939 954 939 q 1206 889 1160 939 q 1254 754 1251 839 l 1254 597 m 1183 757 q 1153 845 1183 815 q 1057 875 1124 875 q 960 845 990 875 q 931 757 931 815 l 931 594 q 960 506 931 536 q 1057 476 990 476 q 1153 506 1124 476 q 1183 594 1183 536 l 1183 757 m 874 331 l 1240 331 l 1240 268 l 874 268 l 874 331 z "},"™":{"ha":725,"x_min":76,"x_max":642,"o":"m 593 840 l 528 674 l 472 674 l 408 842 l 404 639 l 358 639 l 365 925 l 419 925 l 500 707 l 582 925 l 632 925 l 642 639 l 596 639 l 593 840 m 164 883 l 76 883 l 76 925 l 296 925 l 296 883 l 208 883 l 208 639 l 164 639 l 164 883 z "},"℮":{"ha":1117,"x_min":63,"x_max":1054,"o":"m 260 418 l 260 139 q 392 62 317 90 q 558 33 467 33 q 777 78 683 33 q 963 214 871 122 l 996 181 q 910 103 956 139 q 812 42 865 68 q 696 1 758 15 q 558 -14 633 -14 q 363 23 453 -14 q 206 123 272 60 q 101 270 139 186 q 63 449 63 354 q 102 628 63 544 q 209 775 142 713 q 367 874 276 838 q 558 911 457 911 q 749 874 660 911 q 907 775 839 838 q 1015 628 975 713 q 1054 449 1054 544 l 1054 418 l 260 418 m 558 864 q 394 834 471 864 q 260 753 318 804 l 260 463 l 857 463 l 857 753 q 722 834 799 804 q 558 864 646 864 z "},"∂":{"ha":781,"x_min":86,"x_max":690,"o":"m 597 569 q 571 810 621 726 q 378 894 521 894 q 289 883 329 894 q 217 853 249 872 l 189 914 q 286 953 233 940 q 392 967 339 967 q 535 938 475 967 q 632 857 596 910 q 679 728 668 804 q 674 556 690 651 l 614 207 q 589 113 606 154 q 540 44 572 72 q 457 1 508 17 q 326 -14 406 -14 q 204 1 253 -14 q 128 44 156 17 q 94 113 101 72 q 96 207 86 154 l 125 372 q 149 465 133 424 q 196 535 165 507 q 274 578 226 563 q 392 593 321 593 q 490 581 436 593 q 592 538 544 569 l 597 569 m 393 521 q 310 513 343 521 q 256 489 276 506 q 225 445 236 472 q 207 381 214 418 l 175 204 q 172 133 168 161 q 194 89 175 106 q 247 65 213 72 q 339 58 282 58 q 419 65 386 58 q 474 89 451 72 q 510 133 497 106 q 532 204 524 161 l 578 460 q 539 483 561 472 q 492 503 517 494 q 441 516 467 511 q 393 521 415 521 z "},"∆":{"ha":997,"x_min":90,"x_max":907,"o":"m 907 0 l 90 0 l 454 925 l 543 925 l 907 0 m 200 69 l 796 69 l 499 850 l 200 69 z "},"∏":{"ha":1124,"x_min":90,"x_max":1033,"o":"m 825 853 l 825 -139 l 744 -139 l 744 853 l 379 853 l 379 -139 l 299 -139 l 299 853 l 90 853 l 90 925 l 1033 925 l 1033 853 l 825 853 z "},"∑":{"ha":782,"x_min":125,"x_max":657,"o":"m 125 -67 l 467 393 l 125 853 l 125 925 l 657 925 l 657 853 l 222 853 l 564 393 l 222 -67 l 657 -67 l 657 -139 l 125 -139 l 125 -67 z "},"−":{"ha":544,"x_min":90,"x_max":454,"o":"m 90 374 l 454 374 l 454 306 l 90 306 l 90 374 z "},"√":{"ha":933,"x_min":97,"x_max":906,"o":"m 342 0 l 97 663 l 172 690 l 383 107 l 626 1014 l 906 1014 l 906 942 l 690 942 l 435 0 l 342 0 z "},"∞":{"ha":1200,"x_min":90,"x_max":1110,"o":"m 1110 381 q 1048 213 1110 272 q 881 153 986 153 q 788 169 829 153 q 714 210 747 185 q 653 269 681 236 q 600 336 625 301 q 547 269 575 301 q 486 210 519 236 q 412 169 453 185 q 319 153 371 153 q 152 213 214 153 q 90 381 90 272 q 152 550 90 489 q 319 611 214 611 q 412 595 371 611 q 486 553 453 579 q 547 494 519 526 q 600 426 575 461 q 653 494 625 461 q 714 553 681 526 q 788 595 747 579 q 881 611 829 611 q 1048 550 986 611 q 1110 381 1110 489 m 161 381 q 206 260 161 300 q 321 219 250 219 q 395 233 363 219 q 455 269 428 247 q 506 321 482 292 q 550 381 529 350 q 508 440 531 410 q 457 492 485 469 q 396 530 429 515 q 321 544 363 544 q 206 503 250 544 q 161 381 161 461 m 1039 381 q 994 503 1039 461 q 879 544 950 544 q 804 530 838 544 q 743 492 771 515 q 692 440 715 469 q 650 381 669 410 q 694 321 671 350 q 745 269 718 292 q 805 233 772 247 q 879 219 838 219 q 994 260 950 219 q 1039 381 1039 300 z "},"∫":{"ha":538,"x_min":49,"x_max":454,"o":"m 292 -156 q 256 -255 292 -222 q 154 -287 221 -287 q 97 -281 125 -287 q 49 -267 68 -275 l 60 -204 q 105 -214 79 -210 q 153 -218 131 -218 q 199 -202 188 -218 q 211 -156 211 -186 l 211 807 q 247 906 211 874 q 349 939 282 939 q 406 933 378 939 q 454 918 435 926 l 443 856 q 398 865 424 861 q 350 869 372 869 q 303 853 315 869 q 292 807 292 838 l 292 -156 l 292 -156 z "},"≈":{"ha":735,"x_min":111,"x_max":638,"o":"m 386 457 q 439 431 411 442 q 494 419 467 419 q 554 430 528 419 q 607 457 581 440 l 638 403 q 574 364 611 381 q 494 347 536 347 q 428 357 456 347 q 369 386 401 367 q 316 414 343 401 q 254 426 289 426 q 194 416 221 426 q 142 389 168 406 l 111 443 q 176 483 139 467 q 254 499 214 499 q 324 488 294 499 q 386 457 353 476 m 386 276 q 439 250 411 261 q 494 239 467 239 q 554 249 528 239 q 607 276 581 260 l 638 222 q 574 183 611 200 q 494 167 536 167 q 428 176 456 167 q 369 206 401 186 q 316 233 343 221 q 254 246 289 246 q 194 235 221 246 q 142 208 168 225 l 111 263 q 176 302 139 286 q 254 318 214 318 q 324 307 294 318 q 386 276 353 296 z "},"≠":{"ha":707,"x_min":111,"x_max":596,"o":"m 111 494 l 404 494 l 485 651 l 540 622 l 475 494 l 596 494 l 596 429 l 442 429 l 351 256 l 596 256 l 596 190 l 318 190 l 238 33 l 182 63 l 247 190 l 111 190 l 111 256 l 281 256 l 371 429 l 111 429 l 111 494 z "},"≤":{"ha":756,"x_min":97,"x_max":644,"o":"m 97 72 l 644 72 l 644 0 l 97 0 l 97 72 m 201 450 l 615 253 l 583 186 l 108 418 l 108 482 l 583 714 l 615 647 l 201 450 z "},"≥":{"ha":756,"x_min":111,"x_max":658,"o":"m 658 0 l 111 0 l 111 72 l 658 72 l 658 0 m 140 647 l 172 714 l 647 482 l 647 418 l 172 186 l 140 253 l 554 450 l 140 647 z "},"◊":{"ha":836,"x_min":69,"x_max":767,"o":"m 396 925 l 440 925 l 767 463 l 440 0 l 396 0 l 69 463 l 396 925 m 156 463 l 418 89 l 679 463 l 418 836 l 156 463 z "},"":{"ha":1244,"x_min":174,"x_max":1099,"o":"m 636 463 l 636 0 l 174 0 l 174 925 l 1099 925 l 1099 463 l 636 463 z "},"ﬁ":{"ha":813,"x_min":49,"x_max":694,"o":"m 614 0 l 614 607 l 256 607 l 256 0 l 175 0 l 175 607 l 49 607 l 49 676 l 175 676 l 175 818 q 222 941 175 901 q 350 981 269 981 q 489 960 424 981 l 478 897 q 415 908 446 904 q 356 911 383 911 q 276 888 297 911 q 256 808 256 864 l 256 676 l 694 676 l 694 0 l 614 0 m 614 804 l 614 953 l 694 953 l 694 804 l 614 804 z "},"ﬂ":{"ha":813,"x_min":49,"x_max":694,"o":"m 471 899 q 405 908 435 906 q 356 911 375 911 q 276 888 297 911 q 256 808 256 864 l 256 676 l 457 676 l 449 607 l 256 607 l 256 0 l 175 0 l 175 607 l 49 607 l 49 676 l 175 676 l 175 818 q 222 941 175 901 q 350 981 269 981 q 482 961 419 981 l 471 899 m 614 0 l 614 953 l 694 964 l 694 0 l 614 0 z "},"ﬀ":{"ha":992,"x_min":49,"x_max":985,"o":"m 974 899 q 851 911 907 911 q 772 888 793 911 q 751 808 751 864 l 751 676 l 960 676 l 951 608 l 751 608 l 751 0 l 671 0 l 671 608 l 256 608 l 256 0 l 175 0 l 175 608 l 49 608 l 49 676 l 175 676 l 175 818 q 222 941 175 901 q 350 981 269 981 q 419 976 379 981 q 489 961 458 971 l 478 899 q 356 911 411 911 q 276 888 297 911 q 256 808 256 864 l 256 676 l 671 676 l 671 818 q 718 941 671 901 q 846 981 765 981 q 915 976 875 981 q 985 961 954 971 l 974 899 z "},"ﬃ":{"ha":1308,"x_min":49,"x_max":1190,"o":"m 751 0 l 671 0 l 671 608 l 256 608 l 256 0 l 175 0 l 175 608 l 49 608 l 49 676 l 175 676 l 175 818 q 222 941 175 901 q 350 981 269 981 q 419 976 379 981 q 489 961 458 971 l 478 899 q 356 911 411 911 q 276 888 297 911 q 256 808 256 864 l 256 676 l 671 676 l 671 818 q 718 941 671 901 q 846 981 765 981 q 915 976 875 981 q 985 961 954 971 l 974 899 q 851 911 907 911 q 772 888 793 911 q 751 808 751 864 l 751 676 l 1190 676 l 1190 0 l 1110 0 l 1110 608 l 751 608 l 751 0 m 1110 804 l 1110 953 l 1190 953 l 1190 804 l 1110 804 z "},"ﬄ":{"ha":1308,"x_min":49,"x_max":1190,"o":"m 671 818 q 718 941 671 901 q 846 981 765 981 q 978 961 915 981 l 967 899 q 901 908 931 906 q 851 911 871 911 q 772 888 793 911 q 751 808 751 864 l 751 676 l 953 676 l 944 608 l 751 608 l 751 0 l 671 0 l 671 608 l 256 608 l 256 0 l 175 0 l 175 608 l 49 608 l 49 676 l 175 676 l 175 818 q 222 941 175 901 q 350 981 269 981 q 419 976 379 981 q 489 961 458 971 l 478 899 q 356 911 411 911 q 276 888 297 911 q 256 808 256 864 l 256 676 l 671 676 l 671 818 m 1110 0 l 1110 953 l 1190 964 l 1190 0 l 1110 0 z "},"\"":{"ha":492,"x_min":104,"x_max":388,"o":"m 104 614 l 104 953 l 175 953 l 175 614 l 104 614 m 317 614 l 317 953 l 388 953 l 388 614 l 317 614 z "},"!":{"ha":350,"x_min":132,"x_max":218,"o":"m 151 238 l 135 471 l 135 953 l 215 953 l 215 471 l 199 238 l 151 238 m 132 119 l 218 119 l 218 0 l 132 0 l 132 119 z "},"Ţ":{"ha":721,"x_min":35,"x_max":686,"o":"m 319 851 l 35 851 l 35 925 l 686 925 l 686 851 l 401 851 l 401 0 l 319 0 l 319 851 m 317 -79 l 403 -79 l 403 -199 l 336 -349 l 297 -332 l 347 -199 l 317 -199 l 317 -79 z "},"ţ":{"ha":515,"x_min":42,"x_max":467,"o":"m 467 13 q 399 -6 438 1 q 325 -14 361 -14 q 208 19 244 -14 q 172 132 172 51 l 172 607 l 42 607 l 42 676 l 172 676 l 172 836 l 253 847 l 253 676 l 460 676 l 451 607 l 253 607 l 253 140 q 255 102 253 118 q 265 76 257 86 q 289 60 274 65 q 331 56 304 56 q 451 75 389 56 l 467 13 m 264 -79 l 350 -79 l 350 -199 l 283 -349 l 244 -332 l 294 -199 l 264 -199 l 264 -79 z "},"Ș":{"ha":756,"x_min":104,"x_max":651,"o":"m 651 229 q 640 127 651 172 q 597 51 628 82 q 509 3 565 19 q 365 -14 453 -14 q 234 -3 304 -14 q 104 31 164 7 l 119 97 q 368 60 244 60 q 467 69 428 60 q 528 98 506 78 q 560 149 551 118 q 569 225 569 181 q 566 311 569 279 q 543 364 563 343 q 481 399 524 385 q 363 431 439 413 q 230 469 279 450 q 155 519 181 489 q 122 594 129 549 q 114 708 114 639 q 126 808 114 765 q 171 881 139 851 q 258 924 203 910 q 401 939 314 939 q 528 930 463 939 q 640 907 593 921 l 631 838 q 519 857 579 849 q 404 865 458 865 q 294 856 335 865 q 231 828 253 847 q 203 779 210 810 q 196 706 196 749 q 199 617 196 649 q 222 565 203 585 q 281 531 242 544 q 394 500 321 518 q 538 456 486 476 q 614 408 589 436 q 645 337 639 379 q 651 229 651 294 m 338 -79 l 424 -79 l 424 -199 l 357 -349 l 318 -332 l 368 -199 l 338 -199 l 338 -79 z "},"ș":{"ha":604,"x_min":97,"x_max":521,"o":"m 521 171 q 511 90 521 125 q 476 33 501 56 q 408 -2 451 10 q 296 -14 364 -14 q 190 -4 244 -14 q 97 21 135 6 l 111 86 q 204 65 156 72 q 290 58 253 58 q 367 63 338 58 q 413 81 396 68 q 435 115 429 93 q 440 168 440 136 q 438 226 440 204 q 419 263 435 249 q 373 287 404 276 q 283 311 342 297 q 183 343 219 326 q 128 383 147 360 q 105 438 110 406 q 100 517 100 471 q 148 646 100 601 q 321 690 196 690 q 420 684 368 690 q 513 667 472 678 l 504 599 q 410 613 464 607 q 315 618 357 618 q 244 612 271 618 q 203 593 218 606 q 185 561 189 581 q 181 514 181 542 q 183 458 181 479 q 199 424 186 438 q 238 401 211 410 q 311 379 264 392 q 428 343 386 360 q 490 303 469 326 q 516 249 511 281 q 521 171 521 218 m 268 -79 l 354 -79 l 354 -199 l 288 -349 l 249 -332 l 299 -199 l 268 -199 l 268 -79 z "},"Ț":{"ha":721,"x_min":35,"x_max":686,"o":"m 319 851 l 35 851 l 35 925 l 686 925 l 686 851 l 401 851 l 401 0 l 319 0 l 319 851 m 318 -79 l 404 -79 l 404 -199 l 338 -349 l 299 -332 l 349 -199 l 318 -199 l 318 -79 z "},"ț":{"ha":515,"x_min":42,"x_max":467,"o":"m 467 13 q 399 -6 438 1 q 325 -14 361 -14 q 208 19 244 -14 q 172 132 172 51 l 172 607 l 42 607 l 42 676 l 172 676 l 172 836 l 253 847 l 253 676 l 460 676 l 451 607 l 253 607 l 253 140 q 255 102 253 118 q 265 76 257 86 q 289 60 274 65 q 331 56 304 56 q 451 75 389 56 l 467 13 m 272 -79 l 358 -79 l 358 -199 l 292 -349 l 253 -332 l 303 -199 l 272 -199 l 272 -79 z "}}}
